<?xml version="1.0" encoding="utf-8" standalone="no"?>
<!DOCTYPE svg PUBLIC "-//W3C//DTD SVG 1.1//EN"
  "http://www.w3.org/Graphics/SVG/1.1/DTD/svg11.dtd">
<!-- Created with matplotlib (http://matplotlib.org/) -->
<svg height="891pt" version="1.1" viewBox="0 0 1008 891" width="1008pt" xmlns="http://www.w3.org/2000/svg" xmlns:xlink="http://www.w3.org/1999/xlink">
 <defs>
  <style type="text/css">
*{stroke-linecap:butt;stroke-linejoin:round;stroke-miterlimit:100000;}
  </style>
 </defs>
 <g id="figure_1">
  <g id="patch_1">
   <path d="M 0 891 
L 1008 891 
L 1008 0 
L 0 0 
z
" style="fill:#ffffff;"/>
  </g>
  <g id="axes_1">
   <g id="patch_2">
    <path d="M 126 801.9 
L 907.2 801.9 
L 907.2 89.1 
L 126 89.1 
z
" style="fill:#ffffff;"/>
   </g>
   <g id="patch_3">
    <path clip-path="url(#p28dc7af13d)" d="M 126 694.98 
L 829.08 694.98 
L 829.08 659.34 
L 126 659.34 
z
" style="opacity:0.7;stroke:#000000;stroke-linejoin:miter;"/>
   </g>
   <g id="patch_4">
    <path clip-path="url(#p28dc7af13d)" d="M 204.12 552.42 
L 907.2 552.42 
L 907.2 516.78 
L 204.12 516.78 
z
" style="opacity:0.7;stroke:#000000;stroke-linejoin:miter;"/>
   </g>
   <g id="patch_5">
    <path clip-path="url(#p28dc7af13d)" d="M 126 374.22 
L 438.48 374.22 
L 438.48 89.1 
L 126 89.1 
z
" style="opacity:0.7;stroke:#000000;stroke-linejoin:miter;"/>
   </g>
   <g id="patch_6">
    <path clip-path="url(#p28dc7af13d)" d="M 594.72 374.22 
L 907.2 374.22 
L 907.2 89.1 
L 594.72 89.1 
z
" style="opacity:0.7;stroke:#000000;stroke-linejoin:miter;"/>
   </g>
   <g id="patch_7">
    <path clip-path="url(#p28dc7af13d)" d="M 497.07 124.74 
L 536.13 124.74 
L 536.13 89.1 
L 497.07 89.1 
z
" style="fill:#008000;stroke:#000000;stroke-linejoin:miter;"/>
   </g>
   <g id="line2d_1">
    <path clip-path="url(#p28dc7af13d)" d="M 516.6 801.1872 
L 516.6 797.6232 
L 516.7953 794.063691 
L 517.185119 790.517439 
L 517.768675 786.993499 
L 518.545188 783.500565 
L 519.511532 780.047334 
L 520.665365 776.642502 
L 522.005123 773.294623 
L 523.526119 770.011965 
L 525.225229 766.802797 
L 527.097766 763.675102 
L 529.139822 760.636721 
L 531.34515 757.695209 
L 533.709061 754.85798 
L 536.225306 752.13209 
L 538.887636 749.524383 
L 541.6898 747.041344 
L 544.623988 744.689175 
L 547.683948 742.473793 
L 550.861088 740.400685 
L 554.147597 738.475056 
L 557.536442 736.701752 
L 561.01747 735.085122 
L 564.582085 733.629299 
L 568.223258 732.337848 
L 571.930052 731.214119 
L 575.693093 730.260749 
L 579.504568 729.480233 
L 583.35354 728.874353 
L 587.231417 728.445247 
L 591.127261 728.192916 
L 595.03248 728.118785 
L 598.936918 728.222854 
L 602.830418 728.505122 
L 606.704389 728.964166 
L 610.547893 729.59927 
L 614.351556 730.409011 
L 618.106003 731.391463 
L 621.802642 732.543705 
L 625.431316 733.863026 
L 771.050902 794.672921 
L 774.679576 795.992264 
L 778.375433 797.144491 
L 782.130661 798.126715 
L 785.934324 798.936484 
L 789.777828 799.571774 
L 793.651018 800.031003 
L 797.544518 800.313008 
L 801.448956 800.417098 
L 805.354175 800.34301 
L 809.2508 800.090921 
L 813.127896 799.661473 
L 816.976868 799.055736 
L 820.788343 798.27522 
L 824.552165 797.321871 
L 828.258959 796.198085 
L 831.899351 794.906662 
L 835.464748 793.450825 
L 838.945775 791.834266 
L 842.333839 790.060891 
L 845.620348 788.135262 
L 848.798269 786.062226 
L 851.857448 783.846772 
L 854.792417 781.494603 
L 857.5938 779.011564 
L 860.256911 776.403857 
L 862.773156 773.677967 
L 865.137067 770.840738 
L 867.342395 767.899297 
L 869.38367 764.860845 
L 871.256988 761.733221 
L 872.955317 758.523982 
L 874.477094 755.241324 
L 875.816071 751.893445 
L 876.970685 748.488613 
L 877.937029 745.035453 
L 878.712761 741.542448 
L 879.296317 738.018508 
L 879.686917 734.472328 
L 879.881436 730.912747 
L 879.784567 723.785674 
L 879.296317 716.672642 
L 878.419811 709.590262 
L 877.155829 702.556351 
L 875.508278 695.589444 
L 873.481064 688.705934 
L 871.079656 681.923642 
L 868.310302 675.259675 
L 865.178471 668.729714 
L 861.692756 662.350867 
L 857.862533 656.139528 
L 853.697174 650.109953 
L 849.206056 644.278536 
L 844.401676 638.658821 
L 839.294971 633.265063 
L 833.899223 628.110806 
L 828.228492 623.209594 
L 822.296059 618.57283 
L 816.116767 614.212632 
L 809.70624 610.13898 
L 803.081664 606.363278 
L 796.257882 602.894794 
L 789.25208 599.741366 
L 782.083008 596.91155 
L 774.767851 594.411761 
L 767.324578 592.249126 
L 759.771936 590.428634 
L 752.129456 588.954564 
L 744.415888 587.831191 
L 736.65076 587.060654 
L 728.85204 586.645092 
L 721.040821 586.58593 
L 713.236633 586.883167 
L 705.458225 587.536092 
L 697.725126 588.542566 
L 690.056867 589.90045 
L 682.472196 591.60618 
L 674.990644 593.656193 
L 667.630958 596.044073 
L 660.411108 598.765543 
L 653.268596 601.650245 
L 645.976094 604.205633 
L 638.553132 606.425292 
L 631.018458 608.30352 
L 623.389259 609.83604 
L 615.686627 611.018575 
L 607.927748 611.848274 
L 600.133716 612.323712 
L 592.32406 612.44275 
L 584.516747 612.205387 
L 576.732089 611.612338 
L 568.990397 610.665026 
L 561.309638 609.365592 
L 553.710125 607.717598 
L 546.209824 605.725322 
L 538.828265 603.393754 
L 531.584197 600.727882 
L 524.494807 597.735547 
L 517.578062 594.423166 
L 510.851149 590.800003 
L 504.225792 587.024302 
L 497.40201 583.555104 
L 490.39699 580.401677 
L 483.227136 577.571861 
L 475.911979 575.072784 
L 468.468706 572.909436 
L 460.916845 571.088945 
L 453.274366 569.614874 
L 445.560797 568.491502 
L 437.794888 567.720965 
L 429.996949 567.306115 
L 422.18573 567.246953 
L 414.380761 567.543478 
L 406.602353 568.196402 
L 398.869254 569.202876 
L 391.200995 570.56076 
L 383.617105 572.267203 
L 376.135553 574.316503 
L 368.775868 576.705096 
L 361.556017 579.425854 
L 354.412724 582.310555 
L 347.121004 584.865943 
L 339.698041 587.085602 
L 332.162586 588.96383 
L 324.534168 590.49635 
L 316.830755 591.678886 
L 309.072658 592.509298 
L 301.278625 592.984022 
L 293.468188 593.10306 
L 285.660875 592.865698 
L 277.876998 592.272648 
L 270.134525 591.325337 
L 262.454548 590.026615 
L 254.854253 588.378622 
L 247.354733 586.386346 
L 239.973174 584.054064 
L 232.728325 581.388905 
L 225.638935 578.395858 
L 218.72219 575.084189 
L 211.995277 571.460314 
L 208.708769 569.535041 
L 205.531628 567.461506 
L 202.471902 565.246123 
L 199.537481 562.893883 
L 196.735473 560.411201 
L 194.072987 557.803066 
L 191.556742 555.077318 
L 189.192909 552.240374 
L 186.987425 549.298649 
L 184.945837 546.259982 
L 183.073222 543.132216 
L 181.374268 539.92319 
L 179.853194 536.640746 
L 178.513826 533.292725 
L 177.359603 529.887679 
L 176.393259 526.434876 
L 175.617293 522.941443 
L 175.03358 519.41736 
L 174.643683 515.87118 
L 174.448462 512.31217 
L 174.448462 508.74817 
L 174.643762 505.188446 
L 175.033737 501.642266 
L 175.617449 498.118183 
L 176.393493 494.625463 
L 177.359838 491.171947 
L 178.514139 487.767614 
L 179.853584 484.419593 
L 181.374659 481.136436 
L 183.073613 477.92741 
L 184.946305 474.799644 
L 186.987972 471.76169 
L 189.193455 468.819965 
L 191.557367 465.983021 
L 194.07369 463.256561 
L 196.736176 460.649138 
L 199.538184 458.165743 
L 202.472684 455.814216 
L 205.53241 453.598834 
L 208.70955 451.525298 
L 215.334907 447.749597 
L 222.158689 444.281112 
L 229.164491 441.127685 
L 236.333563 438.297869 
L 243.64872 435.798079 
L 251.091994 433.635444 
L 258.643854 431.814953 
L 266.286334 430.341595 
L 274.000684 429.21751 
L 281.765812 428.447686 
L 289.564531 428.032123 
L 297.374969 427.972961 
L 305.179938 428.270198 
L 312.958346 428.923123 
L 320.691445 429.929597 
L 328.359704 431.287481 
L 335.944375 432.993924 
L 343.425928 435.043937 
L 350.785613 437.431817 
L 358.004682 440.153287 
L 361.556798 441.635911 
L 365.185472 442.955304 
L 368.88133 444.107902 
L 372.636558 445.09014 
L 376.440221 445.899881 
L 380.283725 446.534986 
L 384.156914 446.994029 
L 388.050415 447.276298 
L 391.954853 447.380366 
L 395.860072 447.306235 
L 399.756697 447.053904 
L 403.633793 446.624798 
L 407.482765 446.018918 
L 411.29424 445.238402 
L 415.058062 444.285389 
L 418.764856 443.161303 
L 422.405248 441.86971 
L 425.970644 440.414172 
L 429.451672 438.797542 
L 432.839736 437.024095 
L 436.126244 435.098822 
L 439.304166 433.025287 
L 442.363345 430.809905 
L 445.298314 428.457665 
L 448.099697 425.974982 
L 450.762808 423.366847 
L 453.279053 420.6411 
L 455.642964 417.804156 
L 457.848292 414.86243 
L 459.889567 411.824477 
L 461.762885 408.69671 
L 463.461214 405.486972 
L 464.982991 402.204528 
L 466.321968 398.856506 
L 467.476582 395.452174 
L 468.442926 391.998658 
L 469.218658 388.505938 
L 469.802214 384.981854 
L 470.192814 381.435674 
L 470.387333 377.875951 
L 470.486545 228.189377 
L 470.974014 221.075633 
L 471.851302 213.993252 
L 473.115283 206.960054 
L 474.762834 199.992434 
L 476.790048 193.109638 
L 479.191457 186.327346 
L 481.961592 179.662666 
L 485.092642 173.133418 
L 488.578356 166.75457 
L 492.40858 160.543231 
L 496.574719 154.513656 
L 501.065838 148.682239 
L 505.870218 143.062524 
L 510.976922 137.668766 
L 516.372671 132.515222 
L 522.043402 127.613297 
L 527.975834 122.976533 
L 534.155126 118.616335 
L 540.565654 114.543396 
L 540.565654 114.543396 
" style="fill:none;stroke:#ff0000;stroke-linecap:square;"/>
   </g>
   <g id="patch_8">
    <path d="M 126 89.1 
L 907.2 89.1 
" style="fill:none;stroke:#000000;stroke-linecap:square;stroke-linejoin:miter;"/>
   </g>
   <g id="patch_9">
    <path d="M 907.2 801.9 
L 907.2 89.1 
" style="fill:none;stroke:#000000;stroke-linecap:square;stroke-linejoin:miter;"/>
   </g>
   <g id="patch_10">
    <path d="M 126 801.9 
L 907.2 801.9 
" style="fill:none;stroke:#000000;stroke-linecap:square;stroke-linejoin:miter;"/>
   </g>
   <g id="patch_11">
    <path d="M 126 801.9 
L 126 89.1 
" style="fill:none;stroke:#000000;stroke-linecap:square;stroke-linejoin:miter;"/>
   </g>
   <g id="matplotlib.axis_1">
    <g id="xtick_1">
     <g id="line2d_2">
      <defs>
       <path d="M 0 0 
L 0 -4 
" id="m09fdcef472" style="stroke:#000000;stroke-width:0.5;"/>
      </defs>
      <g>
       <use style="stroke:#000000;stroke-width:0.5;" x="126.0" xlink:href="#m09fdcef472" y="801.9"/>
      </g>
     </g>
     <g id="line2d_3">
      <defs>
       <path d="M 0 0 
L 0 4 
" id="m5d9962ce28" style="stroke:#000000;stroke-width:0.5;"/>
      </defs>
      <g>
       <use style="stroke:#000000;stroke-width:0.5;" x="126.0" xlink:href="#m5d9962ce28" y="89.1"/>
      </g>
     </g>
     <g id="text_1">
      <!-- 0 -->
      <defs>
       <path d="M 31.78125 66.40625 
Q 24.171875 66.40625 20.328125 58.90625 
Q 16.5 51.421875 16.5 36.375 
Q 16.5 21.390625 20.328125 13.890625 
Q 24.171875 6.390625 31.78125 6.390625 
Q 39.453125 6.390625 43.28125 13.890625 
Q 47.125 21.390625 47.125 36.375 
Q 47.125 51.421875 43.28125 58.90625 
Q 39.453125 66.40625 31.78125 66.40625 
M 31.78125 74.21875 
Q 44.046875 74.21875 50.515625 64.515625 
Q 56.984375 54.828125 56.984375 36.375 
Q 56.984375 17.96875 50.515625 8.265625 
Q 44.046875 -1.421875 31.78125 -1.421875 
Q 19.53125 -1.421875 13.0625 8.265625 
Q 6.59375 17.96875 6.59375 36.375 
Q 6.59375 54.828125 13.0625 64.515625 
Q 19.53125 74.21875 31.78125 74.21875 
" id="BitstreamVeraSans-Roman-30"/>
      </defs>
      <g transform="translate(122.1825 815.018125)scale(0.12 -0.12)">
       <use xlink:href="#BitstreamVeraSans-Roman-30"/>
      </g>
     </g>
    </g>
    <g id="xtick_2">
     <g id="line2d_4">
      <g>
       <use style="stroke:#000000;stroke-width:0.5;" x="282.24" xlink:href="#m09fdcef472" y="801.9"/>
      </g>
     </g>
     <g id="line2d_5">
      <g>
       <use style="stroke:#000000;stroke-width:0.5;" x="282.24" xlink:href="#m5d9962ce28" y="89.1"/>
      </g>
     </g>
     <g id="text_2">
      <!-- 2 -->
      <defs>
       <path d="M 19.1875 8.296875 
L 53.609375 8.296875 
L 53.609375 0 
L 7.328125 0 
L 7.328125 8.296875 
Q 12.9375 14.109375 22.625 23.890625 
Q 32.328125 33.6875 34.8125 36.53125 
Q 39.546875 41.84375 41.421875 45.53125 
Q 43.3125 49.21875 43.3125 52.78125 
Q 43.3125 58.59375 39.234375 62.25 
Q 35.15625 65.921875 28.609375 65.921875 
Q 23.96875 65.921875 18.8125 64.3125 
Q 13.671875 62.703125 7.8125 59.421875 
L 7.8125 69.390625 
Q 13.765625 71.78125 18.9375 73 
Q 24.125 74.21875 28.421875 74.21875 
Q 39.75 74.21875 46.484375 68.546875 
Q 53.21875 62.890625 53.21875 53.421875 
Q 53.21875 48.921875 51.53125 44.890625 
Q 49.859375 40.875 45.40625 35.40625 
Q 44.1875 33.984375 37.640625 27.21875 
Q 31.109375 20.453125 19.1875 8.296875 
" id="BitstreamVeraSans-Roman-32"/>
      </defs>
      <g transform="translate(278.4225 815.018125)scale(0.12 -0.12)">
       <use xlink:href="#BitstreamVeraSans-Roman-32"/>
      </g>
     </g>
    </g>
    <g id="xtick_3">
     <g id="line2d_6">
      <g>
       <use style="stroke:#000000;stroke-width:0.5;" x="438.48" xlink:href="#m09fdcef472" y="801.9"/>
      </g>
     </g>
     <g id="line2d_7">
      <g>
       <use style="stroke:#000000;stroke-width:0.5;" x="438.48" xlink:href="#m5d9962ce28" y="89.1"/>
      </g>
     </g>
     <g id="text_3">
      <!-- 4 -->
      <defs>
       <path d="M 37.796875 64.3125 
L 12.890625 25.390625 
L 37.796875 25.390625 
z
M 35.203125 72.90625 
L 47.609375 72.90625 
L 47.609375 25.390625 
L 58.015625 25.390625 
L 58.015625 17.1875 
L 47.609375 17.1875 
L 47.609375 0 
L 37.796875 0 
L 37.796875 17.1875 
L 4.890625 17.1875 
L 4.890625 26.703125 
z
" id="BitstreamVeraSans-Roman-34"/>
      </defs>
      <g transform="translate(434.6625 815.018125)scale(0.12 -0.12)">
       <use xlink:href="#BitstreamVeraSans-Roman-34"/>
      </g>
     </g>
    </g>
    <g id="xtick_4">
     <g id="line2d_8">
      <g>
       <use style="stroke:#000000;stroke-width:0.5;" x="594.72" xlink:href="#m09fdcef472" y="801.9"/>
      </g>
     </g>
     <g id="line2d_9">
      <g>
       <use style="stroke:#000000;stroke-width:0.5;" x="594.72" xlink:href="#m5d9962ce28" y="89.1"/>
      </g>
     </g>
     <g id="text_4">
      <!-- 6 -->
      <defs>
       <path d="M 33.015625 40.375 
Q 26.375 40.375 22.484375 35.828125 
Q 18.609375 31.296875 18.609375 23.390625 
Q 18.609375 15.53125 22.484375 10.953125 
Q 26.375 6.390625 33.015625 6.390625 
Q 39.65625 6.390625 43.53125 10.953125 
Q 47.40625 15.53125 47.40625 23.390625 
Q 47.40625 31.296875 43.53125 35.828125 
Q 39.65625 40.375 33.015625 40.375 
M 52.59375 71.296875 
L 52.59375 62.3125 
Q 48.875 64.0625 45.09375 64.984375 
Q 41.3125 65.921875 37.59375 65.921875 
Q 27.828125 65.921875 22.671875 59.328125 
Q 17.53125 52.734375 16.796875 39.40625 
Q 19.671875 43.65625 24.015625 45.921875 
Q 28.375 48.1875 33.59375 48.1875 
Q 44.578125 48.1875 50.953125 41.515625 
Q 57.328125 34.859375 57.328125 23.390625 
Q 57.328125 12.15625 50.6875 5.359375 
Q 44.046875 -1.421875 33.015625 -1.421875 
Q 20.359375 -1.421875 13.671875 8.265625 
Q 6.984375 17.96875 6.984375 36.375 
Q 6.984375 53.65625 15.1875 63.9375 
Q 23.390625 74.21875 37.203125 74.21875 
Q 40.921875 74.21875 44.703125 73.484375 
Q 48.484375 72.75 52.59375 71.296875 
" id="BitstreamVeraSans-Roman-36"/>
      </defs>
      <g transform="translate(590.9025 815.018125)scale(0.12 -0.12)">
       <use xlink:href="#BitstreamVeraSans-Roman-36"/>
      </g>
     </g>
    </g>
    <g id="xtick_5">
     <g id="line2d_10">
      <g>
       <use style="stroke:#000000;stroke-width:0.5;" x="750.96" xlink:href="#m09fdcef472" y="801.9"/>
      </g>
     </g>
     <g id="line2d_11">
      <g>
       <use style="stroke:#000000;stroke-width:0.5;" x="750.96" xlink:href="#m5d9962ce28" y="89.1"/>
      </g>
     </g>
     <g id="text_5">
      <!-- 8 -->
      <defs>
       <path d="M 31.78125 34.625 
Q 24.75 34.625 20.71875 30.859375 
Q 16.703125 27.09375 16.703125 20.515625 
Q 16.703125 13.921875 20.71875 10.15625 
Q 24.75 6.390625 31.78125 6.390625 
Q 38.8125 6.390625 42.859375 10.171875 
Q 46.921875 13.96875 46.921875 20.515625 
Q 46.921875 27.09375 42.890625 30.859375 
Q 38.875 34.625 31.78125 34.625 
M 21.921875 38.8125 
Q 15.578125 40.375 12.03125 44.71875 
Q 8.5 49.078125 8.5 55.328125 
Q 8.5 64.0625 14.71875 69.140625 
Q 20.953125 74.21875 31.78125 74.21875 
Q 42.671875 74.21875 48.875 69.140625 
Q 55.078125 64.0625 55.078125 55.328125 
Q 55.078125 49.078125 51.53125 44.71875 
Q 48 40.375 41.703125 38.8125 
Q 48.828125 37.15625 52.796875 32.3125 
Q 56.78125 27.484375 56.78125 20.515625 
Q 56.78125 9.90625 50.3125 4.234375 
Q 43.84375 -1.421875 31.78125 -1.421875 
Q 19.734375 -1.421875 13.25 4.234375 
Q 6.78125 9.90625 6.78125 20.515625 
Q 6.78125 27.484375 10.78125 32.3125 
Q 14.796875 37.15625 21.921875 38.8125 
M 18.3125 54.390625 
Q 18.3125 48.734375 21.84375 45.5625 
Q 25.390625 42.390625 31.78125 42.390625 
Q 38.140625 42.390625 41.71875 45.5625 
Q 45.3125 48.734375 45.3125 54.390625 
Q 45.3125 60.0625 41.71875 63.234375 
Q 38.140625 66.40625 31.78125 66.40625 
Q 25.390625 66.40625 21.84375 63.234375 
Q 18.3125 60.0625 18.3125 54.390625 
" id="BitstreamVeraSans-Roman-38"/>
      </defs>
      <g transform="translate(747.1425 815.018125)scale(0.12 -0.12)">
       <use xlink:href="#BitstreamVeraSans-Roman-38"/>
      </g>
     </g>
    </g>
    <g id="xtick_6">
     <g id="line2d_12">
      <g>
       <use style="stroke:#000000;stroke-width:0.5;" x="907.2" xlink:href="#m09fdcef472" y="801.9"/>
      </g>
     </g>
     <g id="line2d_13">
      <g>
       <use style="stroke:#000000;stroke-width:0.5;" x="907.2" xlink:href="#m5d9962ce28" y="89.1"/>
      </g>
     </g>
     <g id="text_6">
      <!-- 10 -->
      <defs>
       <path d="M 12.40625 8.296875 
L 28.515625 8.296875 
L 28.515625 63.921875 
L 10.984375 60.40625 
L 10.984375 69.390625 
L 28.421875 72.90625 
L 38.28125 72.90625 
L 38.28125 8.296875 
L 54.390625 8.296875 
L 54.390625 0 
L 12.40625 0 
z
" id="BitstreamVeraSans-Roman-31"/>
      </defs>
      <g transform="translate(899.565 815.018125)scale(0.12 -0.12)">
       <use xlink:href="#BitstreamVeraSans-Roman-31"/>
       <use x="63.623046875" xlink:href="#BitstreamVeraSans-Roman-30"/>
      </g>
     </g>
    </g>
   </g>
   <g id="matplotlib.axis_2">
    <g id="ytick_1">
     <g id="line2d_14">
      <defs>
       <path d="M 0 0 
L 4 0 
" id="m38a4915308" style="stroke:#000000;stroke-width:0.5;"/>
      </defs>
      <g>
       <use style="stroke:#000000;stroke-width:0.5;" x="126.0" xlink:href="#m38a4915308" y="801.9"/>
      </g>
     </g>
     <g id="line2d_15">
      <defs>
       <path d="M 0 0 
L -4 0 
" id="m370e398905" style="stroke:#000000;stroke-width:0.5;"/>
      </defs>
      <g>
       <use style="stroke:#000000;stroke-width:0.5;" x="907.2" xlink:href="#m370e398905" y="801.9"/>
      </g>
     </g>
     <g id="text_7">
      <!-- 0 -->
      <g transform="translate(114.365 805.21125)scale(0.12 -0.12)">
       <use xlink:href="#BitstreamVeraSans-Roman-30"/>
      </g>
     </g>
    </g>
    <g id="ytick_2">
     <g id="line2d_16">
      <g>
       <use style="stroke:#000000;stroke-width:0.5;" x="126.0" xlink:href="#m38a4915308" y="659.34"/>
      </g>
     </g>
     <g id="line2d_17">
      <g>
       <use style="stroke:#000000;stroke-width:0.5;" x="907.2" xlink:href="#m370e398905" y="659.34"/>
      </g>
     </g>
     <g id="text_8">
      <!-- 2 -->
      <g transform="translate(114.365 662.65125)scale(0.12 -0.12)">
       <use xlink:href="#BitstreamVeraSans-Roman-32"/>
      </g>
     </g>
    </g>
    <g id="ytick_3">
     <g id="line2d_18">
      <g>
       <use style="stroke:#000000;stroke-width:0.5;" x="126.0" xlink:href="#m38a4915308" y="516.78"/>
      </g>
     </g>
     <g id="line2d_19">
      <g>
       <use style="stroke:#000000;stroke-width:0.5;" x="907.2" xlink:href="#m370e398905" y="516.78"/>
      </g>
     </g>
     <g id="text_9">
      <!-- 4 -->
      <g transform="translate(114.365 520.09125)scale(0.12 -0.12)">
       <use xlink:href="#BitstreamVeraSans-Roman-34"/>
      </g>
     </g>
    </g>
    <g id="ytick_4">
     <g id="line2d_20">
      <g>
       <use style="stroke:#000000;stroke-width:0.5;" x="126.0" xlink:href="#m38a4915308" y="374.22"/>
      </g>
     </g>
     <g id="line2d_21">
      <g>
       <use style="stroke:#000000;stroke-width:0.5;" x="907.2" xlink:href="#m370e398905" y="374.22"/>
      </g>
     </g>
     <g id="text_10">
      <!-- 6 -->
      <g transform="translate(114.365 377.53125)scale(0.12 -0.12)">
       <use xlink:href="#BitstreamVeraSans-Roman-36"/>
      </g>
     </g>
    </g>
    <g id="ytick_5">
     <g id="line2d_22">
      <g>
       <use style="stroke:#000000;stroke-width:0.5;" x="126.0" xlink:href="#m38a4915308" y="231.66"/>
      </g>
     </g>
     <g id="line2d_23">
      <g>
       <use style="stroke:#000000;stroke-width:0.5;" x="907.2" xlink:href="#m370e398905" y="231.66"/>
      </g>
     </g>
     <g id="text_11">
      <!-- 8 -->
      <g transform="translate(114.365 234.97125)scale(0.12 -0.12)">
       <use xlink:href="#BitstreamVeraSans-Roman-38"/>
      </g>
     </g>
    </g>
    <g id="ytick_6">
     <g id="line2d_24">
      <g>
       <use style="stroke:#000000;stroke-width:0.5;" x="126.0" xlink:href="#m38a4915308" y="89.1"/>
      </g>
     </g>
     <g id="line2d_25">
      <g>
       <use style="stroke:#000000;stroke-width:0.5;" x="907.2" xlink:href="#m370e398905" y="89.1"/>
      </g>
     </g>
     <g id="text_12">
      <!-- 10 -->
      <g transform="translate(106.73 92.41125)scale(0.12 -0.12)">
       <use xlink:href="#BitstreamVeraSans-Roman-31"/>
       <use x="63.623046875" xlink:href="#BitstreamVeraSans-Roman-30"/>
      </g>
     </g>
    </g>
   </g>
  </g>
 </g>
 <defs>
  <clipPath id="p28dc7af13d">
   <rect height="712.8" width="781.2" x="126.0" y="89.1"/>
  </clipPath>
 </defs>
</svg>
