<?xml version="1.0" encoding="utf-8" standalone="no"?>
<!DOCTYPE svg PUBLIC "-//W3C//DTD SVG 1.1//EN"
  "http://www.w3.org/Graphics/SVG/1.1/DTD/svg11.dtd">
<!-- Created with matplotlib (http://matplotlib.org/) -->
<svg height="891pt" version="1.1" viewBox="0 0 1008 891" width="1008pt" xmlns="http://www.w3.org/2000/svg" xmlns:xlink="http://www.w3.org/1999/xlink">
 <defs>
  <style type="text/css">
*{stroke-linecap:butt;stroke-linejoin:round;stroke-miterlimit:100000;}
  </style>
 </defs>
 <g id="figure_1">
  <g id="patch_1">
   <path d="M 0 891 
L 1008 891 
L 1008 0 
L 0 0 
z
" style="fill:#ffffff;"/>
  </g>
  <g id="axes_1">
   <g id="patch_2">
    <path d="M 126 801.9 
L 907.2 801.9 
L 907.2 89.1 
L 126 89.1 
z
" style="fill:#ffffff;"/>
   </g>
   <g id="patch_3">
    <path clip-path="url(#p94697a994e)" d="M 126 694.98 
L 829.08 694.98 
L 829.08 659.34 
L 126 659.34 
z
" style="opacity:0.7;stroke:#000000;stroke-linejoin:miter;"/>
   </g>
   <g id="patch_4">
    <path clip-path="url(#p94697a994e)" d="M 204.12 552.42 
L 907.2 552.42 
L 907.2 516.78 
L 204.12 516.78 
z
" style="opacity:0.7;stroke:#000000;stroke-linejoin:miter;"/>
   </g>
   <g id="patch_5">
    <path clip-path="url(#p94697a994e)" d="M 126 374.22 
L 438.48 374.22 
L 438.48 89.1 
L 126 89.1 
z
" style="opacity:0.7;stroke:#000000;stroke-linejoin:miter;"/>
   </g>
   <g id="patch_6">
    <path clip-path="url(#p94697a994e)" d="M 594.72 374.22 
L 907.2 374.22 
L 907.2 89.1 
L 594.72 89.1 
z
" style="opacity:0.7;stroke:#000000;stroke-linejoin:miter;"/>
   </g>
   <g id="patch_7">
    <path clip-path="url(#p94697a994e)" d="M 497.07 124.74 
L 536.13 124.74 
L 536.13 89.1 
L 497.07 89.1 
z
" style="fill:#008000;stroke:#000000;stroke-linejoin:miter;"/>
   </g>
   <g id="line2d_1">
    <path clip-path="url(#p94697a994e)" d="M 516.6 801.1872 
L 516.6 797.675869 
L 516.789832 794.168829 
L 517.167932 790.674469 
L 517.735084 787.201422 
L 518.48816 783.7581 
L 519.426382 780.352698 
L 520.547404 776.993628 
L 521.848102 773.689015 
L 523.326132 770.446845 
L 524.976808 767.275027 
L 526.797004 764.18119 
L 528.781252 761.172889 
L 530.926427 758.257394 
L 533.225498 755.441834 
L 535.673779 752.732981 
L 538.265801 750.137391 
L 540.994532 747.66148 
L 543.853724 745.311093 
L 546.836346 743.092075 
L 549.934585 741.009702 
L 553.141411 739.069104 
L 556.449793 737.274915 
L 559.850357 735.631554 
L 563.336071 734.142943 
L 566.897562 732.812787 
L 570.526236 731.644222 
L 574.2135 730.640172 
L 577.950761 729.803131 
L 581.729425 729.134525 
L 589.356281 728.19648 
L 597.013603 727.487244 
L 604.691237 727.00753 
L 612.382932 726.758762 
L 620.079314 726.74023 
L 627.771791 726.951931 
L 635.45333 727.39458 
L 643.113778 728.06675 
L 650.746883 728.968442 
L 658.34249 730.097518 
L 665.894351 731.454332 
L 673.392308 733.036392 
L 680.830114 734.842271 
L 688.198392 736.869973 
L 699.164878 740.158832 
L 702.875578 741.089606 
L 706.617526 741.908756 
L 710.387597 742.615355 
L 714.180323 743.208618 
L 717.992579 743.687905 
L 721.819678 744.052716 
L 725.658494 744.302695 
L 729.503561 744.437485 
L 733.352533 744.457016 
L 737.199162 744.361287 
L 741.040322 744.150298 
L 744.872108 743.824335 
L 748.689833 743.383824 
L 752.48959 742.829124 
L 756.267473 742.160874 
L 760.019576 741.379787 
L 763.741213 740.48672 
L 767.429258 739.48267 
L 771.078244 738.368635 
L 774.685825 737.145898 
L 778.247316 735.815742 
L 781.75881 734.379521 
L 785.217182 732.838946 
L 788.617746 731.195586 
L 791.957376 729.451008 
L 795.232948 727.607707 
L 798.439774 725.667466 
L 801.57551 723.631709 
L 804.636252 721.503288 
L 807.618874 719.283629 
L 810.519469 716.977008 
L 813.335695 714.584138 
L 816.064427 712.107871 
L 818.702539 709.55177 
L 821.247689 706.917262 
L 823.69597 704.208622 
L 826.045819 701.427989 
L 828.294113 698.578214 
L 830.439288 695.662862 
L 832.477439 692.684784 
L 834.407784 689.64683 
L 836.22798 686.553278 
L 837.935683 683.406266 
L 839.529331 680.210071 
L 841.00658 676.968257 
L 842.36665 673.683674 
L 843.607976 670.359888 
L 844.728998 667.000462 
L 845.728153 663.609672 
L 846.605441 660.191083 
L 847.358518 656.747546 
L 847.988165 653.283338 
L 848.492039 649.802023 
L 848.87014 646.307878 
L 849.123248 642.804466 
L 849.249803 639.294638 
L 849.249803 635.783386 
L 849.059971 632.27641 
L 848.68187 628.782264 
L 848.114719 625.30879 
L 847.361642 621.865966 
L 846.423421 618.460207 
L 845.302399 615.101494 
L 844.001701 611.796953 
L 842.523671 608.554426 
L 840.872995 605.382466 
L 839.05358 602.288914 
L 837.068551 599.280185 
L 834.924157 596.364833 
L 832.624304 593.549273 
L 830.176024 590.840633 
L 827.584002 588.244615 
L 824.85527 585.769061 
L 821.99686 583.418246 
L 819.014238 581.1993 
L 815.915999 579.117211 
L 812.708392 577.176257 
L 809.400791 575.382139 
L 806.000227 573.738422 
L 802.514513 572.250096 
L 798.953022 570.920011 
L 795.324348 569.751019 
L 791.636303 568.747397 
L 787.899042 567.909857 
L 784.121159 567.241963 
L 776.494303 566.303206 
L 768.836981 565.59397 
L 761.158566 565.114255 
L 753.467652 564.865488 
L 745.77127 564.846242 
L 738.078793 565.058657 
L 730.397254 565.500593 
L 722.736806 566.172763 
L 715.103701 567.074455 
L 707.508094 568.20353 
L 699.956233 569.559989 
L 692.458276 571.142405 
L 685.02047 572.947927 
L 677.652192 574.975843 
L 670.360471 577.223302 
L 455.83592 645.075446 
L 448.467642 647.10265 
L 441.029837 648.908885 
L 433.531098 650.490588 
L 425.980019 651.847046 
L 418.384411 652.976834 
L 410.751306 653.877814 
L 403.090078 654.549984 
L 395.409319 654.992633 
L 387.716843 655.204334 
L 380.02046 655.185802 
L 372.328765 654.936322 
L 364.65035 654.456607 
L 356.993809 653.747371 
L 349.366172 652.809326 
L 341.776814 651.643186 
L 334.233547 650.249662 
L 326.744183 648.631606 
L 319.317314 646.78973 
L 311.960754 644.726174 
L 304.683095 642.443789 
L 297.490586 639.943999 
L 290.391822 637.23037 
L 283.394614 634.305751 
L 276.506773 631.172995 
L 269.735332 627.835666 
L 263.088101 624.296614 
L 256.570549 620.560829 
L 250.192051 616.631875 
L 247.056314 614.596118 
L 243.995573 612.467698 
L 241.013732 610.248751 
L 238.112356 607.941418 
L 235.29613 605.548548 
L 232.567398 603.072281 
L 229.929286 600.51618 
L 227.384917 597.881671 
L 224.936636 595.173031 
L 222.586787 592.392398 
L 220.338493 589.542624 
L 218.193318 586.627272 
L 216.155167 583.649194 
L 214.224822 580.61124 
L 212.404626 577.517688 
L 210.696923 574.370676 
L 209.104056 571.174481 
L 207.626026 567.932666 
L 206.265956 564.647371 
L 205.02463 561.323585 
L 203.90392 557.964871 
L 202.904453 554.574082 
L 202.027634 551.15478 
L 201.274245 547.711956 
L 200.645222 544.247748 
L 200.141114 540.766433 
L 199.762623 537.272287 
L 199.510061 533.768162 
L 199.383741 530.259048 
L 199.383819 526.747795 
L 199.510139 523.237968 
L 199.762779 519.734556 
L 200.141348 516.24041 
L 200.645379 512.759095 
L 201.274479 509.294887 
L 202.027946 505.85135 
L 202.904843 502.432762 
L 203.904311 499.041972 
L 205.025411 495.682546 
L 206.266738 492.358759 
L 207.626807 489.074177 
L 209.104056 485.832362 
L 210.697704 482.636167 
L 212.405407 479.489155 
L 214.225603 476.395603 
L 216.155948 473.35765 
L 218.194099 470.379571 
L 220.339274 467.464219 
L 222.587568 464.614445 
L 224.937418 461.833812 
L 227.385698 459.125172 
L 229.930848 456.490663 
L 232.56896 453.934562 
L 235.297692 451.459008 
L 238.113918 449.066138 
L 241.014514 446.758805 
L 243.997135 444.539858 
L 247.057877 442.410725 
L 253.365286 438.386969 
L 259.814092 434.554243 
L 266.397264 430.916112 
L 273.107772 427.478278 
L 279.938585 424.242166 
L 286.88189 421.213478 
L 293.930658 418.393642 
L 301.077076 415.786932 
L 308.313331 413.395488 
L 315.631613 411.222161 
L 323.024108 409.269802 
L 330.483787 407.539123 
L 338.000494 406.03369 
L 345.567978 404.753501 
L 360.767005 402.535267 
L 368.310272 401.142456 
L 375.799637 399.523687 
L 383.226505 397.681812 
L 390.583066 395.618969 
L 397.861506 393.336583 
L 405.054014 390.836794 
L 412.151998 388.123164 
L 419.149206 385.198546 
L 426.037046 382.06579 
L 432.808488 378.72846 
L 439.4565 375.190121 
L 445.97327 371.454336 
L 452.35255 367.525382 
L 458.586526 363.406824 
L 464.668949 359.104363 
L 470.59357 354.622277 
L 476.353357 349.964129 
L 481.942843 345.137047 
L 487.354997 340.144596 
L 492.585131 334.992478 
L 497.626996 329.686394 
L 502.475123 324.232762 
L 507.124044 318.635856 
L 511.569072 312.903518 
L 515.806301 307.040738 
L 519.829481 301.054644 
L 523.634706 294.950938 
L 527.218852 288.736034 
L 530.57723 282.417775 
L 533.706718 276.001862 
L 536.603407 269.496137 
L 539.264174 262.906301 
L 541.686676 256.240908 
L 543.868567 249.506374 
L 545.805943 242.710538 
L 547.498022 235.859818 
L 548.943242 228.962052 
L 550.138478 222.025082 
L 551.084512 215.056037 
L 551.778217 208.062043 
L 552.220376 201.050942 
L 552.410208 194.030575 
L 552.346931 187.008782 
L 552.031326 179.991979 
L 551.463394 172.988719 
L 550.643134 166.006843 
L 549.57289 159.052054 
L 548.252662 152.13433 
L 546.684012 145.258661 
L 544.868503 138.435026 
L 542.808479 131.668416 
L 540.507064 124.967383 
L 537.965039 118.339056 
L 535.185529 111.790562 
L 532.172441 105.32903 
L 528.928117 98.960875 
L 527.220414 95.813863 
L 527.220414 95.813863 
" style="fill:none;stroke:#ff0000;stroke-linecap:square;"/>
   </g>
   <g id="patch_8">
    <path d="M 126 89.1 
L 907.2 89.1 
" style="fill:none;stroke:#000000;stroke-linecap:square;stroke-linejoin:miter;"/>
   </g>
   <g id="patch_9">
    <path d="M 907.2 801.9 
L 907.2 89.1 
" style="fill:none;stroke:#000000;stroke-linecap:square;stroke-linejoin:miter;"/>
   </g>
   <g id="patch_10">
    <path d="M 126 801.9 
L 907.2 801.9 
" style="fill:none;stroke:#000000;stroke-linecap:square;stroke-linejoin:miter;"/>
   </g>
   <g id="patch_11">
    <path d="M 126 801.9 
L 126 89.1 
" style="fill:none;stroke:#000000;stroke-linecap:square;stroke-linejoin:miter;"/>
   </g>
   <g id="matplotlib.axis_1">
    <g id="xtick_1">
     <g id="line2d_2">
      <defs>
       <path d="M 0 0 
L 0 -4 
" id="mb459624fc1" style="stroke:#000000;stroke-width:0.5;"/>
      </defs>
      <g>
       <use style="stroke:#000000;stroke-width:0.5;" x="126.0" xlink:href="#mb459624fc1" y="801.9"/>
      </g>
     </g>
     <g id="line2d_3">
      <defs>
       <path d="M 0 0 
L 0 4 
" id="m9c3a6e7e5a" style="stroke:#000000;stroke-width:0.5;"/>
      </defs>
      <g>
       <use style="stroke:#000000;stroke-width:0.5;" x="126.0" xlink:href="#m9c3a6e7e5a" y="89.1"/>
      </g>
     </g>
     <g id="text_1">
      <!-- 0 -->
      <defs>
       <path d="M 31.78125 66.40625 
Q 24.171875 66.40625 20.328125 58.90625 
Q 16.5 51.421875 16.5 36.375 
Q 16.5 21.390625 20.328125 13.890625 
Q 24.171875 6.390625 31.78125 6.390625 
Q 39.453125 6.390625 43.28125 13.890625 
Q 47.125 21.390625 47.125 36.375 
Q 47.125 51.421875 43.28125 58.90625 
Q 39.453125 66.40625 31.78125 66.40625 
M 31.78125 74.21875 
Q 44.046875 74.21875 50.515625 64.515625 
Q 56.984375 54.828125 56.984375 36.375 
Q 56.984375 17.96875 50.515625 8.265625 
Q 44.046875 -1.421875 31.78125 -1.421875 
Q 19.53125 -1.421875 13.0625 8.265625 
Q 6.59375 17.96875 6.59375 36.375 
Q 6.59375 54.828125 13.0625 64.515625 
Q 19.53125 74.21875 31.78125 74.21875 
" id="BitstreamVeraSans-Roman-30"/>
      </defs>
      <g transform="translate(122.1825 815.018125)scale(0.12 -0.12)">
       <use xlink:href="#BitstreamVeraSans-Roman-30"/>
      </g>
     </g>
    </g>
    <g id="xtick_2">
     <g id="line2d_4">
      <g>
       <use style="stroke:#000000;stroke-width:0.5;" x="282.24" xlink:href="#mb459624fc1" y="801.9"/>
      </g>
     </g>
     <g id="line2d_5">
      <g>
       <use style="stroke:#000000;stroke-width:0.5;" x="282.24" xlink:href="#m9c3a6e7e5a" y="89.1"/>
      </g>
     </g>
     <g id="text_2">
      <!-- 2 -->
      <defs>
       <path d="M 19.1875 8.296875 
L 53.609375 8.296875 
L 53.609375 0 
L 7.328125 0 
L 7.328125 8.296875 
Q 12.9375 14.109375 22.625 23.890625 
Q 32.328125 33.6875 34.8125 36.53125 
Q 39.546875 41.84375 41.421875 45.53125 
Q 43.3125 49.21875 43.3125 52.78125 
Q 43.3125 58.59375 39.234375 62.25 
Q 35.15625 65.921875 28.609375 65.921875 
Q 23.96875 65.921875 18.8125 64.3125 
Q 13.671875 62.703125 7.8125 59.421875 
L 7.8125 69.390625 
Q 13.765625 71.78125 18.9375 73 
Q 24.125 74.21875 28.421875 74.21875 
Q 39.75 74.21875 46.484375 68.546875 
Q 53.21875 62.890625 53.21875 53.421875 
Q 53.21875 48.921875 51.53125 44.890625 
Q 49.859375 40.875 45.40625 35.40625 
Q 44.1875 33.984375 37.640625 27.21875 
Q 31.109375 20.453125 19.1875 8.296875 
" id="BitstreamVeraSans-Roman-32"/>
      </defs>
      <g transform="translate(278.4225 815.018125)scale(0.12 -0.12)">
       <use xlink:href="#BitstreamVeraSans-Roman-32"/>
      </g>
     </g>
    </g>
    <g id="xtick_3">
     <g id="line2d_6">
      <g>
       <use style="stroke:#000000;stroke-width:0.5;" x="438.48" xlink:href="#mb459624fc1" y="801.9"/>
      </g>
     </g>
     <g id="line2d_7">
      <g>
       <use style="stroke:#000000;stroke-width:0.5;" x="438.48" xlink:href="#m9c3a6e7e5a" y="89.1"/>
      </g>
     </g>
     <g id="text_3">
      <!-- 4 -->
      <defs>
       <path d="M 37.796875 64.3125 
L 12.890625 25.390625 
L 37.796875 25.390625 
z
M 35.203125 72.90625 
L 47.609375 72.90625 
L 47.609375 25.390625 
L 58.015625 25.390625 
L 58.015625 17.1875 
L 47.609375 17.1875 
L 47.609375 0 
L 37.796875 0 
L 37.796875 17.1875 
L 4.890625 17.1875 
L 4.890625 26.703125 
z
" id="BitstreamVeraSans-Roman-34"/>
      </defs>
      <g transform="translate(434.6625 815.018125)scale(0.12 -0.12)">
       <use xlink:href="#BitstreamVeraSans-Roman-34"/>
      </g>
     </g>
    </g>
    <g id="xtick_4">
     <g id="line2d_8">
      <g>
       <use style="stroke:#000000;stroke-width:0.5;" x="594.72" xlink:href="#mb459624fc1" y="801.9"/>
      </g>
     </g>
     <g id="line2d_9">
      <g>
       <use style="stroke:#000000;stroke-width:0.5;" x="594.72" xlink:href="#m9c3a6e7e5a" y="89.1"/>
      </g>
     </g>
     <g id="text_4">
      <!-- 6 -->
      <defs>
       <path d="M 33.015625 40.375 
Q 26.375 40.375 22.484375 35.828125 
Q 18.609375 31.296875 18.609375 23.390625 
Q 18.609375 15.53125 22.484375 10.953125 
Q 26.375 6.390625 33.015625 6.390625 
Q 39.65625 6.390625 43.53125 10.953125 
Q 47.40625 15.53125 47.40625 23.390625 
Q 47.40625 31.296875 43.53125 35.828125 
Q 39.65625 40.375 33.015625 40.375 
M 52.59375 71.296875 
L 52.59375 62.3125 
Q 48.875 64.0625 45.09375 64.984375 
Q 41.3125 65.921875 37.59375 65.921875 
Q 27.828125 65.921875 22.671875 59.328125 
Q 17.53125 52.734375 16.796875 39.40625 
Q 19.671875 43.65625 24.015625 45.921875 
Q 28.375 48.1875 33.59375 48.1875 
Q 44.578125 48.1875 50.953125 41.515625 
Q 57.328125 34.859375 57.328125 23.390625 
Q 57.328125 12.15625 50.6875 5.359375 
Q 44.046875 -1.421875 33.015625 -1.421875 
Q 20.359375 -1.421875 13.671875 8.265625 
Q 6.984375 17.96875 6.984375 36.375 
Q 6.984375 53.65625 15.1875 63.9375 
Q 23.390625 74.21875 37.203125 74.21875 
Q 40.921875 74.21875 44.703125 73.484375 
Q 48.484375 72.75 52.59375 71.296875 
" id="BitstreamVeraSans-Roman-36"/>
      </defs>
      <g transform="translate(590.9025 815.018125)scale(0.12 -0.12)">
       <use xlink:href="#BitstreamVeraSans-Roman-36"/>
      </g>
     </g>
    </g>
    <g id="xtick_5">
     <g id="line2d_10">
      <g>
       <use style="stroke:#000000;stroke-width:0.5;" x="750.96" xlink:href="#mb459624fc1" y="801.9"/>
      </g>
     </g>
     <g id="line2d_11">
      <g>
       <use style="stroke:#000000;stroke-width:0.5;" x="750.96" xlink:href="#m9c3a6e7e5a" y="89.1"/>
      </g>
     </g>
     <g id="text_5">
      <!-- 8 -->
      <defs>
       <path d="M 31.78125 34.625 
Q 24.75 34.625 20.71875 30.859375 
Q 16.703125 27.09375 16.703125 20.515625 
Q 16.703125 13.921875 20.71875 10.15625 
Q 24.75 6.390625 31.78125 6.390625 
Q 38.8125 6.390625 42.859375 10.171875 
Q 46.921875 13.96875 46.921875 20.515625 
Q 46.921875 27.09375 42.890625 30.859375 
Q 38.875 34.625 31.78125 34.625 
M 21.921875 38.8125 
Q 15.578125 40.375 12.03125 44.71875 
Q 8.5 49.078125 8.5 55.328125 
Q 8.5 64.0625 14.71875 69.140625 
Q 20.953125 74.21875 31.78125 74.21875 
Q 42.671875 74.21875 48.875 69.140625 
Q 55.078125 64.0625 55.078125 55.328125 
Q 55.078125 49.078125 51.53125 44.71875 
Q 48 40.375 41.703125 38.8125 
Q 48.828125 37.15625 52.796875 32.3125 
Q 56.78125 27.484375 56.78125 20.515625 
Q 56.78125 9.90625 50.3125 4.234375 
Q 43.84375 -1.421875 31.78125 -1.421875 
Q 19.734375 -1.421875 13.25 4.234375 
Q 6.78125 9.90625 6.78125 20.515625 
Q 6.78125 27.484375 10.78125 32.3125 
Q 14.796875 37.15625 21.921875 38.8125 
M 18.3125 54.390625 
Q 18.3125 48.734375 21.84375 45.5625 
Q 25.390625 42.390625 31.78125 42.390625 
Q 38.140625 42.390625 41.71875 45.5625 
Q 45.3125 48.734375 45.3125 54.390625 
Q 45.3125 60.0625 41.71875 63.234375 
Q 38.140625 66.40625 31.78125 66.40625 
Q 25.390625 66.40625 21.84375 63.234375 
Q 18.3125 60.0625 18.3125 54.390625 
" id="BitstreamVeraSans-Roman-38"/>
      </defs>
      <g transform="translate(747.1425 815.018125)scale(0.12 -0.12)">
       <use xlink:href="#BitstreamVeraSans-Roman-38"/>
      </g>
     </g>
    </g>
    <g id="xtick_6">
     <g id="line2d_12">
      <g>
       <use style="stroke:#000000;stroke-width:0.5;" x="907.2" xlink:href="#mb459624fc1" y="801.9"/>
      </g>
     </g>
     <g id="line2d_13">
      <g>
       <use style="stroke:#000000;stroke-width:0.5;" x="907.2" xlink:href="#m9c3a6e7e5a" y="89.1"/>
      </g>
     </g>
     <g id="text_6">
      <!-- 10 -->
      <defs>
       <path d="M 12.40625 8.296875 
L 28.515625 8.296875 
L 28.515625 63.921875 
L 10.984375 60.40625 
L 10.984375 69.390625 
L 28.421875 72.90625 
L 38.28125 72.90625 
L 38.28125 8.296875 
L 54.390625 8.296875 
L 54.390625 0 
L 12.40625 0 
z
" id="BitstreamVeraSans-Roman-31"/>
      </defs>
      <g transform="translate(899.565 815.018125)scale(0.12 -0.12)">
       <use xlink:href="#BitstreamVeraSans-Roman-31"/>
       <use x="63.623046875" xlink:href="#BitstreamVeraSans-Roman-30"/>
      </g>
     </g>
    </g>
   </g>
   <g id="matplotlib.axis_2">
    <g id="ytick_1">
     <g id="line2d_14">
      <defs>
       <path d="M 0 0 
L 4 0 
" id="mee9f243ccc" style="stroke:#000000;stroke-width:0.5;"/>
      </defs>
      <g>
       <use style="stroke:#000000;stroke-width:0.5;" x="126.0" xlink:href="#mee9f243ccc" y="801.9"/>
      </g>
     </g>
     <g id="line2d_15">
      <defs>
       <path d="M 0 0 
L -4 0 
" id="m18973027cc" style="stroke:#000000;stroke-width:0.5;"/>
      </defs>
      <g>
       <use style="stroke:#000000;stroke-width:0.5;" x="907.2" xlink:href="#m18973027cc" y="801.9"/>
      </g>
     </g>
     <g id="text_7">
      <!-- 0 -->
      <g transform="translate(114.365 805.21125)scale(0.12 -0.12)">
       <use xlink:href="#BitstreamVeraSans-Roman-30"/>
      </g>
     </g>
    </g>
    <g id="ytick_2">
     <g id="line2d_16">
      <g>
       <use style="stroke:#000000;stroke-width:0.5;" x="126.0" xlink:href="#mee9f243ccc" y="659.34"/>
      </g>
     </g>
     <g id="line2d_17">
      <g>
       <use style="stroke:#000000;stroke-width:0.5;" x="907.2" xlink:href="#m18973027cc" y="659.34"/>
      </g>
     </g>
     <g id="text_8">
      <!-- 2 -->
      <g transform="translate(114.365 662.65125)scale(0.12 -0.12)">
       <use xlink:href="#BitstreamVeraSans-Roman-32"/>
      </g>
     </g>
    </g>
    <g id="ytick_3">
     <g id="line2d_18">
      <g>
       <use style="stroke:#000000;stroke-width:0.5;" x="126.0" xlink:href="#mee9f243ccc" y="516.78"/>
      </g>
     </g>
     <g id="line2d_19">
      <g>
       <use style="stroke:#000000;stroke-width:0.5;" x="907.2" xlink:href="#m18973027cc" y="516.78"/>
      </g>
     </g>
     <g id="text_9">
      <!-- 4 -->
      <g transform="translate(114.365 520.09125)scale(0.12 -0.12)">
       <use xlink:href="#BitstreamVeraSans-Roman-34"/>
      </g>
     </g>
    </g>
    <g id="ytick_4">
     <g id="line2d_20">
      <g>
       <use style="stroke:#000000;stroke-width:0.5;" x="126.0" xlink:href="#mee9f243ccc" y="374.22"/>
      </g>
     </g>
     <g id="line2d_21">
      <g>
       <use style="stroke:#000000;stroke-width:0.5;" x="907.2" xlink:href="#m18973027cc" y="374.22"/>
      </g>
     </g>
     <g id="text_10">
      <!-- 6 -->
      <g transform="translate(114.365 377.53125)scale(0.12 -0.12)">
       <use xlink:href="#BitstreamVeraSans-Roman-36"/>
      </g>
     </g>
    </g>
    <g id="ytick_5">
     <g id="line2d_22">
      <g>
       <use style="stroke:#000000;stroke-width:0.5;" x="126.0" xlink:href="#mee9f243ccc" y="231.66"/>
      </g>
     </g>
     <g id="line2d_23">
      <g>
       <use style="stroke:#000000;stroke-width:0.5;" x="907.2" xlink:href="#m18973027cc" y="231.66"/>
      </g>
     </g>
     <g id="text_11">
      <!-- 8 -->
      <g transform="translate(114.365 234.97125)scale(0.12 -0.12)">
       <use xlink:href="#BitstreamVeraSans-Roman-38"/>
      </g>
     </g>
    </g>
    <g id="ytick_6">
     <g id="line2d_24">
      <g>
       <use style="stroke:#000000;stroke-width:0.5;" x="126.0" xlink:href="#mee9f243ccc" y="89.1"/>
      </g>
     </g>
     <g id="line2d_25">
      <g>
       <use style="stroke:#000000;stroke-width:0.5;" x="907.2" xlink:href="#m18973027cc" y="89.1"/>
      </g>
     </g>
     <g id="text_12">
      <!-- 10 -->
      <g transform="translate(106.73 92.41125)scale(0.12 -0.12)">
       <use xlink:href="#BitstreamVeraSans-Roman-31"/>
       <use x="63.623046875" xlink:href="#BitstreamVeraSans-Roman-30"/>
      </g>
     </g>
    </g>
   </g>
  </g>
 </g>
 <defs>
  <clipPath id="p94697a994e">
   <rect height="712.8" width="781.2" x="126.0" y="89.1"/>
  </clipPath>
 </defs>
</svg>
