<?xml version="1.0" encoding="UTF-8" standalone="no"?>
<svg
   xmlns:dc="http://purl.org/dc/elements/1.1/"
   xmlns:cc="http://creativecommons.org/ns#"
   xmlns:rdf="http://www.w3.org/1999/02/22-rdf-syntax-ns#"
   xmlns:svg="http://www.w3.org/2000/svg"
   xmlns="http://www.w3.org/2000/svg"
   xmlns:sodipodi="http://sodipodi.sourceforge.net/DTD/sodipodi-0.dtd"
   xmlns:inkscape="http://www.inkscape.org/namespaces/inkscape"
   style="font-size:12px;font-style:normal;font-weight:normal;fill:#000000;fill-opacity:1;stroke:#000000;stroke-width:1;stroke-linecap:square;stroke-linejoin:miter;stroke-miterlimit:10;stroke-opacity:1;stroke-dasharray:none;stroke-dashoffset:0;font-family:Dialog"
   width="610.28766"
   height="267.42233"
   id="svg2"
   version="1.1"
   inkscape:version="0.48.4 r9939"
   sodipodi:docname="acro.svg">
  <metadata
     id="metadata657">
    <rdf:RDF>
      <cc:Work
         rdf:about="">
        <dc:format>image/svg+xml</dc:format>
        <dc:type
           rdf:resource="http://purl.org/dc/dcmitype/StillImage" />
        <dc:title />
      </cc:Work>
    </rdf:RDF>
  </metadata>
  <sodipodi:namedview
     pagecolor="#ffffff"
     bordercolor="#666666"
     borderopacity="1"
     objecttolerance="10"
     gridtolerance="10"
     guidetolerance="10"
     inkscape:pageopacity="0"
     inkscape:pageshadow="2"
     inkscape:window-width="1920"
     inkscape:window-height="1056"
     id="namedview655"
     showgrid="false"
     fit-margin-top="0"
     fit-margin-left="0"
     fit-margin-right="0"
     fit-margin-bottom="0"
     inkscape:zoom="1.5839192"
     inkscape:cx="370.40638"
     inkscape:cy="91.617393"
     inkscape:window-x="0"
     inkscape:window-y="24"
     inkscape:window-maximized="1"
     inkscape:current-layer="svg2" />
  <!--Generated by the Batik Graphics2D SVG Generator-->
  <defs
     id="genericDefs">
    <clipPath
       clipPathUnits="userSpaceOnUse"
       id="clipPath3636">
      <rect
         style="color:#000000;fill:#505050;fill-opacity:0.78823529;stroke:#000000;stroke-width:5.11904764;stroke-linecap:round;stroke-linejoin:miter;stroke-miterlimit:4;stroke-opacity:0.34042556;stroke-dasharray:none;stroke-dashoffset:0;marker:none;visibility:visible;display:inline;overflow:visible;enable-background:accumulate"
         id="rect3638"
         width="1041.3639"
         height="456.31589"
         x="17.617611"
         y="21.452204" />
    </clipPath>
  </defs>
  <g
     id="g5"
     transform="matrix(0.58604651,0,0,0.58604651,-10.324739,-12.571989)"
     clip-path="url(#clipPath3636)">
    <defs
       id="defs1">
      <clipPath
         clipPathUnits="userSpaceOnUse"
         id="clipPath1">
        <path
           d="m 0,0 1075,0 0,481 L 0,481 0,0 z"
           id="path9"
           inkscape:connector-curvature="0" />
      </clipPath>
    </defs>
    <g
       style="fill:#ffffff;stroke:#ffffff"
       id="g11">
      <rect
         x="0"
         y="0"
         width="1075"
         style="stroke:none"
         height="481"
         id="rect13"
         clip-path="url(#clipPath1)" />
    </g>
    <g
       style="fill:#ffffff;stroke:#ffffff"
       id="g15">
      <rect
         x="0"
         width="1075"
         height="481"
         y="0"
         style="stroke:none"
         id="rect17" />
      <path
         style="stroke:none"
         d="m 541,428 510,0 0,-392 -510,0 z"
         id="path19"
         inkscape:connector-curvature="0" />
    </g>
    <g
       style="fill:#262626;stroke:#262626;stroke-width:0.66670001;stroke-linejoin:round"
       id="g21">
      <line
         y2="428"
         style="fill:none"
         x1="541"
         x2="1051"
         y1="428"
         id="line23" />
      <line
         y2="36"
         style="fill:none"
         x1="541"
         x2="541"
         y1="428"
         id="line25" />
    </g>
    <g
       style="fill:#000000;fill-opacity:0.14900004;stroke:#000000;stroke-width:2.66669989;stroke-linecap:butt;stroke-linejoin:round;stroke-opacity:0.14900004"
       id="g27">
      <line
         y2="330"
         style="fill:none"
         x1="796"
         x2="796"
         y1="232"
         id="line29" />
      <line
         y2="428"
         style="fill:none"
         x1="796"
         x2="796"
         y1="330"
         id="line31" />
      <line
         y2="330"
         style="fill:none"
         x1="796"
         x2="796"
         y1="232"
         id="line33" />
      <line
         y2="428"
         style="fill:none"
         x1="796"
         x2="796"
         y1="330"
         id="line35" />
      <line
         y2="329.9646"
         style="fill:none"
         x1="796"
         x2="792.57318"
         y1="232"
         id="line37" />
      <line
         y2="427.92068"
         style="fill:none"
         x1="792.57318"
         x2="796.39148"
         y1="329.9646"
         id="line39" />
      <line
         y2="329.6882"
         style="fill:none"
         x1="796"
         x2="785.83783"
         y1="232"
         id="line41" />
      <line
         y2="427.2998"
         style="fill:none"
         x1="785.83783"
         x2="797.17798"
         y1="329.6882"
         id="line43" />
      <line
         y2="328.8381"
         style="fill:none"
         x1="796"
         x2="776.42462"
         y1="232"
         id="line45" />
      <line
         y2="425.36169"
         style="fill:none"
         x1="776.42462"
         x2="798.47272"
         y1="328.8381"
         id="line47" />
      <line
         y2="327.15701"
         style="fill:none"
         x1="796"
         x2="765.51202"
         y1="232"
         id="line49" />
      <line
         y2="421.40189"
         style="fill:none"
         x1="765.51202"
         x2="800.4679"
         y1="327.15701"
         id="line51" />
      <line
         y2="324.711"
         style="fill:none"
         x1="796"
         x2="754.68018"
         y1="232"
         id="line53" />
      <line
         y2="415.2764"
         style="fill:none"
         x1="754.68018"
         x2="803.39301"
         y1="324.711"
         id="line55" />
      <line
         y2="321.99261"
         style="fill:none"
         x1="796"
         x2="745.52228"
         y1="232"
         id="line57" />
      <line
         y2="407.6366"
         style="fill:none"
         x1="745.52228"
         x2="807.49652"
         y1="321.99261"
         id="line59" />
      <line
         y2="319.75259"
         style="fill:none"
         x1="796"
         x2="739.23798"
         y1="232"
         id="line61" />
      <line
         y2="399.65701"
         style="fill:none"
         x1="739.23798"
         x2="813.05627"
         y1="319.75259"
         id="line63" />
      <line
         y2="318.68289"
         style="fill:none"
         x1="796"
         x2="736.52087"
         y1="232"
         id="line65" />
      <line
         y2="392.5014"
         style="fill:none"
         x1="736.52087"
         x2="820.38202"
         y1="318.68289"
         id="line67" />
      <line
         y2="319.16019"
         style="fill:none"
         x1="796"
         x2="737.7135"
         y1="232"
         id="line69" />
      <line
         y2="386.94711"
         style="fill:none"
         x1="737.7135"
         x2="829.79181"
         y1="319.16019"
         id="line71" />
      <line
         y2="321.1217"
         style="fill:none"
         x1="796"
         x2="742.97131"
         y1="232"
         id="line73" />
      <line
         y2="383.27771"
         style="fill:none"
         x1="742.97131"
         x2="841.54572"
         y1="321.1217"
         id="line75" />
      <line
         y2="324.05551"
         style="fill:none"
         x1="796"
         x2="752.26947"
         y1="232"
         id="line77" />
      <line
         y2="381.3273"
         style="fill:none"
         x1="752.26947"
         x2="855.73077"
         y1="324.05551"
         id="line79" />
      <line
         y2="327.10818"
         style="fill:none"
         x1="796"
         x2="765.25531"
         y1="232"
         id="line81" />
      <line
         y2="380.60709"
         style="fill:none"
         x1="765.25531"
         x2="872.08063"
         y1="327.10818"
         id="line83" />
      <line
         y2="329.57889"
         style="fill:none"
         x1="796"
         x2="784.19287"
         y1="232"
         id="line85" />
      <line
         y2="383.09521"
         style="fill:none"
         x1="784.19287"
         x2="891.00348"
         y1="329.57889"
         id="line87" />
      <line
         y2="329.5882"
         style="fill:none"
         x1="796"
         x2="807.67682"
         y1="232"
         id="line89" />
      <line
         y2="387.24069"
         style="fill:none"
         x1="807.67682"
         x2="910.77948"
         y1="329.5882"
         id="line91" />
      <line
         y2="325.6937"
         style="fill:none"
         x1="796"
         x2="833.38019"
         y1="232"
         id="line93" />
      <line
         y2="391.3082"
         style="fill:none"
         x1="833.38019"
         x2="928.08459"
         y1="325.6937"
         id="line95" />
      <line
         y2="317.51401"
         style="fill:none"
         x1="796"
         x2="858.2774"
         y1="232"
         id="line97" />
      <line
         y2="393.56821"
         style="fill:none"
         x1="858.2774"
         x2="938.68591"
         y1="317.51401"
         id="line99" />
      <line
         y2="306.30679"
         style="fill:none"
         x1="796"
         x2="879.12811"
         y1="232"
         id="line101" />
      <line
         y2="392.76999"
         style="fill:none"
         x1="879.12811"
         x2="939.146"
         y1="306.30679"
         id="line103" />
      <line
         y2="296.94061"
         style="fill:none"
         x1="796"
         x2="891.48749"
         y1="232"
         id="line105" />
      <line
         y2="390.185"
         style="fill:none"
         x1="891.48749"
         x2="930.72308"
         y1="296.94061"
         id="line107" />
      <line
         y2="288.42899"
         style="fill:none"
         x1="796"
         x2="900.24231"
         y1="232"
         id="line109" />
      <line
         y2="385.81339"
         style="fill:none"
         x1="900.24231"
         x2="914.50989"
         y1="288.42899"
         id="line111" />
      <line
         y2="282.70831"
         style="fill:none"
         x1="796"
         x2="905.10492"
         y1="232"
         id="line113" />
      <line
         y2="380.19751"
         style="fill:none"
         x1="905.10492"
         x2="892.10468"
         y1="282.70831"
         id="line115" />
      <line
         y2="281.24741"
         style="fill:none"
         x1="796"
         x2="906.23181"
         y1="232"
         id="line117" />
      <line
         y2="374.09091"
         style="fill:none"
         x1="906.23181"
         x2="865.41852"
         y1="281.24741"
         id="line119" />
      <line
         y2="284.7598"
         style="fill:none"
         x1="796"
         x2="903.44568"
         y1="232"
         id="line121" />
      <line
         y2="367.8844"
         style="fill:none"
         x1="903.44568"
         x2="835.914"
         y1="284.7598"
         id="line123" />
      <line
         y2="293.10449"
         style="fill:none"
         x1="796"
         x2="895.68091"
         y1="232"
         id="line125" />
      <line
         y2="361.53241"
         style="fill:none"
         x1="895.68091"
         x2="804.40881"
         y1="293.10449"
         id="line127" />
      <line
         y2="302.4433"
         style="fill:none"
         x1="796"
         x2="884.63898"
         y1="232"
         id="line129" />
      <line
         y2="351.67361"
         style="fill:none"
         x1="884.63898"
         x2="774.39429"
         y1="302.4433"
         id="line131" />
      <line
         y2="316.0007"
         style="fill:none"
         x1="796"
         x2="861.67102"
         y1="232"
         id="line133" />
      <line
         y2="343.51389"
         style="fill:none"
         x1="861.67102"
         x2="739.29871"
         y1="316.0007"
         id="line135" />
      <line
         y2="326.57779"
         style="fill:none"
         x1="796"
         x2="829.39972"
         y1="232"
         id="line137" />
      <line
         y2="332.43341"
         style="fill:none"
         x1="829.39972"
         x2="702.1275"
         y1="326.57779"
         id="line139" />
      <line
         y2="329.9162"
         style="fill:none"
         x1="796"
         x2="790.72827"
         y1="232"
         id="line141" />
      <line
         y2="316.74359"
         style="fill:none"
         x1="790.72827"
         x2="664.38538"
         y1="329.9162"
         id="line143" />
      <line
         y2="323.90759"
         style="fill:none"
         x1="796"
         x2="751.74628"
         y1="232"
         id="line145" />
      <line
         y2="296.00281"
         style="fill:none"
         x1="751.74628"
         x2="629.52429"
         y1="323.90759"
         id="line147" />
      <line
         y2="310.1254"
         style="fill:none"
         x1="796"
         x2="719.02588"
         y1="232"
         id="line149" />
      <line
         y2="272.05801"
         style="fill:none"
         x1="719.02588"
         x2="601.53809"
         y1="310.1254"
         id="line151" />
      <line
         y2="293.07819"
         style="fill:none"
         x1="796"
         x2="696.29181"
         y1="232"
         id="line153" />
      <line
         y2="248.42979"
         style="fill:none"
         x1="696.29181"
         x2="582.79303"
         y1="293.07819"
         id="line155" />
      <line
         y2="273.95261"
         style="fill:none"
         x1="796"
         x2="680.77362"
         y1="232"
         id="line157" />
      <line
         y2="223.5524"
         style="fill:none"
         x1="680.77362"
         x2="571.42743"
         y1="273.95261"
         id="line159" />
      <line
         y2="263.4043"
         style="fill:none"
         x1="796"
         x2="675.22382"
         y1="232"
         id="line161" />
      <line
         y2="209.2598"
         style="fill:none"
         x1="675.22382"
         x2="568.95038"
         y1="263.4043"
         id="line163" />
      <line
         y2="261.05521"
         style="fill:none"
         x1="796"
         x2="674.2326"
         y1="232"
         id="line165" />
      <line
         y2="202.09621"
         style="fill:none"
         x1="674.2326"
         x2="572.38812"
         y1="261.05521"
         id="line167" />
      <line
         y2="267.46359"
         style="fill:none"
         x1="796"
         x2="677.14099"
         y1="232"
         id="line169" />
      <line
         y2="202.2628"
         style="fill:none"
         x1="677.14099"
         x2="581.9541"
         y1="267.46359"
         id="line171" />
      <line
         y2="281.68311"
         style="fill:none"
         x1="796"
         x2="686.09967"
         y1="232"
         id="line173" />
      <line
         y2="209.3828"
         style="fill:none"
         x1="686.09967"
         x2="600.02887"
         y1="281.68311"
         id="line175" />
      <line
         y2="300.78641"
         style="fill:none"
         x1="796"
         x2="705.18512"
         y1="232"
         id="line177" />
      <line
         y2="221.76289"
         style="fill:none"
         x1="705.18512"
         x2="629.77887"
         y1="300.78641"
         id="line179" />
      <line
         y2="319.35141"
         style="fill:none"
         x1="796"
         x2="738.20007"
         y1="232"
         id="line181" />
      <line
         y2="235.3157"
         style="fill:none"
         x1="738.20007"
         x2="672.60492"
         y1="319.35141"
         id="line183" />
      <line
         y2="329.3316"
         style="fill:none"
         x1="796"
         x2="781.13458"
         y1="232"
         id="line185" />
      <line
         y2="242.00571"
         style="fill:none"
         x1="781.13458"
         x2="723.26941"
         y1="329.3316"
         id="line187" />
      <line
         y2="324.36411"
         style="fill:none"
         x1="796"
         x2="838.61469"
         y1="232"
         id="line189" />
      <line
         y2="237.092"
         style="fill:none"
         x1="838.61469"
         x2="780.61218"
         y1="324.36411"
         id="line191" />
      <line
         y2="298.07169"
         style="fill:none"
         x1="796"
         x2="890.16492"
         y1="232"
         id="line193" />
      <line
         y2="213.65871"
         style="fill:none"
         x1="890.16492"
         x2="825.39478"
         y1="298.07169"
         id="line195" />
      <line
         y2="257.68851"
         style="fill:none"
         x1="796"
         x2="919.04169"
         y1="232"
         id="line197" />
      <line
         y2="176.908"
         style="fill:none"
         x1="919.04169"
         x2="846.85553"
         y1="257.68851"
         id="line199" />
      <line
         y2="217.7162"
         style="fill:none"
         x1="796"
         x2="922.13843"
         y1="232"
         id="line201" />
      <line
         y2="138.1575"
         style="fill:none"
         x1="922.13843"
         x2="847.69092"
         y1="217.7162"
         id="line203" />
      <line
         y2="187.035"
         style="fill:none"
         x1="796"
         x2="909.28699"
         y1="232"
         id="line205" />
      <line
         y2="105.1433"
         style="fill:none"
         x1="909.28699"
         x2="839.25232"
         y1="187.035"
         id="line207" />
      <line
         y2="166.31779"
         style="fill:none"
         x1="796"
         x2="890.625"
         y1="232"
         id="line209" />
      <line
         y2="79.972099"
         style="fill:none"
         x1="890.625"
         x2="830.32147"
         y1="166.31779"
         id="line211" />
      <line
         y2="149.2551"
         style="fill:none"
         x1="796"
         x2="864.31641"
         y1="232"
         id="line213" />
      <line
         y2="59.7202"
         style="fill:none"
         x1="864.31641"
         x2="812.47937"
         y1="149.2551"
         id="line215" />
      <line
         y2="140.5043"
         style="fill:none"
         x1="796"
         x2="841.67572"
         y1="232"
         id="line217" />
      <line
         y2="46.1567"
         style="fill:none"
         x1="841.67572"
         x2="807.19202"
         y1="140.5043"
         id="line219" />
      <line
         y2="136.5752"
         style="fill:none"
         x1="796"
         x2="825.03638"
         y1="232"
         id="line221" />
      <line
         y2="39.7467"
         style="fill:none"
         x1="825.03638"
         x2="805.38098"
         y1="136.5752"
         id="line223" />
      <line
         y2="135.00349"
         style="fill:none"
         x1="796"
         x2="814.19983"
         y1="232"
         id="line225" />
      <line
         y2="37.219002"
         style="fill:none"
         x1="814.19983"
         x2="805.74933"
         y1="135.00349"
         id="line227" />
      <line
         y2="134.4388"
         style="fill:none"
         x1="796"
         x2="808.05151"
         y1="232"
         id="line229" />
      <line
         y2="36.4398"
         style="fill:none"
         x1="808.05151"
         x2="807.4541"
         y1="134.4388"
         id="line231" />
      <line
         y2="134.267"
         style="fill:none"
         x1="796"
         x2="805.40509"
         y1="232"
         id="line233" />
      <line
         y2="36.332001"
         style="fill:none"
         x1="805.40509"
         x2="810.04822"
         y1="134.267"
         id="line235" />
    </g>
    <g
       style="fill:#ffffff;stroke:#ffffff"
       id="g237">
      <path
         style="stroke:none"
         d="m 80,419 432,0 0,-383 -432,0 z"
         id="path239"
         inkscape:connector-curvature="0" />
    </g>
    <g
       style="fill:#1a1a1a;fill-opacity:0.25100002;stroke:#1a1a1a;stroke-width:0.66670001;stroke-linecap:butt;stroke-linejoin:bevel;stroke-miterlimit:1;stroke-opacity:0.25100002;stroke-dasharray:1, 3"
       id="g241">
      <line
         y2="36"
         style="fill:none"
         x1="123.3483"
         x2="123.3483"
         y1="419"
         id="line243" />
      <line
         y2="36"
         style="fill:none"
         x1="148.70551"
         x2="148.70551"
         y1="419"
         id="line245" />
      <line
         y2="36"
         style="fill:none"
         x1="166.69659"
         x2="166.69659"
         y1="419"
         id="line247" />
      <line
         y2="36"
         style="fill:none"
         x1="180.6517"
         x2="180.6517"
         y1="419"
         id="line249" />
      <line
         y2="36"
         style="fill:none"
         x1="192.0538"
         x2="192.0538"
         y1="419"
         id="line251" />
      <line
         y2="36"
         style="fill:none"
         x1="201.69411"
         x2="201.69411"
         y1="419"
         id="line253" />
      <line
         y2="36"
         style="fill:none"
         x1="210.045"
         x2="210.045"
         y1="419"
         id="line255" />
      <line
         y2="36"
         style="fill:none"
         x1="217.4109"
         x2="217.4109"
         y1="419"
         id="line257" />
      <line
         y2="36"
         style="fill:none"
         x1="267.3483"
         x2="267.3483"
         y1="419"
         id="line259" />
      <line
         y2="36"
         style="fill:none"
         x1="292.70551"
         x2="292.70551"
         y1="419"
         id="line261" />
      <line
         y2="36"
         style="fill:none"
         x1="310.69669"
         x2="310.69669"
         y1="419"
         id="line263" />
      <line
         y2="36"
         style="fill:none"
         x1="324.6517"
         x2="324.6517"
         y1="419"
         id="line265" />
      <line
         y2="36"
         style="fill:none"
         x1="336.0538"
         x2="336.0538"
         y1="419"
         id="line267" />
      <line
         y2="36"
         style="fill:none"
         x1="345.69409"
         x2="345.69409"
         y1="419"
         id="line269" />
      <line
         y2="36"
         style="fill:none"
         x1="354.04501"
         x2="354.04501"
         y1="419"
         id="line271" />
      <line
         y2="36"
         style="fill:none"
         x1="361.41089"
         x2="361.41089"
         y1="419"
         id="line273" />
      <line
         y2="36"
         style="fill:none"
         x1="411.3483"
         x2="411.3483"
         y1="419"
         id="line275" />
      <line
         y2="36"
         style="fill:none"
         x1="436.70541"
         x2="436.70541"
         y1="419"
         id="line277" />
      <line
         y2="36"
         style="fill:none"
         x1="454.69659"
         x2="454.69659"
         y1="419"
         id="line279" />
      <line
         y2="36"
         style="fill:none"
         x1="468.6517"
         x2="468.6517"
         y1="419"
         id="line281" />
      <line
         y2="36"
         style="fill:none"
         x1="480.0538"
         x2="480.0538"
         y1="419"
         id="line283" />
      <line
         y2="36"
         style="fill:none"
         x1="489.69409"
         x2="489.69409"
         y1="419"
         id="line285" />
      <line
         y2="36"
         style="fill:none"
         x1="498.04501"
         x2="498.04501"
         y1="419"
         id="line287" />
      <line
         y2="36"
         style="fill:none"
         x1="505.41089"
         x2="505.41089"
         y1="419"
         id="line289" />
    </g>
    <g
       style="fill:#262626;fill-opacity:0.14900004;stroke:#262626;stroke-width:0.66670001;stroke-linecap:butt;stroke-linejoin:round;stroke-opacity:0.14900004"
       id="g291">
      <line
         y2="36"
         style="fill:none"
         x1="80"
         x2="80"
         y1="419"
         id="line293" />
      <line
         y2="36"
         style="fill:none"
         x1="224"
         x2="224"
         y1="419"
         id="line295" />
      <line
         y2="36"
         style="fill:none"
         x1="368"
         x2="368"
         y1="419"
         id="line297" />
      <line
         y2="36"
         style="fill:none"
         x1="512"
         x2="512"
         y1="419"
         id="line299" />
      <line
         y2="419"
         style="fill:none"
         x1="512"
         x2="80"
         y1="419"
         id="line301" />
      <line
         y2="384.18179"
         style="fill:none"
         x1="512"
         x2="80"
         y1="384.18179"
         id="line303" />
      <line
         y2="349.36359"
         style="fill:none"
         x1="512"
         x2="80"
         y1="349.36359"
         id="line305" />
      <line
         y2="314.54541"
         style="fill:none"
         x1="512"
         x2="80"
         y1="314.54541"
         id="line307" />
      <line
         y2="279.72729"
         style="fill:none"
         x1="512"
         x2="80"
         y1="279.72729"
         id="line309" />
      <line
         y2="244.9091"
         style="fill:none"
         x1="512"
         x2="80"
         y1="244.9091"
         id="line311" />
      <line
         y2="210.0909"
         style="fill:none"
         x1="512"
         x2="80"
         y1="210.0909"
         id="line313" />
      <line
         y2="175.27271"
         style="fill:none"
         x1="512"
         x2="80"
         y1="175.27271"
         id="line315" />
      <line
         y2="140.4545"
         style="fill:none"
         x1="512"
         x2="80"
         y1="140.4545"
         id="line317" />
      <line
         y2="105.6364"
         style="fill:none"
         x1="512"
         x2="80"
         y1="105.6364"
         id="line319" />
      <line
         y2="70.818199"
         style="fill:none"
         x1="512"
         x2="80"
         y1="70.818199"
         id="line321" />
      <line
         y2="36"
         style="fill:none"
         x1="512"
         x2="80"
         y1="36"
         id="line323" />
      <line
         x1="80"
         x2="512"
         y1="419"
         style="fill:none;stroke-linecap:square;stroke-opacity:1"
         y2="419"
         id="line325" />
      <line
         x1="80"
         x2="512"
         y1="36"
         style="fill:none;stroke-linecap:square;stroke-opacity:1"
         y2="36"
         id="line327" />
      <line
         x1="80"
         x2="80"
         y1="419"
         style="fill:none;stroke-linecap:square;stroke-opacity:1"
         y2="414.67999"
         id="line329" />
      <line
         x1="224"
         x2="224"
         y1="419"
         style="fill:none;stroke-linecap:square;stroke-opacity:1"
         y2="414.67999"
         id="line331" />
      <line
         x1="368"
         x2="368"
         y1="419"
         style="fill:none;stroke-linecap:square;stroke-opacity:1"
         y2="414.67999"
         id="line333" />
      <line
         x1="512"
         x2="512"
         y1="419"
         style="fill:none;stroke-linecap:square;stroke-opacity:1"
         y2="414.67999"
         id="line335" />
      <line
         x1="80"
         x2="80"
         y1="36"
         style="fill:none;stroke-linecap:square;stroke-opacity:1"
         y2="40.32"
         id="line337" />
      <line
         x1="224"
         x2="224"
         y1="36"
         style="fill:none;stroke-linecap:square;stroke-opacity:1"
         y2="40.32"
         id="line339" />
      <line
         x1="368"
         x2="368"
         y1="36"
         style="fill:none;stroke-linecap:square;stroke-opacity:1"
         y2="40.32"
         id="line341" />
      <line
         x1="512"
         x2="512"
         y1="36"
         style="fill:none;stroke-linecap:square;stroke-opacity:1"
         y2="40.32"
         id="line343" />
      <line
         x1="123.3483"
         x2="123.3483"
         y1="419"
         style="fill:none;stroke-linecap:square;stroke-opacity:1"
         y2="416.84"
         id="line345" />
      <line
         x1="148.70551"
         x2="148.70551"
         y1="419"
         style="fill:none;stroke-linecap:square;stroke-opacity:1"
         y2="416.84"
         id="line347" />
      <line
         x1="166.69659"
         x2="166.69659"
         y1="419"
         style="fill:none;stroke-linecap:square;stroke-opacity:1"
         y2="416.84"
         id="line349" />
      <line
         x1="180.6517"
         x2="180.6517"
         y1="419"
         style="fill:none;stroke-linecap:square;stroke-opacity:1"
         y2="416.84"
         id="line351" />
      <line
         x1="192.0538"
         x2="192.0538"
         y1="419"
         style="fill:none;stroke-linecap:square;stroke-opacity:1"
         y2="416.84"
         id="line353" />
      <line
         x1="201.69411"
         x2="201.69411"
         y1="419"
         style="fill:none;stroke-linecap:square;stroke-opacity:1"
         y2="416.84"
         id="line355" />
      <line
         x1="210.045"
         x2="210.045"
         y1="419"
         style="fill:none;stroke-linecap:square;stroke-opacity:1"
         y2="416.84"
         id="line357" />
      <line
         x1="217.4109"
         x2="217.4109"
         y1="419"
         style="fill:none;stroke-linecap:square;stroke-opacity:1"
         y2="416.84"
         id="line359" />
      <line
         x1="267.3483"
         x2="267.3483"
         y1="419"
         style="fill:none;stroke-linecap:square;stroke-opacity:1"
         y2="416.84"
         id="line361" />
      <line
         x1="292.70551"
         x2="292.70551"
         y1="419"
         style="fill:none;stroke-linecap:square;stroke-opacity:1"
         y2="416.84"
         id="line363" />
      <line
         x1="310.69669"
         x2="310.69669"
         y1="419"
         style="fill:none;stroke-linecap:square;stroke-opacity:1"
         y2="416.84"
         id="line365" />
      <line
         x1="324.6517"
         x2="324.6517"
         y1="419"
         style="fill:none;stroke-linecap:square;stroke-opacity:1"
         y2="416.84"
         id="line367" />
      <line
         x1="336.0538"
         x2="336.0538"
         y1="419"
         style="fill:none;stroke-linecap:square;stroke-opacity:1"
         y2="416.84"
         id="line369" />
      <line
         x1="345.69409"
         x2="345.69409"
         y1="419"
         style="fill:none;stroke-linecap:square;stroke-opacity:1"
         y2="416.84"
         id="line371" />
      <line
         x1="354.04501"
         x2="354.04501"
         y1="419"
         style="fill:none;stroke-linecap:square;stroke-opacity:1"
         y2="416.84"
         id="line373" />
      <line
         x1="361.41089"
         x2="361.41089"
         y1="419"
         style="fill:none;stroke-linecap:square;stroke-opacity:1"
         y2="416.84"
         id="line375" />
      <line
         x1="411.3483"
         x2="411.3483"
         y1="419"
         style="fill:none;stroke-linecap:square;stroke-opacity:1"
         y2="416.84"
         id="line377" />
      <line
         x1="436.70541"
         x2="436.70541"
         y1="419"
         style="fill:none;stroke-linecap:square;stroke-opacity:1"
         y2="416.84"
         id="line379" />
      <line
         x1="454.69659"
         x2="454.69659"
         y1="419"
         style="fill:none;stroke-linecap:square;stroke-opacity:1"
         y2="416.84"
         id="line381" />
      <line
         x1="468.6517"
         x2="468.6517"
         y1="419"
         style="fill:none;stroke-linecap:square;stroke-opacity:1"
         y2="416.84"
         id="line383" />
      <line
         x1="480.0538"
         x2="480.0538"
         y1="419"
         style="fill:none;stroke-linecap:square;stroke-opacity:1"
         y2="416.84"
         id="line385" />
      <line
         x1="489.69409"
         x2="489.69409"
         y1="419"
         style="fill:none;stroke-linecap:square;stroke-opacity:1"
         y2="416.84"
         id="line387" />
      <line
         x1="498.04501"
         x2="498.04501"
         y1="419"
         style="fill:none;stroke-linecap:square;stroke-opacity:1"
         y2="416.84"
         id="line389" />
      <line
         x1="505.41089"
         x2="505.41089"
         y1="419"
         style="fill:none;stroke-linecap:square;stroke-opacity:1"
         y2="416.84"
         id="line391" />
      <line
         x1="123.3483"
         x2="123.3483"
         y1="36"
         style="fill:none;stroke-linecap:square;stroke-opacity:1"
         y2="38.16"
         id="line393" />
      <line
         x1="148.70551"
         x2="148.70551"
         y1="36"
         style="fill:none;stroke-linecap:square;stroke-opacity:1"
         y2="38.16"
         id="line395" />
      <line
         x1="166.69659"
         x2="166.69659"
         y1="36"
         style="fill:none;stroke-linecap:square;stroke-opacity:1"
         y2="38.16"
         id="line397" />
      <line
         x1="180.6517"
         x2="180.6517"
         y1="36"
         style="fill:none;stroke-linecap:square;stroke-opacity:1"
         y2="38.16"
         id="line399" />
      <line
         x1="192.0538"
         x2="192.0538"
         y1="36"
         style="fill:none;stroke-linecap:square;stroke-opacity:1"
         y2="38.16"
         id="line401" />
      <line
         x1="201.69411"
         x2="201.69411"
         y1="36"
         style="fill:none;stroke-linecap:square;stroke-opacity:1"
         y2="38.16"
         id="line403" />
      <line
         x1="210.045"
         x2="210.045"
         y1="36"
         style="fill:none;stroke-linecap:square;stroke-opacity:1"
         y2="38.16"
         id="line405" />
      <line
         x1="217.4109"
         x2="217.4109"
         y1="36"
         style="fill:none;stroke-linecap:square;stroke-opacity:1"
         y2="38.16"
         id="line407" />
      <line
         x1="267.3483"
         x2="267.3483"
         y1="36"
         style="fill:none;stroke-linecap:square;stroke-opacity:1"
         y2="38.16"
         id="line409" />
      <line
         x1="292.70551"
         x2="292.70551"
         y1="36"
         style="fill:none;stroke-linecap:square;stroke-opacity:1"
         y2="38.16"
         id="line411" />
      <line
         x1="310.69669"
         x2="310.69669"
         y1="36"
         style="fill:none;stroke-linecap:square;stroke-opacity:1"
         y2="38.16"
         id="line413" />
      <line
         x1="324.6517"
         x2="324.6517"
         y1="36"
         style="fill:none;stroke-linecap:square;stroke-opacity:1"
         y2="38.16"
         id="line415" />
      <line
         x1="336.0538"
         x2="336.0538"
         y1="36"
         style="fill:none;stroke-linecap:square;stroke-opacity:1"
         y2="38.16"
         id="line417" />
      <line
         x1="345.69409"
         x2="345.69409"
         y1="36"
         style="fill:none;stroke-linecap:square;stroke-opacity:1"
         y2="38.16"
         id="line419" />
      <line
         x1="354.04501"
         x2="354.04501"
         y1="36"
         style="fill:none;stroke-linecap:square;stroke-opacity:1"
         y2="38.16"
         id="line421" />
      <line
         x1="361.41089"
         x2="361.41089"
         y1="36"
         style="fill:none;stroke-linecap:square;stroke-opacity:1"
         y2="38.16"
         id="line423" />
      <line
         x1="411.3483"
         x2="411.3483"
         y1="36"
         style="fill:none;stroke-linecap:square;stroke-opacity:1"
         y2="38.16"
         id="line425" />
      <line
         x1="436.70541"
         x2="436.70541"
         y1="36"
         style="fill:none;stroke-linecap:square;stroke-opacity:1"
         y2="38.16"
         id="line427" />
      <line
         x1="454.69659"
         x2="454.69659"
         y1="36"
         style="fill:none;stroke-linecap:square;stroke-opacity:1"
         y2="38.16"
         id="line429" />
      <line
         x1="468.6517"
         x2="468.6517"
         y1="36"
         style="fill:none;stroke-linecap:square;stroke-opacity:1"
         y2="38.16"
         id="line431" />
      <line
         x1="480.0538"
         x2="480.0538"
         y1="36"
         style="fill:none;stroke-linecap:square;stroke-opacity:1"
         y2="38.16"
         id="line433" />
      <line
         x1="489.69409"
         x2="489.69409"
         y1="36"
         style="fill:none;stroke-linecap:square;stroke-opacity:1"
         y2="38.16"
         id="line435" />
      <line
         x1="498.04501"
         x2="498.04501"
         y1="36"
         style="fill:none;stroke-linecap:square;stroke-opacity:1"
         y2="38.16"
         id="line437" />
      <line
         x1="505.41089"
         x2="505.41089"
         y1="36"
         style="fill:none;stroke-linecap:square;stroke-opacity:1"
         y2="38.16"
         id="line439" />
    </g>
    <g
       transform="translate(62,448)"
       style="font-size:21px;fill:#262626;stroke:#262626;font-family:LM Roman 10"
       id="g441">
      <path
         style="stroke:none"
         d="M 8.7969,0 C 8.0625,-0.0625 6.2344,-0.0625 5.3906,-0.0625 4.5625,-0.0625 2.7344,-0.0625 2,0 l 0,-0.6562 0.6719,0 c 1.8906,0 1.9531,-0.25 1.9531,-1 l 0,-10.875 c -1.0938,0.5468 -2.3438,0.5468 -2.75,0.5468 l 0,-0.6562 c 0.6719,0 2.5156,0 3.8125,-1.3438 0.4844,0 0.4844,0.0469 0.4844,0.5469 l 0,11.7813 c 0,0.7812 0.0625,1 1.9531,1 l 0.6719,0 z m 11.3574,-6.7188 c 0,1.6563 -0.0938,3.2969 -0.7656,4.75 -0.9375,1.9844 -2.5313,2.4376 -3.6563,2.4376 -1.0312,0 -2.5625,-0.4219 -3.4687,-2.125 -0.8594,-1.5938 -0.9532,-3.4844 -0.9532,-5.0626 0,-1.6874 0.1094,-3.3124 0.7813,-4.7656 0.8594,-1.9531 2.3906,-2.5 3.6562,-2.5 0.875,0 2.6094,0.3282 3.5625,2.3438 0.75,1.5625 0.8438,3.2344 0.8438,4.9218 z m -1.7344,-0.25 c 0,-1.3281 0,-2.9218 -0.2187,-4.0937 -0.3907,-2.0781 -1.7813,-2.4687 -2.4688,-2.4687 -0.5312,0 -2.1094,0.2031 -2.5,2.6874 -0.1719,1.1407 -0.1719,2.5313 -0.1719,3.875 0,1.2344 0,3.1719 0.2344,4.4219 C 13.6699,-0.5312 14.9043,0 15.7324,0 c 0.9375,0 2.1406,-0.625 2.4531,-2.625 0.2344,-1.3438 0.2344,-2.7656 0.2344,-4.3438 z"
         id="path443"
         inkscape:connector-curvature="0" />
    </g>
    <g
       transform="translate(83,438)"
       style="font-size:16px;fill:#262626;stroke:#262626;font-family:LM Roman 10"
       id="g445">
      <path
         style="stroke:none"
         d="m 4.4219,-2.9844 -4.25,0 0,-0.9375 4.25,0 z M 12.0282,0 c -0.5625,-0.0469 -1.9531,-0.0469 -2.5938,-0.0469 -0.6406,0 -2.0312,0 -2.5937,0.0469 l 0,-0.5 0.5156,0 c 1.4375,0 1.4844,-0.1875 1.4844,-0.7656 l 0,-8.2813 c -0.8281,0.4063 -1.7656,0.4063 -2.0938,0.4063 l 0,-0.4844 c 0.5157,0 1.9219,0 2.9219,-1.0312 0.3594,0 0.3594,0.0312 0.3594,0.4218 l 0,8.9688 c 0,0.5937 0.0469,0.7656 1.4844,0.7656 l 0.5156,0 z"
         id="path447"
         inkscape:connector-curvature="0" />
    </g>
    <g
       transform="translate(209,448)"
       style="font-size:21px;fill:#262626;stroke:#262626;font-family:LM Roman 10"
       id="g449">
      <path
         style="stroke:none"
         d="M 8.7969,0 C 8.0625,-0.0625 6.2344,-0.0625 5.3906,-0.0625 4.5625,-0.0625 2.7344,-0.0625 2,0 l 0,-0.6562 0.6719,0 c 1.8906,0 1.9531,-0.25 1.9531,-1 l 0,-10.875 c -1.0938,0.5468 -2.3438,0.5468 -2.75,0.5468 l 0,-0.6562 c 0.6719,0 2.5156,0 3.8125,-1.3438 0.4844,0 0.4844,0.0469 0.4844,0.5469 l 0,11.7813 c 0,0.7812 0.0625,1 1.9531,1 l 0.6719,0 z m 11.3574,-6.7188 c 0,1.6563 -0.0938,3.2969 -0.7656,4.75 -0.9375,1.9844 -2.5313,2.4376 -3.6563,2.4376 -1.0312,0 -2.5625,-0.4219 -3.4687,-2.125 -0.8594,-1.5938 -0.9532,-3.4844 -0.9532,-5.0626 0,-1.6874 0.1094,-3.3124 0.7813,-4.7656 0.8594,-1.9531 2.3906,-2.5 3.6562,-2.5 0.875,0 2.6094,0.3282 3.5625,2.3438 0.75,1.5625 0.8438,3.2344 0.8438,4.9218 z m -1.7344,-0.25 c 0,-1.3281 0,-2.9218 -0.2187,-4.0937 -0.3907,-2.0781 -1.7813,-2.4687 -2.4688,-2.4687 -0.5312,0 -2.1094,0.2031 -2.5,2.6874 -0.1719,1.1407 -0.1719,2.5313 -0.1719,3.875 0,1.2344 0,3.1719 0.2344,4.4219 C 13.6699,-0.5312 14.9043,0 15.7324,0 c 0.9375,0 2.1406,-0.625 2.4531,-2.625 0.2344,-1.3438 0.2344,-2.7656 0.2344,-4.3438 z"
         id="path451"
         inkscape:connector-curvature="0" />
    </g>
    <g
       transform="translate(230,438)"
       style="font-size:16px;fill:#262626;stroke:#262626;font-family:LM Roman 10"
       id="g453">
      <path
         style="stroke:none"
         d="m 7.3594,-5.125 c 0,1.2656 -0.0782,2.5156 -0.5938,3.625 C 6.0625,0.0156 4.8438,0.3594 3.9844,0.3594 3.2031,0.3594 2.0312,0.0312 1.3438,-1.2656 0.6875,-2.4844 0.625,-3.9219 0.625,-5.125 c 0,-1.2812 0.0781,-2.5156 0.5938,-3.625 0.6562,-1.4844 1.8281,-1.9062 2.7812,-1.9062 0.6719,0 1.9844,0.25 2.7188,1.7968 0.5624,1.1719 0.6406,2.4532 0.6406,3.7344 z M 6.0312,-5.3125 c 0,-1 0,-2.2187 -0.1562,-3.125 -0.3125,-1.5781 -1.3594,-1.8594 -1.8906,-1.8594 -0.4063,0 -1.5938,0.1407 -1.9063,2.0469 -0.125,0.8594 -0.125,1.9062 -0.125,2.9375 0,0.9375 0,2.4219 0.1719,3.375 C 2.4219,-0.4062 3.3594,0 3.9844,0 c 0.7187,0 1.625,-0.4844 1.875,-2 0.1718,-1.0312 0.1718,-2.1094 0.1718,-3.3125 z"
         id="path455"
         inkscape:connector-curvature="0" />
    </g>
    <g
       transform="translate(353,448)"
       style="font-size:21px;fill:#262626;stroke:#262626;font-family:LM Roman 10"
       id="g457">
      <path
         style="stroke:none"
         d="M 8.7969,0 C 8.0625,-0.0625 6.2344,-0.0625 5.3906,-0.0625 4.5625,-0.0625 2.7344,-0.0625 2,0 l 0,-0.6562 0.6719,0 c 1.8906,0 1.9531,-0.25 1.9531,-1 l 0,-10.875 c -1.0938,0.5468 -2.3438,0.5468 -2.75,0.5468 l 0,-0.6562 c 0.6719,0 2.5156,0 3.8125,-1.3438 0.4844,0 0.4844,0.0469 0.4844,0.5469 l 0,11.7813 c 0,0.7812 0.0625,1 1.9531,1 l 0.6719,0 z m 11.3574,-6.7188 c 0,1.6563 -0.0938,3.2969 -0.7656,4.75 -0.9375,1.9844 -2.5313,2.4376 -3.6563,2.4376 -1.0312,0 -2.5625,-0.4219 -3.4687,-2.125 -0.8594,-1.5938 -0.9532,-3.4844 -0.9532,-5.0626 0,-1.6874 0.1094,-3.3124 0.7813,-4.7656 0.8594,-1.9531 2.3906,-2.5 3.6562,-2.5 0.875,0 2.6094,0.3282 3.5625,2.3438 0.75,1.5625 0.8438,3.2344 0.8438,4.9218 z m -1.7344,-0.25 c 0,-1.3281 0,-2.9218 -0.2187,-4.0937 -0.3907,-2.0781 -1.7813,-2.4687 -2.4688,-2.4687 -0.5312,0 -2.1094,0.2031 -2.5,2.6874 -0.1719,1.1407 -0.1719,2.5313 -0.1719,3.875 0,1.2344 0,3.1719 0.2344,4.4219 C 13.6699,-0.5312 14.9043,0 15.7324,0 c 0.9375,0 2.1406,-0.625 2.4531,-2.625 0.2344,-1.3438 0.2344,-2.7656 0.2344,-4.3438 z"
         id="path459"
         inkscape:connector-curvature="0" />
    </g>
    <g
       transform="translate(374,438)"
       style="font-size:16px;fill:#262626;stroke:#262626;font-family:LM Roman 10"
       id="g461">
      <path
         style="stroke:none"
         d="M 6.7031,0 C 6.1406,-0.0469 4.75,-0.0469 4.1094,-0.0469 c -0.6406,0 -2.0313,0 -2.5938,0.0469 l 0,-0.5 0.5156,0 c 1.4376,0 1.4844,-0.1875 1.4844,-0.7656 l 0,-8.2813 C 2.6875,-9.1406 1.75,-9.1406 1.4219,-9.1406 l 0,-0.4844 c 0.5156,0 1.9219,0 2.9219,-1.0312 0.3593,0 0.3593,0.0312 0.3593,0.4218 l 0,8.9688 c 0,0.5937 0.0469,0.7656 1.4844,0.7656 l 0.5156,0 z"
         id="path463"
         inkscape:connector-curvature="0" />
    </g>
    <g
       transform="translate(497,448)"
       style="font-size:21px;fill:#262626;stroke:#262626;font-family:LM Roman 10"
       id="g465">
      <path
         style="stroke:none"
         d="M 8.7969,0 C 8.0625,-0.0625 6.2344,-0.0625 5.3906,-0.0625 4.5625,-0.0625 2.7344,-0.0625 2,0 l 0,-0.6562 0.6719,0 c 1.8906,0 1.9531,-0.25 1.9531,-1 l 0,-10.875 c -1.0938,0.5468 -2.3438,0.5468 -2.75,0.5468 l 0,-0.6562 c 0.6719,0 2.5156,0 3.8125,-1.3438 0.4844,0 0.4844,0.0469 0.4844,0.5469 l 0,11.7813 c 0,0.7812 0.0625,1 1.9531,1 l 0.6719,0 z m 11.3574,-6.7188 c 0,1.6563 -0.0938,3.2969 -0.7656,4.75 -0.9375,1.9844 -2.5313,2.4376 -3.6563,2.4376 -1.0312,0 -2.5625,-0.4219 -3.4687,-2.125 -0.8594,-1.5938 -0.9532,-3.4844 -0.9532,-5.0626 0,-1.6874 0.1094,-3.3124 0.7813,-4.7656 0.8594,-1.9531 2.3906,-2.5 3.6562,-2.5 0.875,0 2.6094,0.3282 3.5625,2.3438 0.75,1.5625 0.8438,3.2344 0.8438,4.9218 z m -1.7344,-0.25 c 0,-1.3281 0,-2.9218 -0.2187,-4.0937 -0.3907,-2.0781 -1.7813,-2.4687 -2.4688,-2.4687 -0.5312,0 -2.1094,0.2031 -2.5,2.6874 -0.1719,1.1407 -0.1719,2.5313 -0.1719,3.875 0,1.2344 0,3.1719 0.2344,4.4219 C 13.6699,-0.5312 14.9043,0 15.7324,0 c 0.9375,0 2.1406,-0.625 2.4531,-2.625 0.2344,-1.3438 0.2344,-2.7656 0.2344,-4.3438 z"
         id="path467"
         inkscape:connector-curvature="0" />
    </g>
    <g
       transform="translate(518,438)"
       style="font-size:16px;fill:#262626;stroke:#262626;font-family:LM Roman 10"
       id="g469">
      <path
         style="stroke:none"
         d="M 7.1875,-2.7812 6.7344,0 0.7969,0 c 0,-0.3906 0,-0.4219 0.1719,-0.5938 l 3.0781,-3.4218 c 0.875,-1 1.6875,-2.25 1.6875,-3.5313 0,-1.3125 -0.6875,-2.6093 -2.1563,-2.6093 -0.9219,0 -1.7812,0.5937 -2.1562,1.625 0.0469,-0.0157 0.0781,-0.0157 0.2031,-0.0157 0.5625,0 0.8594,0.4219 0.8594,0.8281 0,0.6563 -0.5625,0.8594 -0.8438,0.8594 -0.0468,0 -0.8437,0 -0.8437,-0.9062 0,-1.4219 1.1875,-2.8906 3,-2.8906 1.9531,0 3.3906,1.2812 3.3906,3.1093 0,1.5938 -0.9687,2.4531 -3.4531,4.6719 l -1.7032,1.6406 2.875,0 c 0.3594,0 1.4063,0 1.5313,-0.125 0.1563,-0.2344 0.2656,-0.9375 0.3437,-1.4218 z"
         id="path471"
         inkscape:connector-curvature="0" />
    </g>
    <g
       transform="translate(296.0002,453.2667)"
       style="font-size:23px;fill:#262626;stroke:#262626;font-family:mwa_cmr10"
       id="g473">
      <path
         style="stroke:none"
         d="m -105.0627,19.7119 0,-0.8125 q 2.375,0 2.375,-0.7187 l 0,-12.6407 q 0,-0.7343 -2.375,-0.7343 l 0,-0.8125 7.2188,0 q 1.2968,0 2.7187,0.4687 1.4219,0.4688 2.375,1.4219 0.9531,0.9531 0.9531,2.2812 0,0.9688 -0.5781,1.7266 -0.5781,0.7578 -1.4844,1.2656 -0.9062,0.5078 -1.8437,0.7422 1.0312,0.3594 1.8047,1.1406 0.7734,0.7813 0.9297,1.7969 l 0.3281,2.0469 q 0.2187,1.375 0.4687,2.0547 0.25,0.6797 1.0938,0.6797 0.7187,0 1.0703,-0.6641 0.3516,-0.6641 0.3516,-1.4609 0,-0.0782 0.0703,-0.1407 0.0703,-0.0625 0.1484,-0.0625 l 0.2188,0 q 0.2187,0 0.2187,0.3125 0,0.625 -0.2422,1.2266 -0.2422,0.6016 -0.7109,0.9922 -0.4688,0.3906 -1.1094,0.3906 -1.6562,0 -2.8516,-0.8203 -1.1953,-0.8203 -1.1953,-2.4141 l 0,-2.0468 q 0,-1.1563 -0.7968,-1.9688 -0.7969,-0.8125 -1.9532,-0.8125 l -2.7656,0 0,6.0313 q 0,0.7187 2.3594,0.7187 l 0,0.8125 -6.7969,0 z m 4.4375,-8.1719 2.4531,0 q 1.9063,0 2.9063,-0.7656 1,-0.7656 1,-2.6094 0,-1.8281 -0.9844,-2.5937 -0.9844,-0.7656 -2.9219,-0.7656 l -1.2812,0 q -0.4219,0 -0.6563,0.039 -0.2343,0.0391 -0.375,0.1953 -0.1406,0.1563 -0.1406,0.5 l 0,6 z"
         id="path475"
         inkscape:connector-curvature="0" />
      <path
         style="stroke:none"
         d="m -86.0699,16.9775 0,-5.0781 q 0,-0.625 -0.1875,-0.8984 -0.1875,-0.2735 -0.5312,-0.336 -0.3438,-0.0625 -1.0781,-0.0625 l 0,-0.8125 3.4843,-0.2343 0,7.4218 q 0,0.8907 0.125,1.3907 0.125,0.5 0.5469,0.75 0.4219,0.25 1.3438,0.25 1.2343,0 1.9687,-1.0391 0.7344,-1.0391 0.7344,-2.3516 l 0,-4.0781 q 0,-0.625 -0.1953,-0.8984 -0.1953,-0.2735 -0.5391,-0.336 -0.3437,-0.0625 -1.0625,-0.0625 l 0,-0.8125 3.4688,-0.2343 0,8.0625 q 0,0.6093 0.1797,0.8828 0.1796,0.2734 0.5312,0.3359 0.3516,0.0625 1.0859,0.0625 l 0,0.8125 -3.4062,0.2656 0,-1.9531 q -0.4219,0.875 -1.1875,1.4141 -0.7656,0.539 -1.6875,0.539 -1.6563,0 -2.625,-0.7031 -0.9688,-0.7031 -0.9688,-2.2969 z"
         id="path477"
         inkscape:connector-curvature="0" />
      <path
         style="stroke:none"
         d="m -74.8297,19.7119 0,-0.8125 q 0.7813,0 1.2891,-0.125 0.5078,-0.125 0.5078,-0.5937 l 0,-6.2813 q 0,-0.625 -0.1875,-0.8984 -0.1875,-0.2735 -0.5312,-0.336 -0.3438,-0.0625 -1.0782,-0.0625 l 0,-0.8125 3.3282,-0.2343 0,2.2343 q 0.4687,-0.9843 1.375,-1.6093 0.9062,-0.625 1.9687,-0.625 1.5938,0 2.3985,0.7578 0.8046,0.7578 0.8046,2.3359 l 0,5.5313 q 0,0.4687 0.5,0.5937 0.5,0.125 1.2969,0.125 l 0,0.8125 -5.2656,0 0,-0.8125 q 0.7812,0 1.2891,-0.125 0.5078,-0.125 0.5078,-0.5937 l 0,-5.4688 q 0,-1.125 -0.3282,-1.8437 -0.3281,-0.7188 -1.3437,-0.7188 -1.3281,0 -2.1875,1.0625 -0.8594,1.0625 -0.8594,2.4219 l 0,4.5469 q 0,0.4687 0.5,0.5937 0.5,0.125 1.2813,0.125 l 0,0.8125 -5.2657,0 z"
         id="path479"
         inkscape:connector-curvature="0" />
      <path
         style="stroke:none"
         d="m -61.7926,19.7119 0,-0.8125 q 0.7813,0 1.2891,-0.125 0.5078,-0.125 0.5078,-0.5937 l 0,-6.2813 q 0,-0.625 -0.1875,-0.8984 -0.1875,-0.2735 -0.5313,-0.336 -0.3437,-0.0625 -1.0781,-0.0625 l 0,-0.8125 3.3281,-0.2343 0,2.2343 q 0.4688,-0.9843 1.375,-1.6093 0.9063,-0.625 1.9688,-0.625 1.5937,0 2.3984,0.7578 0.8047,0.7578 0.8047,2.3359 l 0,5.5313 q 0,0.4687 0.5,0.5937 0.5,0.125 1.2969,0.125 l 0,0.8125 -5.2656,0 0,-0.8125 q 0.7812,0 1.289,-0.125 0.5078,-0.125 0.5078,-0.5937 l 0,-5.4688 q 0,-1.125 -0.3281,-1.8437 -0.3281,-0.7188 -1.3437,-0.7188 -1.3282,0 -2.1875,1.0625 -0.8594,1.0625 -0.8594,2.4219 l 0,4.5469 q 0,0.4687 0.5,0.5937 0.5,0.125 1.2812,0.125 l 0,0.8125 -5.2656,0 z"
         id="path481"
         inkscape:connector-curvature="0" />
      <path
         style="stroke:none"
         d="m -48.7399,19.7119 0,-0.8125 q 0.7969,0 1.2969,-0.125 0.5,-0.125 0.5,-0.5937 l 0,-6.2813 q 0,-0.8906 -0.3437,-1.0937 -0.3438,-0.2032 -1.3438,-0.2032 l 0,-0.8125 3.3125,-0.2343 0,8.625 q 0,0.4687 0.4375,0.5937 0.4375,0.125 1.1719,0.125 l 0,0.8125 -5.0313,0 z m 0.9844,-14.1094 q 0,-0.5156 0.3828,-0.8984 0.3828,-0.3828 0.8672,-0.3828 0.3281,0 0.6328,0.1719 0.3047,0.1718 0.4766,0.4765 0.1719,0.3047 0.1719,0.6328 0,0.4844 -0.3829,0.8672 -0.3828,0.3828 -0.8984,0.3828 -0.4844,0 -0.8672,-0.3828 -0.3828,-0.3828 -0.3828,-0.8672 z"
         id="path483"
         inkscape:connector-curvature="0" />
      <path
         style="stroke:none"
         d="m -42.237,19.7119 0,-0.8125 q 0.7813,0 1.2891,-0.125 0.5078,-0.125 0.5078,-0.5937 l 0,-6.2813 q 0,-0.625 -0.1875,-0.8984 -0.1875,-0.2735 -0.5312,-0.336 -0.3438,-0.0625 -1.0782,-0.0625 l 0,-0.8125 3.3282,-0.2343 0,2.2343 q 0.4687,-0.9843 1.375,-1.6093 0.9062,-0.625 1.9687,-0.625 1.5938,0 2.3985,0.7578 0.8046,0.7578 0.8046,2.3359 l 0,5.5313 q 0,0.4687 0.5,0.5937 0.5,0.125 1.2969,0.125 l 0,0.8125 -5.2656,0 0,-0.8125 q 0.7812,0 1.2891,-0.125 0.5078,-0.125 0.5078,-0.5937 l 0,-5.4688 q 0,-1.125 -0.3282,-1.8437 -0.3281,-0.7188 -1.3437,-0.7188 -1.3281,0 -2.1875,1.0625 -0.8594,1.0625 -0.8594,2.4219 l 0,4.5469 q 0,0.4687 0.5,0.5937 0.5,0.125 1.2813,0.125 l 0,0.8125 -5.2657,0 z"
         id="path485"
         inkscape:connector-curvature="0" />
      <path
         style="stroke:none"
         d="m -29.2468,21.5088 q 0,-0.8125 0.5938,-1.4297 0.5937,-0.6172 1.4219,-0.8672 -0.4688,-0.3594 -0.711,-0.8828 -0.2422,-0.5234 -0.2422,-1.1172 0,-1.0781 0.6875,-1.9062 -1.0468,-1.0469 -1.0468,-2.375 0,-0.7188 0.3047,-1.3516 0.3046,-0.6328 0.8593,-1.0937 0.5547,-0.461 1.2266,-0.6954 0.6719,-0.2343 1.375,-0.2343 1.375,0 2.4531,0.7968 0.4844,-0.5156 1.125,-0.789 0.6406,-0.2735 1.3438,-0.2735 0.4843,0 0.8047,0.3516 0.3203,0.3516 0.3203,0.8516 0,0.2812 -0.2188,0.4922 -0.2187,0.2109 -0.5,0.2109 -0.2812,0 -0.5,-0.2109 -0.2187,-0.211 -0.2187,-0.4922 0,-0.4219 0.2812,-0.5938 -1.1875,0 -2.0312,0.8125 0.4062,0.4219 0.664,1.0235 0.2578,0.6015 0.2578,1.1953 0,0.9687 -0.539,1.75 -0.5391,0.7812 -1.4219,1.2187 -0.8828,0.4375 -1.8203,0.4375 -1.25,0 -2.2969,-0.6875 -0.3281,0.4531 -0.3281,1 0,0.6094 0.3984,1.0703 0.3985,0.461 1.0078,0.461 l 1.875,0 q 1.375,0 2.4766,0.2422 1.1016,0.2421 1.8516,0.9843 0.75,0.7422 0.75,2.1016 0,1.0156 -0.8594,1.6797 -0.8594,0.664 -2.0391,0.9609 -1.1797,0.2969 -2.1953,0.2969 -1.0156,0 -2.2109,-0.2969 -1.1953,-0.2969 -2.0469,-0.9609 -0.8516,-0.6641 -0.8516,-1.6797 z m 1.2969,0 q 0,0.7812 0.625,1.2969 0.625,0.5156 1.5156,0.7734 0.8907,0.2578 1.6719,0.2578 0.7813,0 1.6641,-0.2578 0.8828,-0.2578 1.5078,-0.7734 0.625,-0.5157 0.625,-1.2969 0,-1.2031 -1.1016,-1.5547 -1.1015,-0.3516 -2.6797,-0.3516 l -1.875,0 q -0.5312,0 -0.9765,0.25 -0.4453,0.25 -0.711,0.7032 -0.2656,0.4531 -0.2656,0.9531 z m 3.1719,-5.7969 q 1.9531,0 1.9531,-2.7812 0,-1.2032 -0.414,-1.9844 -0.4141,-0.7813 -1.5391,-0.7813 -1.125,0 -1.5391,0.7813 -0.414,0.7812 -0.414,1.9844 0,0.7656 0.1562,1.3828 0.1563,0.6172 0.586,1.0078 0.4296,0.3906 1.2109,0.3906 z"
         id="path487"
         inkscape:connector-curvature="0" />
      <path
         style="stroke:none"
         d="m -6.4412,19.7119 0,-0.8125 q 1.1563,0 2.2422,-0.125 1.0859,-0.125 1.0859,-0.5937 l 0,-12.6407 q 0,-0.5 -0.2734,-0.6171 -0.2734,-0.1172 -0.8984,-0.1172 l -0.9532,0 q -1.9062,0 -2.7031,0.8281 -0.4062,0.4219 -0.5859,1.3359 -0.1797,0.9141 -0.3047,2.3047 l -0.6719,0 0.4375,-5.2812 14.0469,0 0.4375,5.2812 -0.6719,0 Q 4.6213,7.79 4.4573,6.915 4.2932,6.04 3.8713,5.6338 3.0588,4.8057 1.1682,4.8057 l -0.9688,0 q -0.4062,0 -0.6406,0.039 -0.2344,0.0391 -0.3828,0.1953 -0.1484,0.1563 -0.1484,0.5 l 0,12.6407 q 0,0.4687 1.0937,0.5937 1.0938,0.125 2.2344,0.125 l 0,0.8125 -8.7969,0 z"
         id="path489"
         inkscape:connector-curvature="0" />
      <path
         style="stroke:none"
         d="m 7.3195,19.7119 0,-0.8125 q 0.7969,0 1.2969,-0.125 0.5,-0.125 0.5,-0.5937 l 0,-6.2813 q 0,-0.8906 -0.3438,-1.0937 -0.3437,-0.2032 -1.3437,-0.2032 l 0,-0.8125 3.3125,-0.2343 0,8.625 q 0,0.4687 0.4375,0.5937 0.4375,0.125 1.1718,0.125 l 0,0.8125 -5.0312,0 z M 8.3039,5.6025 q 0,-0.5156 0.3828,-0.8984 0.3828,-0.3828 0.8672,-0.3828 0.3281,0 0.6328,0.1719 0.3047,0.1718 0.4765,0.4765 0.1719,0.3047 0.1719,0.6328 0,0.4844 -0.3828,0.8672 -0.3828,0.3828 -0.8984,0.3828 -0.4844,0 -0.8672,-0.3828 Q 8.3039,6.0869 8.3039,5.6025 z"
         id="path491"
         inkscape:connector-curvature="0" />
      <path
         style="stroke:none"
         d="m 13.8224,19.7119 0,-0.8125 q 0.7813,0 1.2891,-0.125 0.5078,-0.125 0.5078,-0.5937 l 0,-6.2813 q 0,-0.625 -0.1875,-0.8984 -0.1875,-0.2735 -0.5313,-0.336 -0.3437,-0.0625 -1.0781,-0.0625 l 0,-0.8125 3.3281,-0.2343 0,2.2343 q 0.4688,-0.9843 1.375,-1.6093 0.9063,-0.625 1.9688,-0.625 2.6406,0 3.1094,2.1562 0.4531,-0.9687 1.3437,-1.5625 0.8906,-0.5937 1.9375,-0.5937 1.0469,0 1.7656,0.3359 0.7188,0.3359 1.0782,1.0234 0.3593,0.6875 0.3593,1.7344 l 0,5.5313 q 0,0.4687 0.5078,0.5937 0.5079,0.125 1.2891,0.125 l 0,0.8125 -5.2656,0 0,-0.8125 q 0.7812,0 1.289,-0.125 0.5079,-0.125 0.5079,-0.5937 l 0,-5.4688 q 0,-1.1562 -0.3282,-1.8594 -0.3281,-0.7031 -1.3437,-0.7031 -1.3281,0 -2.1875,1.0625 -0.8594,1.0625 -0.8594,2.4219 l 0,4.5469 q 0,0.4687 0.5,0.5937 0.5,0.125 1.2969,0.125 l 0,0.8125 -5.2656,0 0,-0.8125 q 0.7812,0 1.289,-0.125 0.5078,-0.125 0.5078,-0.5937 l 0,-5.4688 q 0,-1.125 -0.3281,-1.8437 -0.3281,-0.7188 -1.3437,-0.7188 -1.3282,0 -2.1875,1.0625 -0.8594,1.0625 -0.8594,2.4219 l 0,4.5469 q 0,0.4687 0.5,0.5937 0.5,0.125 1.2812,0.125 l 0,0.8125 -5.2656,0 z"
         id="path493"
         inkscape:connector-curvature="0" />
      <path
         style="stroke:none"
         d="m 38.4249,19.9775 q -1.4063,0 -2.5781,-0.7421 -1.1719,-0.7422 -1.8438,-1.9688 -0.6719,-1.2266 -0.6719,-2.6016 0,-1.3437 0.6094,-2.5546 0.6094,-1.211 1.7031,-1.961 1.0938,-0.75 2.4532,-0.75 1.0468,0 1.8281,0.3516 0.7812,0.3515 1.2891,0.9844 0.5078,0.6328 0.7656,1.4843 0.2578,0.8516 0.2578,1.8828 0,0.2969 -0.2344,0.2969 l -6.6562,0 0,0.25 q 0,1.9063 0.7656,3.2735 0.7656,1.3671 2.5156,1.3671 0.7031,0 1.3047,-0.3125 0.6016,-0.3125 1.0391,-0.875 0.4375,-0.5625 0.6093,-1.2031 0.0157,-0.0781 0.0782,-0.1406 0.0625,-0.0625 0.1406,-0.0625 l 0.2031,0 q 0.2344,0 0.2344,0.2969 -0.3281,1.2968 -1.4063,2.1406 -1.0781,0.8437 -2.4062,0.8437 z m -3.0625,-6.1562 5.25,0 q 0,-0.8594 -0.2422,-1.75 -0.2422,-0.8906 -0.8047,-1.4766 -0.5625,-0.5859 -1.4687,-0.5859 -1.3125,0 -2.0235,1.2187 -0.7109,1.2188 -0.7109,2.5938 z"
         id="path495"
         inkscape:connector-curvature="0" />
      <path
         style="stroke:none"
         d="m 58.0674,25.415 q -1.2813,-1.0156 -2.2032,-2.3203 -0.9218,-1.3047 -1.5156,-2.789 -0.5937,-1.4844 -0.8828,-3.1016 -0.2891,-1.6172 -0.2891,-3.2422 0,-1.6562 0.2891,-3.2734 0.2891,-1.6172 0.8906,-3.1094 0.6016,-1.4922 1.5391,-2.7969 0.9375,-1.3047 2.1719,-2.2734 0,-0.0469 0.125,-0.0469 l 0.2031,0 q 0.0781,0 0.1328,0.0625 0.0547,0.0625 0.0547,0.1406 0,0.0938 -0.0469,0.1407 -1.125,1.1093 -1.875,2.3672 -0.75,1.2578 -1.2031,2.6796 -0.4531,1.4219 -0.6563,2.9375 -0.2031,1.5157 -0.2031,3.1719 0,7.3125 3.9063,11.1094 0.0781,0.0625 0.0781,0.1875 0,0.0625 -0.0625,0.1328 -0.0625,0.0703 -0.125,0.0703 l -0.2031,0 q -0.125,0 -0.125,-0.0469 z"
         id="path497"
         inkscape:connector-curvature="0" />
      <path
         style="stroke:none"
         d="m 60.8339,19.7744 0,-3.75 q 0,-0.1719 0.2032,-0.1719 l 0.2812,0 q 0.125,0 0.1719,0.1719 0.6406,3.3438 3.1094,3.3438 1.0781,0 1.8203,-0.5 0.7422,-0.5 0.7422,-1.5313 0,-0.7344 -0.5782,-1.2578 -0.5781,-0.5234 -1.3593,-0.7109 l -1.5469,-0.3125 q -0.7656,-0.1563 -1.3985,-0.5078 -0.6328,-0.3516 -1.039,-0.9297 -0.4063,-0.5782 -0.4063,-1.3438 0,-1.0156 0.5313,-1.6562 0.5312,-0.6407 1.3828,-0.9297 0.8516,-0.2891 1.8516,-0.2891 1.1718,0 2.0468,0.625 l 0.6719,-0.5625 q 0,-0.0625 0.1094,-0.0625 l 0.1719,0 q 0.0625,0 0.1172,0.0625 0.0546,0.0625 0.0546,0.125 l 0,3.0156 q 0,0.2188 -0.1718,0.2188 l -0.2813,0 q -0.2031,0 -0.2031,-0.2188 0,-1.2031 -0.6719,-1.9296 -0.6719,-0.7266 -1.875,-0.7266 -1.0312,0 -1.7891,0.3828 -0.7578,0.3828 -0.7578,1.3047 0,0.6406 0.5469,1.0547 0.5469,0.414 1.2813,0.5859 l 1.5468,0.2969 q 0.7969,0.1719 1.4766,0.6016 0.6797,0.4296 1.0781,1.0781 0.3985,0.6484 0.3985,1.4765 0,0.8282 -0.2891,1.4375 -0.2891,0.6094 -0.7969,1.0157 -0.5078,0.4062 -1.2031,0.6015 -0.6953,0.1953 -1.4609,0.1953 -1.4375,0 -2.4688,-0.9687 l -0.8437,0.9062 q 0,0.0625 -0.125,0.0625 l -0.125,0 q -0.2032,0 -0.2032,-0.2031 z"
         id="path499"
         inkscape:connector-curvature="0" />
      <path
         style="stroke:none"
         d="m 75.059,19.9775 q -1.4063,0 -2.5781,-0.7421 -1.1719,-0.7422 -1.8438,-1.9688 -0.6719,-1.2266 -0.6719,-2.6016 0,-1.3437 0.6094,-2.5546 0.6094,-1.211 1.7031,-1.961 1.0938,-0.75 2.4532,-0.75 1.0468,0 1.8281,0.3516 0.7812,0.3515 1.289,0.9844 0.5079,0.6328 0.7657,1.4843 0.2578,0.8516 0.2578,1.8828 0,0.2969 -0.2344,0.2969 l -6.6562,0 0,0.25 q 0,1.9063 0.7656,3.2735 0.7656,1.3671 2.5156,1.3671 0.7031,0 1.3047,-0.3125 0.6016,-0.3125 1.0391,-0.875 0.4375,-0.5625 0.6093,-1.2031 0.0157,-0.0781 0.0782,-0.1406 0.0625,-0.0625 0.1406,-0.0625 l 0.2031,0 q 0.2344,0 0.2344,0.2969 -0.3281,1.2968 -1.4063,2.1406 -1.0781,0.8437 -2.4062,0.8437 z m -3.0625,-6.1562 5.25,0 q 0,-0.8594 -0.2422,-1.75 -0.2422,-0.8906 -0.8047,-1.4766 -0.5625,-0.5859 -1.4687,-0.5859 -1.3125,0 -2.0235,1.2187 -0.7109,1.2188 -0.7109,2.5938 z"
         id="path501"
         inkscape:connector-curvature="0" />
      <path
         style="stroke:none"
         d="m 85.4886,19.9775 q -1.4062,0 -2.5391,-0.7265 -1.1328,-0.7266 -1.7812,-1.9375 -0.6484,-1.211 -0.6484,-2.5703 0,-1.3594 0.6484,-2.6016 0.6484,-1.2422 1.7812,-1.9922 1.1329,-0.75 2.5391,-0.75 1.3438,0 2.4453,0.5313 1.1016,0.5312 1.1016,1.7343 0,0.4375 -0.3203,0.7735 -0.3203,0.3359 -0.7735,0.3359 -0.4531,0 -0.7734,-0.3359 -0.3203,-0.336 -0.3203,-0.7735 0,-0.4062 0.2578,-0.7031 0.2578,-0.2969 0.6328,-0.375 -0.7969,-0.5156 -2.2344,-0.5156 -1.0937,0 -1.7734,0.7344 -0.6797,0.7343 -0.9453,1.8125 -0.2656,1.0781 -0.2656,2.125 0,1.1093 0.3281,2.1484 0.3281,1.0391 1.0625,1.7188 0.7344,0.6796 1.8594,0.6796 1.0781,0 1.8437,-0.664 0.7656,-0.6641 1.0469,-1.7422 0,-0.1406 0.1719,-0.1406 l 0.2812,0 q 0.0781,0 0.1328,0.0625 0.0547,0.0625 0.0547,0.1406 l 0,0.0625 q -0.3437,1.3594 -1.3828,2.1641 -1.0391,0.8046 -2.4297,0.8046 z"
         id="path503"
         inkscape:connector-curvature="0" />
      <path
         style="stroke:none"
         d="m 92.1214,18.4463 q 0,-0.5156 0.3828,-0.8906 0.3828,-0.375 0.8828,-0.375 0.3125,0 0.6172,0.1718 0.3047,0.1719 0.4687,0.4766 0.1641,0.3047 0.1641,0.6172 0,0.5 -0.3672,0.8828 -0.3672,0.3828 -0.8828,0.3828 -0.5,0 -0.8828,-0.3828 -0.3828,-0.3828 -0.3828,-0.8828 z"
         id="path505"
         inkscape:connector-curvature="0" />
      <path
         style="stroke:none"
         d="m 98.2024,25.4619 q -0.2031,0 -0.2031,-0.2031 0,-0.0938 0.0468,-0.1406 3.9219,-3.8438 3.9219,-11.1563 0,-7.3125 -3.8906,-11.1094 -0.0781,-0.0468 -0.0781,-0.1875 0,-0.0781 0.0625,-0.1406 0.0625,-0.0625 0.1406,-0.0625 l 0.2031,0 q 0.0781,0 0.1094,0.0469 1.6562,1.2969 2.7578,3.1641 1.1016,1.8671 1.6094,3.9765 0.5078,2.1094 0.5078,4.3125 0,1.625 -0.2734,3.2031 -0.2735,1.5782 -0.875,3.1094 -0.6016,1.5313 -1.5235,2.8281 -0.9219,1.2969 -2.2031,2.3125 -0.0313,0.0469 -0.1094,0.0469 l -0.2031,0 z"
         id="path507"
         inkscape:connector-curvature="0" />
    </g>
    <g
       style="fill:#262626;stroke:#262626;stroke-width:0.66670001;stroke-linejoin:round"
       id="g509">
      <line
         y2="36"
         style="fill:none"
         x1="80"
         x2="80"
         y1="419"
         id="line511" />
      <line
         y2="36"
         style="fill:none"
         x1="512"
         x2="512"
         y1="419"
         id="line513" />
      <line
         y2="419"
         style="fill:none"
         x1="80"
         x2="84.32"
         y1="419"
         id="line515" />
      <line
         y2="384.18179"
         style="fill:none"
         x1="80"
         x2="84.32"
         y1="384.18179"
         id="line517" />
      <line
         y2="349.36359"
         style="fill:none"
         x1="80"
         x2="84.32"
         y1="349.36359"
         id="line519" />
      <line
         y2="314.54541"
         style="fill:none"
         x1="80"
         x2="84.32"
         y1="314.54541"
         id="line521" />
      <line
         y2="279.72729"
         style="fill:none"
         x1="80"
         x2="84.32"
         y1="279.72729"
         id="line523" />
      <line
         y2="244.9091"
         style="fill:none"
         x1="80"
         x2="84.32"
         y1="244.9091"
         id="line525" />
      <line
         y2="210.0909"
         style="fill:none"
         x1="80"
         x2="84.32"
         y1="210.0909"
         id="line527" />
      <line
         y2="175.27271"
         style="fill:none"
         x1="80"
         x2="84.32"
         y1="175.27271"
         id="line529" />
      <line
         y2="140.4545"
         style="fill:none"
         x1="80"
         x2="84.32"
         y1="140.4545"
         id="line531" />
      <line
         y2="105.6364"
         style="fill:none"
         x1="80"
         x2="84.32"
         y1="105.6364"
         id="line533" />
      <line
         y2="70.818199"
         style="fill:none"
         x1="80"
         x2="84.32"
         y1="70.818199"
         id="line535" />
      <line
         y2="36"
         style="fill:none"
         x1="80"
         x2="84.32"
         y1="36"
         id="line537" />
      <line
         y2="419"
         style="fill:none"
         x1="512"
         x2="507.67999"
         y1="419"
         id="line539" />
      <line
         y2="384.18179"
         style="fill:none"
         x1="512"
         x2="507.67999"
         y1="384.18179"
         id="line541" />
      <line
         y2="349.36359"
         style="fill:none"
         x1="512"
         x2="507.67999"
         y1="349.36359"
         id="line543" />
      <line
         y2="314.54541"
         style="fill:none"
         x1="512"
         x2="507.67999"
         y1="314.54541"
         id="line545" />
      <line
         y2="279.72729"
         style="fill:none"
         x1="512"
         x2="507.67999"
         y1="279.72729"
         id="line547" />
      <line
         y2="244.9091"
         style="fill:none"
         x1="512"
         x2="507.67999"
         y1="244.9091"
         id="line549" />
      <line
         y2="210.0909"
         style="fill:none"
         x1="512"
         x2="507.67999"
         y1="210.0909"
         id="line551" />
      <line
         y2="175.27271"
         style="fill:none"
         x1="512"
         x2="507.67999"
         y1="175.27271"
         id="line553" />
      <line
         y2="140.4545"
         style="fill:none"
         x1="512"
         x2="507.67999"
         y1="140.4545"
         id="line555" />
      <line
         y2="105.6364"
         style="fill:none"
         x1="512"
         x2="507.67999"
         y1="105.6364"
         id="line557" />
      <line
         y2="70.818199"
         style="fill:none"
         x1="512"
         x2="507.67999"
         y1="70.818199"
         id="line559" />
      <line
         y2="36"
         style="fill:none"
         x1="512"
         x2="507.67999"
         y1="36"
         id="line561" />
    </g>
    <g
       transform="translate(73.0667,419)"
       style="font-size:21px;fill:#262626;stroke:#262626;font-family:LM Roman 10"
       id="g563">
      <path
         style="stroke:none"
         d="m -1.4062,2.4062 c 0,2.1407 -1.9063,4.0626 -4.4688,4.0626 -2.2969,0 -4.25,-1.3907 -4.25,-3.2969 0,-0.9375 0.6719,-1.2188 1.1875,-1.2188 0.6094,0 1.1719,0.4063 1.1719,1.1719 0,0.7969 -0.6563,1.2656 -1.3906,1.1562 0.7343,1.2344 2.3124,1.5938 3.2187,1.5938 0.9219,0 2.375,-0.6094 2.375,-3.4688 0,-2.0624 -0.7813,-3.4843 -2.5,-3.4843 l -0.9219,0 c -0.3594,0 -0.5156,0 -0.5156,-0.2344 0,-0.2031 0.1562,-0.2187 0.3281,-0.25 0.1407,0 0.6407,-0.0469 0.8125,-0.0625 0.5313,-0.0156 1.2344,-0.0781 1.875,-1.0938 0.5469,-0.9218 0.5782,-2.1406 0.5782,-2.3906 0,-1.8906 -1.1563,-2.3594 -2.0157,-2.3594 -0.75,0 -2.1406,0.2813 -2.7969,1.3126 0.3282,0 1.3126,0 1.3126,1.0468 0,0.6094 -0.4219,1.0782 -1.0782,1.0782 -0.6094,0 -1.0625,-0.4063 -1.0625,-1.0938 0,-1.5938 1.5938,-2.8594 3.7188,-2.8594 2.0156,0 3.8593,1.1719 3.8593,2.8906 0,1.6719 -1.2187,3.1407 -2.9374,3.7032 2.1874,0.4375 3.5,2.0781 3.5,3.7968 z"
         id="path565"
         inkscape:connector-curvature="0" />
    </g>
    <g
       transform="translate(73.0667,384.1818)"
       style="font-size:21px;fill:#262626;stroke:#262626;font-family:LM Roman 10"
       id="g567">
      <path
         style="stroke:none"
         d="m -1.1094,2.5312 -2.0937,0 0,1.8282 c 0,0.7656 0.0312,0.9844 1.5937,0.9844 l 0.4375,0 0,0.6562 C -2.0312,5.9375 -3.1406,5.9375 -4.0312,5.9375 -4.9062,5.9375 -6,5.9375 -6.8594,6 l 0,-0.6562 0.4375,0 c 1.5469,0 1.5938,-0.2188 1.5938,-0.9844 l 0,-1.8282 -5.5781,0 0,-0.6406 6.4374,-9.8594 c 0.1719,-0.25 0.2344,-0.25 0.4219,-0.25 0.3438,0 0.3438,0.125 0.3438,0.5469 l 0,9.5625 2.0937,0 z m -3.5937,-0.6406 0,-7.8437 -5.125,7.8437 z"
         id="path569"
         inkscape:connector-curvature="0" />
    </g>
    <g
       transform="translate(73.0667,349.3636)"
       style="font-size:21px;fill:#262626;stroke:#262626;font-family:LM Roman 10"
       id="g571">
      <path
         style="stroke:none"
         d="m -1.5781,1.7812 c 0,2.6719 -2.1407,4.6876 -4.5781,4.6876 -2.3438,0 -3.7969,-2.0469 -3.7969,-3.8438 0,-0.9688 0.7343,-1.125 1.0312,-1.125 0.6875,0 1.0469,0.5312 1.0469,1.0312 0,0.5 -0.3594,1.0313 -1.0469,1.0313 -0.2343,0 -0.2969,-0.0156 -0.3593,-0.0469 0.3593,1.25 1.5624,2.3594 3.0937,2.3594 0.9687,0 1.7344,-0.5469 2.25,-1.3594 0.5,-0.8906 0.5,-2.1562 0.5,-2.8906 0,-1.0469 -0.0469,-1.8594 -0.375,-2.6406 -0.1719,-0.375 -0.7031,-1.3438 -1.7969,-1.3438 -1.6875,0 -2.4687,1.1406 -2.7031,1.4688 -0.0781,0.125 -0.125,0.1875 -0.2656,0.1875 -0.2969,0 -0.2969,-0.1563 -0.2969,-0.5469 l 0,-6.2188 c 0,-0.3281 0,-0.5 0.2031,-0.5 0,0 0.0938,0 0.25,0.0626 0.9844,0.4374 1.9531,0.5937 2.7969,0.5937 1.4062,0 2.4375,-0.4219 2.8594,-0.6094 0.1094,-0.0625 0.1718,-0.0625 0.1718,-0.0625 0.1407,0 0.2032,0.1094 0.2032,0.2344 0,0.2656 -1.4688,2.1719 -4.0469,2.1719 -0.6719,0 -1.375,-0.1407 -1.7969,-0.2657 l 0,4.0938 c 0.7656,-0.7344 1.6719,-1.0625 2.6719,-1.0625 2.2656,0 3.9844,2.0937 3.9844,4.5937 z"
         id="path573"
         inkscape:connector-curvature="0" />
    </g>
    <g
       transform="translate(73.0667,314.5454)"
       style="font-size:21px;fill:#262626;stroke:#262626;font-family:LM Roman 10"
       id="g575">
      <path
         style="stroke:none"
         d="m -1.4062,1.7188 c 0,2.7656 -1.9844,4.75 -4.3282,4.75 -1.9531,0 -4.3906,-1.5 -4.3906,-7.1094 0,-4.6406 2.8438,-7.3438 5.5312,-7.3438 1.7344,0 2.6719,1 2.6719,2.2656 0,0.8126 -0.6406,1.0157 -0.9687,1.0157 -0.4688,0 -0.9688,-0.3281 -0.9688,-0.9688 0,-0.9531 0.8438,-0.9531 1.1563,-0.9531 -0.4688,-0.7031 -1.3438,-0.8438 -1.8438,-0.8438 -1.0781,0 -3.6875,0.7657 -3.6875,6.0782 l 0,0.5 c 0.4219,-1 1.2032,-2.0782 2.625,-2.0782 2.3438,0 4.2032,2.0157 4.2032,4.6876 z M -3.2969,1.6875 c 0,-1.0156 0,-2.0937 -0.375,-2.875 -0.6562,-1.2969 -1.6093,-1.2969 -1.9531,-1.2969 -1.8906,0 -2.5625,2.0938 -2.5625,3.7344 0,0.375 0,2.0625 0.375,3.0469 0.125,0.3125 0.7656,1.5781 2.0781,1.5781 0.4844,0 1.4532,-0.1094 2.0782,-1.3594 0.3593,-0.7656 0.3593,-1.8125 0.3593,-2.8281 z"
         id="path577"
         inkscape:connector-curvature="0" />
    </g>
    <g
       transform="translate(73.0667,279.7273)"
       style="font-size:21px;fill:#262626;stroke:#262626;font-family:LM Roman 10"
       id="g579">
      <path
         style="stroke:none"
         d="m -0.8125,-7.5312 c 0,0.4531 0,0.4843 -0.1875,0.75 l -2.8438,3.9843 C -4.7656,-1.5 -5.0625,0.3125 -5.1406,0.7969 -5.3125,1.9219 -5.375,3.0781 -5.375,4.2344 l 0,1.0781 c 0,0.2031 0,1.1563 -0.9688,1.1563 -0.9531,0 -0.9531,-0.9532 -0.9531,-1.1563 0,-2.1406 0.6875,-5.0625 2.5781,-7.9063 l 2.3438,-3.3124 -4.3438,0 c -0.2656,0 -1.9062,0 -2.0624,0.125 -0.2657,0.25 -0.4532,1.5781 -0.5157,1.9062 l -0.5312,0 0.7031,-4.3281 0.5156,0 c 0.0938,0.4062 0.125,0.6719 2.6875,0.6719 z"
         id="path581"
         inkscape:connector-curvature="0" />
    </g>
    <g
       transform="translate(73.0667,244.9091)"
       style="font-size:21px;fill:#262626;stroke:#262626;font-family:LM Roman 10"
       id="g583">
      <path
         style="stroke:none"
         d="m -1.4062,2.4688 c 0,2.25 -1.9844,4 -4.3594,4 -2.2032,0 -4.3594,-1.4063 -4.3594,-3.6407 0,-2.0781 1.8125,-3.25 3.0312,-3.8593 -0.5312,-0.3594 -1.2968,-0.8907 -1.5312,-1.1407 -0.8906,-0.9843 -0.9219,-1.9219 -0.9219,-2.3125 0,-1.9531 1.7031,-3.5 3.7969,-3.5 1.9062,0 3.7812,1.2032 3.7812,3.125 0,1.3906 -1.0312,2.4844 -2.5468,3.25 1.3437,0.8438 1.6875,1.0625 2.0781,1.5 0.7969,0.875 1.0313,1.8282 1.0313,2.5782 z m -1.4844,-7.3282 c 0,-1.5156 -1.3438,-2.6094 -2.875,-2.6094 -1.5,0 -2.8594,0.8907 -2.8594,2.1719 0,0.3594 0.0781,1.0625 1.0469,1.7031 l 2.6093,1.6719 c 1.25,-0.7343 2.0782,-1.7343 2.0782,-2.9375 z m 0.4375,8.0938 c 0,-1.2813 -0.9844,-1.9219 -1.5781,-2.3125 l -2.5782,-1.6407 c -1.7812,0.9844 -2.4531,2.3282 -2.4531,3.5469 0,1.75 1.5,3.0469 3.3125,3.0469 1.7188,0 3.2969,-1.0938 3.2969,-2.6406 z"
         id="path585"
         inkscape:connector-curvature="0" />
    </g>
    <g
       transform="translate(73.0667,210.0909)"
       style="font-size:21px;fill:#262626;stroke:#262626;font-family:LM Roman 10"
       id="g587">
      <path
         style="stroke:none"
         d="m -1.4062,-0.9062 c 0,4.5156 -2.5626,7.375 -5.2657,7.375 -1.7812,0 -2.9219,-0.875 -2.9219,-2.2813 0,-0.8125 0.625,-1 0.9688,-1 0.4531,0 0.9688,0.3125 0.9688,0.9687 0,0.3594 -0.1719,0.9688 -1.0938,0.9688 0.5625,0.7031 1.7031,0.75 2.0625,0.75 1.2031,0 3.3906,-0.9688 3.3906,-5.875 l 0,-0.6719 c -0.4843,1.2188 -1.3437,2.0938 -2.625,2.0938 -2.3437,0 -4.2031,-2.0625 -4.2031,-4.6875 0,-1.5782 0.4844,-2.4532 1.3438,-3.3906 0.9062,-0.9532 1.9374,-1.3282 3.0937,-1.3282 1.875,0 4.2813,1.4219 4.2813,7.0782 z m -1.9219,-1.9376 c 0,-0.9687 -0.0938,-2.2812 -0.3438,-2.9531 -0.3593,-0.9531 -1.0469,-1.6719 -2.0156,-1.6719 -0.7344,0 -1.5313,0.2813 -2.0937,1.3282 -0.4532,0.7812 -0.4532,1.7656 -0.4532,2.9062 0,1.0156 0,2.0782 0.3906,2.8438 0.6407,1.3281 1.6094,1.3281 1.9532,1.3281 1.8437,0 2.5625,-2.0313 2.5625,-3.7813 z"
         id="path589"
         inkscape:connector-curvature="0" />
    </g>
    <g
       transform="translate(73.0667,175.2727)"
       style="font-size:21px;fill:#262626;stroke:#262626;font-family:LM Roman 10"
       id="g591">
      <path
         style="stroke:none"
         d="m -12.2031,6 c -0.7344,-0.0625 -2.5625,-0.0625 -3.4063,-0.0625 -0.8281,0 -2.6562,0 -3.3906,0.0625 l 0,-0.6562 0.6719,0 c 1.8906,0 1.9531,-0.25 1.9531,-1 l 0,-10.875 c -1.0938,0.5468 -2.3438,0.5468 -2.75,0.5468 l 0,-0.6562 c 0.6719,0 2.5156,0 3.8125,-1.3438 0.4844,0 0.4844,0.0469 0.4844,0.5469 l 0,11.7813 c 0,0.7812 0.0625,1 1.9531,1 l 0.6719,0 z m 11.3574,-6.7188 c 0,1.6563 -0.0938,3.2969 -0.7656,4.75 -0.9375,1.9844 -2.5313,2.4376 -3.6563,2.4376 -1.0312,0 -2.5625,-0.4219 -3.4687,-2.125 -0.8594,-1.5938 -0.9532,-3.4844 -0.9532,-5.0626 0,-1.6874 0.1094,-3.3124 0.7813,-4.7656 0.8594,-1.9531 2.3906,-2.5 3.6562,-2.5 0.875,0 2.6094,0.3282 3.5625,2.3438 0.75,1.5625 0.8438,3.2344 0.8438,4.9218 z m -1.7344,-0.25 c 0,-1.3281 0,-2.9218 -0.2187,-4.0937 -0.3907,-2.0781 -1.7813,-2.4687 -2.4688,-2.4687 -0.5312,0 -2.1094,0.2031 -2.5,2.6874 -0.1719,1.1407 -0.1719,2.5313 -0.1719,3.875 0,1.2344 0,3.1719 0.2344,4.4219 C -7.3301,5.4688 -6.0957,6 -5.2676,6 -4.3301,6 -3.127,5.375 -2.8145,3.375 -2.5801,2.0312 -2.5801,0.6094 -2.5801,-0.9688 z"
         id="path593"
         inkscape:connector-curvature="0" />
    </g>
    <g
       transform="translate(73.0667,140.4545)"
       style="font-size:21px;fill:#262626;stroke:#262626;font-family:LM Roman 10"
       id="g595">
      <path
         style="stroke:none"
         d="m -12.2031,6 c -0.7344,-0.0625 -2.5625,-0.0625 -3.4063,-0.0625 -0.8281,0 -2.6562,0 -3.3906,0.0625 l 0,-0.6562 0.6719,0 c 1.8906,0 1.9531,-0.25 1.9531,-1 l 0,-10.875 c -1.0938,0.5468 -2.3438,0.5468 -2.75,0.5468 l 0,-0.6562 c 0.6719,0 2.5156,0 3.8125,-1.3438 0.4844,0 0.4844,0.0469 0.4844,0.5469 l 0,11.7813 c 0,0.7812 0.0625,1 1.9531,1 l 0.6719,0 z m 10.498,0 C -2.4395,5.9375 -4.2676,5.9375 -5.1113,5.9375 c -0.8282,0 -2.6563,0 -3.3907,0.0625 l 0,-0.6562 0.6719,0 c 1.8906,0 1.9531,-0.25 1.9531,-1 l 0,-10.875 c -1.0937,0.5468 -2.3437,0.5468 -2.75,0.5468 l 0,-0.6562 c 0.6719,0 2.5157,0 3.8125,-1.3438 0.4844,0 0.4844,0.0469 0.4844,0.5469 l 0,11.7813 c 0,0.7812 0.0625,1 1.9531,1 l 0.6719,0 z"
         id="path597"
         inkscape:connector-curvature="0" />
    </g>
    <g
       transform="translate(73.0667,105.6364)"
       style="font-size:21px;fill:#262626;stroke:#262626;font-family:LM Roman 10"
       id="g599">
      <path
         style="stroke:none"
         d="m -12.2031,6 c -0.7344,-0.0625 -2.5625,-0.0625 -3.4063,-0.0625 -0.8281,0 -2.6562,0 -3.3906,0.0625 l 0,-0.6562 0.6719,0 c 1.8906,0 1.9531,-0.25 1.9531,-1 l 0,-10.875 c -1.0938,0.5468 -2.3438,0.5468 -2.75,0.5468 l 0,-0.6562 c 0.6719,0 2.5156,0 3.8125,-1.3438 0.4844,0 0.4844,0.0469 0.4844,0.5469 l 0,11.7813 c 0,0.7812 0.0625,1 1.9531,1 l 0.6719,0 z M -1.0801,2.3438 -1.6582,6 -9.4551,6 c 0,-0.5 0,-0.5469 0.2344,-0.7812 l 4.0312,-4.4844 c 1.1563,-1.3125 2.2032,-2.9688 2.2032,-4.6406 0,-1.7344 -0.9063,-3.4219 -2.8125,-3.4219 -1.2188,0 -2.3438,0.7656 -2.8282,2.1406 0.0625,-0.0313 0.0938,-0.0313 0.2657,-0.0313 0.7343,0 1.1093,0.5469 1.1093,1.0938 0,0.8594 -0.7343,1.1094 -1.0937,1.1094 -0.0625,0 -1.1094,0 -1.1094,-1.1719 0,-1.8594 1.5625,-3.7969 3.9375,-3.7969 2.5469,0 4.4375,1.6719 4.4375,4.0782 0,2.0937 -1.25,3.2343 -4.5312,6.125 l -2.2188,2.1718 3.7813,0 c 0.4531,0 1.8437,0 1.9843,-0.1718 0.2188,-0.3126 0.3594,-1.25 0.4688,-1.875 z"
         id="path601"
         inkscape:connector-curvature="0" />
    </g>
    <g
       transform="translate(73.0667,70.8182)"
       style="font-size:21px;fill:#262626;stroke:#262626;font-family:LM Roman 10"
       id="g603">
      <path
         style="stroke:none"
         d="m -12.2031,6 c -0.7344,-0.0625 -2.5625,-0.0625 -3.4063,-0.0625 -0.8281,0 -2.6562,0 -3.3906,0.0625 l 0,-0.6562 0.6719,0 c 1.8906,0 1.9531,-0.25 1.9531,-1 l 0,-10.875 c -1.0938,0.5468 -2.3438,0.5468 -2.75,0.5468 l 0,-0.6562 c 0.6719,0 2.5156,0 3.8125,-1.3438 0.4844,0 0.4844,0.0469 0.4844,0.5469 l 0,11.7813 c 0,0.7812 0.0625,1 1.9531,1 l 0.6719,0 z M -0.9082,2.4062 c 0,2.1407 -1.9063,4.0626 -4.4688,4.0626 -2.2968,0 -4.25,-1.3907 -4.25,-3.2969 0,-0.9375 0.6719,-1.2188 1.1875,-1.2188 0.6094,0 1.1719,0.4063 1.1719,1.1719 0,0.7969 -0.6562,1.2656 -1.3906,1.1562 0.7344,1.2344 2.3125,1.5938 3.2187,1.5938 0.9219,0 2.375,-0.6094 2.375,-3.4688 0,-2.0624 -0.7812,-3.4843 -2.5,-3.4843 l -0.9218,0 c -0.3594,0 -0.5157,0 -0.5157,-0.2344 0,-0.2031 0.1563,-0.2187 0.3282,-0.25 0.1406,0 0.6406,-0.0469 0.8125,-0.0625 0.5312,-0.0156 1.2343,-0.0781 1.875,-1.0938 0.5468,-0.9218 0.5781,-2.1406 0.5781,-2.3906 0,-1.8906 -1.1563,-2.3594 -2.0156,-2.3594 -0.75,0 -2.1407,0.2813 -2.7969,1.3126 0.3281,0 1.3125,0 1.3125,1.0468 0,0.6094 -0.4219,1.0782 -1.0781,1.0782 -0.6094,0 -1.0625,-0.4063 -1.0625,-1.0938 0,-1.5938 1.5937,-2.8594 3.7187,-2.8594 2.0156,0 3.8594,1.1719 3.8594,2.8906 0,1.6719 -1.2188,3.1407 -2.9375,3.7032 2.1875,0.4375 3.5,2.0781 3.5,3.7968 z"
         id="path605"
         inkscape:connector-curvature="0" />
    </g>
    <g
       transform="translate(73.0667,36)"
       style="font-size:21px;fill:#262626;stroke:#262626;font-family:LM Roman 10"
       id="g607">
      <path
         style="stroke:none"
         d="m -12.2031,6 c -0.7344,-0.0625 -2.5625,-0.0625 -3.4063,-0.0625 -0.8281,0 -2.6562,0 -3.3906,0.0625 l 0,-0.6562 0.6719,0 c 1.8906,0 1.9531,-0.25 1.9531,-1 l 0,-10.875 c -1.0938,0.5468 -2.3438,0.5468 -2.75,0.5468 l 0,-0.6562 c 0.6719,0 2.5156,0 3.8125,-1.3438 0.4844,0 0.4844,0.0469 0.4844,0.5469 l 0,11.7813 c 0,0.7812 0.0625,1 1.9531,1 l 0.6719,0 z m 11.5918,-3.4688 -2.0938,0 0,1.8282 c 0,0.7656 0.0313,0.9844 1.5938,0.9844 l 0.4375,0 0,0.6562 C -1.5332,5.9375 -2.6426,5.9375 -3.5332,5.9375 c -0.875,0 -1.9688,0 -2.8281,0.0625 l 0,-0.6562 0.4375,0 c 1.5468,0 1.5937,-0.2188 1.5937,-0.9844 l 0,-1.8282 -5.5781,0 0,-0.6406 6.4375,-9.8594 c 0.1719,-0.25 0.2344,-0.25 0.4219,-0.25 0.3437,0 0.3437,0.125 0.3437,0.5469 l 0,9.5625 2.0938,0 z m -3.5938,-0.6406 0,-7.8437 -5.125,7.8437 z"
         id="path609"
         inkscape:connector-curvature="0" />
    </g>
    <g
       transform="matrix(0,-1,1,0,48.0667,227.4998)"
       style="font-size:23px;fill:#262626;stroke:#262626;font-family:mwa_cmr10"
       id="g611">
      <path
         style="stroke:none"
         d="m -108.2796,-8.12 0,-5.375 q 0,-0.1718 0.2031,-0.1718 l 0.2813,0 q 0.0625,0 0.1172,0.0547 0.0546,0.0546 0.0546,0.1171 0,2.2657 1.3985,3.5079 1.3984,1.2421 3.664,1.2421 0.7969,0 1.4766,-0.4609 0.6797,-0.4609 1.0547,-1.2109 0.375,-0.75 0.375,-1.5469 0,-0.7031 -0.2813,-1.3594 -0.2812,-0.6562 -0.8125,-1.1328 -0.5312,-0.4766 -1.1875,-0.6484 l -2.9843,-0.7188 q -1.4844,-0.3906 -2.4219,-1.6094 -0.9375,-1.2187 -0.9375,-2.7343 0,-1.2032 0.6016,-2.2422 0.6015,-1.0391 1.6328,-1.6485 1.0312,-0.6093 2.2187,-0.6093 2.2969,0 3.6563,1.5625 l 0.9531,-1.5 q 0.0625,-0.0625 0.1562,-0.0625 l 0.1563,0 q 0.0625,0 0.125,0.0547 0.0625,0.0546 0.0625,0.1328 l 0,5.3437 q 0,0.2031 -0.1875,0.2031 l -0.2656,0 q -0.2188,0 -0.2188,-0.2031 0,-0.5937 -0.1953,-1.289 -0.1953,-0.6954 -0.5469,-1.336 -0.3515,-0.6406 -0.7578,-1.0469 -1.1094,-1.1093 -2.9375,-1.1093 -0.7812,0 -1.4453,0.3984 -0.6641,0.3984 -1.0547,1.0781 -0.3906,0.6797 -0.3906,1.4297 0,1 0.6094,1.7969 0.6093,0.7969 1.5937,1.0625 l 2.9844,0.7344 q 0.75,0.1718 1.4062,0.6406 0.6563,0.4687 1.0938,1.0859 0.4375,0.6172 0.6875,1.375 0.25,0.7578 0.25,1.5703 0,1.2344 -0.5781,2.3438 -0.5782,1.1094 -1.6172,1.7812 -1.0391,0.6719 -2.2735,0.6719 -0.7656,0 -1.5625,-0.164 -0.7968,-0.1641 -1.4687,-0.5157 -0.6719,-0.3515 -1.2188,-0.8984 l -0.9687,1.5156 q -0.0625,0.0625 -0.1719,0.0625 l -0.125,0 q -0.2031,0 -0.2031,-0.1719 z"
         id="path613"
         inkscape:connector-curvature="0" />
      <path
         style="stroke:none"
         d="m -91.4456,-8.4481 -2.9844,-8.3594 q -0.2031,-0.5156 -0.586,-0.6328 -0.3828,-0.1172 -1.1015,-0.1172 l 0,-0.8125 4.7344,0 0,0.8125 q -1.3594,0 -1.3594,0.5782 0.0156,0.0312 0.0156,0.0625 0,0.0312 0,0.1093 l 2.2188,6.1875 1.9062,-5.3906 -0.2969,-0.7969 q -0.1875,-0.5156 -0.5781,-0.6328 -0.3906,-0.1172 -1.1094,-0.1172 l 0,-0.8125 4.5313,0 0,0.8125 q -1.3594,0 -1.3594,0.5782 0,0.0781 0.0313,0.1718 l 2.2968,6.4688 2.0938,-5.8594 q 0.0469,-0.1719 0.0469,-0.3281 0,-0.4844 -0.4141,-0.7578 -0.4141,-0.2735 -0.9141,-0.2735 l 0,-0.8125 3.9063,0 0,0.8125 q -0.7031,0 -1.2031,0.3672 -0.5,0.3672 -0.7344,0.9922 l -2.7344,7.75 q -0.0781,0.2656 -0.3437,0.2656 l -0.1875,0 q -0.2657,0 -0.3438,-0.2656 l -2.3281,-6.5625 -2.3281,6.5625 q -0.1094,0.2656 -0.3594,0.2656 l -0.1563,0 q -0.2812,0 -0.3593,-0.2656 z"
         id="path615"
         inkscape:connector-curvature="0" />
      <path
         style="stroke:none"
         d="m -78.8881,-8.4481 0,-0.8125 q 0.7969,0 1.2969,-0.125 0.5,-0.125 0.5,-0.5937 l 0,-6.2813 q 0,-0.8906 -0.3438,-1.0937 -0.3437,-0.2032 -1.3437,-0.2032 l 0,-0.8125 3.3125,-0.2343 0,8.625 q 0,0.4687 0.4375,0.5937 0.4375,0.125 1.1718,0.125 l 0,0.8125 -5.0312,0 z m 0.9844,-14.1094 q 0,-0.5156 0.3828,-0.8984 0.3828,-0.3828 0.8672,-0.3828 0.3281,0 0.6328,0.1719 0.3047,0.1718 0.4765,0.4765 0.1719,0.3047 0.1719,0.6328 0,0.4844 -0.3828,0.8672 -0.3828,0.3828 -0.8984,0.3828 -0.4844,0 -0.8672,-0.3828 -0.3828,-0.3828 -0.3828,-0.8672 z"
         id="path617"
         inkscape:connector-curvature="0" />
      <path
         style="stroke:none"
         d="m -72.3852,-8.4481 0,-0.8125 q 0.7813,0 1.2891,-0.125 0.5078,-0.125 0.5078,-0.5937 l 0,-6.2813 q 0,-0.625 -0.1875,-0.8984 -0.1875,-0.2735 -0.5313,-0.336 -0.3437,-0.0625 -1.0781,-0.0625 l 0,-0.8125 3.3281,-0.2343 0,2.2343 q 0.4688,-0.9843 1.375,-1.6093 0.9063,-0.625 1.9688,-0.625 1.5937,0 2.3984,0.7578 0.8047,0.7578 0.8047,2.3359 l 0,5.5313 q 0,0.4687 0.5,0.5937 0.5,0.125 1.2969,0.125 l 0,0.8125 -5.2656,0 0,-0.8125 q 0.7812,0 1.289,-0.125 0.5078,-0.125 0.5078,-0.5937 l 0,-5.4688 q 0,-1.125 -0.3281,-1.8437 -0.3281,-0.7188 -1.3437,-0.7188 -1.3282,0 -2.1875,1.0625 -0.8594,1.0625 -0.8594,2.4219 l 0,4.5469 q 0,0.4687 0.5,0.5937 0.5,0.125 1.2812,0.125 l 0,0.8125 -5.2656,0 z"
         id="path619"
         inkscape:connector-curvature="0" />
      <path
         style="stroke:none"
         d="m -59.395,-6.6512 q 0,-0.8125 0.5938,-1.4297 0.5937,-0.6172 1.4218,-0.8672 -0.4687,-0.3594 -0.7109,-0.8828 -0.2422,-0.5234 -0.2422,-1.1172 0,-1.0781 0.6875,-1.9062 -1.0469,-1.0469 -1.0469,-2.375 0,-0.7188 0.3047,-1.3516 0.3047,-0.6328 0.8594,-1.0937 0.5547,-0.461 1.2266,-0.6954 0.6718,-0.2343 1.375,-0.2343 1.375,0 2.4531,0.7968 0.4844,-0.5156 1.125,-0.789 0.6406,-0.2735 1.3437,-0.2735 0.4844,0 0.8047,0.3516 0.3203,0.3516 0.3203,0.8516 0,0.2812 -0.2187,0.4922 -0.2188,0.2109 -0.5,0.2109 -0.2813,0 -0.5,-0.2109 -0.2188,-0.211 -0.2188,-0.4922 0,-0.4219 0.2813,-0.5938 -1.1875,0 -2.0313,0.8125 0.4063,0.4219 0.6641,1.0235 0.2578,0.6015 0.2578,1.1953 0,0.9687 -0.5391,1.75 -0.539,0.7812 -1.4218,1.2187 -0.8828,0.4375 -1.8203,0.4375 -1.25,0 -2.2969,-0.6875 -0.3281,0.4531 -0.3281,1 0,0.6094 0.3984,1.0703 0.3984,0.461 1.0078,0.461 l 1.875,0 q 1.375,0 2.4766,0.2422 1.1015,0.2421 1.8515,0.9843 0.75,0.7422 0.75,2.1016 0,1.0156 -0.8593,1.6797 -0.8594,0.664 -2.0391,0.9609 -1.1797,0.2969 -2.1953,0.2969 -1.0156,0 -2.211,-0.2969 -1.1953,-0.2969 -2.0468,-0.9609 -0.8516,-0.6641 -0.8516,-1.6797 z m 1.2969,0 q 0,0.7812 0.625,1.2969 0.625,0.5156 1.5156,0.7734 0.8906,0.2578 1.6719,0.2578 0.7812,0 1.664,-0.2578 0.8829,-0.2578 1.5079,-0.7734 0.625,-0.5157 0.625,-1.2969 0,-1.2031 -1.1016,-1.5547 -1.1016,-0.3516 -2.6797,-0.3516 l -1.875,0 q -0.5312,0 -0.9766,0.25 -0.4453,0.25 -0.7109,0.7032 -0.2656,0.4531 -0.2656,0.9531 z m 3.1719,-5.7969 q 1.9531,0 1.9531,-2.7812 0,-1.2032 -0.4141,-1.9844 -0.414,-0.7813 -1.539,-0.7813 -1.125,0 -1.5391,0.7813 -0.4141,0.7812 -0.4141,1.9844 0,0.7656 0.1563,1.3828 0.1562,0.6172 0.5859,1.0078 0.4297,0.3906 1.211,0.3906 z"
         id="path621"
         inkscape:connector-curvature="0" />
      <path
         style="stroke:none"
         d="m -48.0366,-12.6981 0,-1.4375 6.0781,0 0,1.4375 -6.0781,0 z"
         id="path623"
         inkscape:connector-curvature="0" />
      <path
         style="stroke:none"
         d="m -37.9957,-11.1825 0,-5.0781 q 0,-0.625 -0.1875,-0.8984 -0.1875,-0.2735 -0.5312,-0.336 -0.3438,-0.0625 -1.0781,-0.0625 l 0,-0.8125 3.4843,-0.2343 0,7.4218 q 0,0.8907 0.125,1.3907 0.125,0.5 0.5469,0.75 0.4219,0.25 1.3438,0.25 1.2343,0 1.9687,-1.0391 0.7344,-1.0391 0.7344,-2.3516 l 0,-4.0781 q 0,-0.625 -0.1953,-0.8984 -0.1953,-0.2735 -0.5391,-0.336 -0.3437,-0.0625 -1.0625,-0.0625 l 0,-0.8125 3.4688,-0.2343 0,8.0625 q 0,0.6093 0.1796,0.8828 0.1797,0.2734 0.5313,0.3359 0.3516,0.0625 1.0859,0.0625 l 0,0.8125 -3.4062,0.2656 0,-1.9531 q -0.4219,0.875 -1.1875,1.4141 -0.7656,0.539 -1.6875,0.539 -1.6563,0 -2.625,-0.7031 -0.9688,-0.7031 -0.9688,-2.2969 z"
         id="path625"
         inkscape:connector-curvature="0" />
      <path
         style="stroke:none"
         d="m -26.8492,-3.995 0,-0.7968 q 0.7812,0 1.2891,-0.1328 0.5078,-0.1329 0.5078,-0.6016 l 0,-11.0938 q 0,-0.625 -0.4453,-0.7812 -0.4454,-0.1563 -1.3516,-0.1563 l 0,-0.8125 3.4062,-0.2343 0,1.4218 q 0.625,-0.7031 1.461,-1.0625 0.8359,-0.3593 1.789,-0.3593 1.3594,0 2.4454,0.7343 1.0859,0.7344 1.6953,1.9297 0.6093,1.1953 0.6093,2.5235 0,1.3906 -0.6796,2.5937 -0.6797,1.2031 -1.8516,1.9219 -1.1719,0.7187 -2.5781,0.7187 -1.6719,0 -2.8282,-1.3593 l 0,4.0156 q 0,0.4687 0.5157,0.6016 0.5156,0.1328 1.2812,0.1328 l 0,0.7968 -5.2656,0 z m 3.4687,-6.6875 q 0.4063,0.8125 1.125,1.3516 0.7188,0.5391 1.5782,0.5391 0.7968,0 1.4062,-0.4297 0.6094,-0.4297 1.0235,-1.1485 0.414,-0.7187 0.6093,-1.5078 0.1953,-0.789 0.1953,-1.539 0,-0.9219 -0.3281,-1.9922 -0.3281,-1.0703 -1.0078,-1.8047 -0.6797,-0.7344 -1.6484,-0.7344 -0.9219,0 -1.7032,0.4766 -0.7812,0.4765 -1.25,1.289 l 0,5.5 z"
         id="path627"
         inkscape:connector-curvature="0" />
      <path
         style="stroke:none"
         d="m -2.693,-8.4481 0,-0.8125 q 1.1562,0 2.2421,-0.125 1.086,-0.125 1.086,-0.5937 l 0,-12.6407 q 0,-0.5 -0.2735,-0.6171 -0.2734,-0.1172 -0.8984,-0.1172 l -0.9531,0 q -1.9063,0 -2.7031,0.8281 -0.4063,0.4219 -0.586,1.3359 -0.1797,0.9141 -0.3047,2.3047 l -0.6718,0 0.4375,-5.2812 14.0468,0 0.4375,5.2812 -0.6718,0 Q 8.3695,-20.37 8.2054,-21.245 8.0413,-22.12 7.6195,-22.5262 6.807,-23.3543 4.9163,-23.3543 l -0.9687,0 q -0.4063,0 -0.6406,0.039 -0.2344,0.0391 -0.3829,0.1953 -0.1484,0.1563 -0.1484,0.5 l 0,12.6407 q 0,0.4687 1.0938,0.5937 1.0937,0.125 2.2343,0.125 l 0,0.8125 -8.7968,0 z"
         id="path629"
         inkscape:connector-curvature="0" />
      <path
         style="stroke:none"
         d="m 11.0676,-8.4481 0,-0.8125 q 0.7969,0 1.2969,-0.125 0.5,-0.125 0.5,-0.5937 l 0,-6.2813 q 0,-0.8906 -0.3438,-1.0937 -0.3437,-0.2032 -1.3437,-0.2032 l 0,-0.8125 3.3125,-0.2343 0,8.625 q 0,0.4687 0.4375,0.5937 0.4375,0.125 1.1719,0.125 l 0,0.8125 -5.0313,0 z m 0.9844,-14.1094 q 0,-0.5156 0.3828,-0.8984 0.3828,-0.3828 0.8672,-0.3828 0.3281,0 0.6328,0.1719 0.3047,0.1718 0.4766,0.4765 0.1718,0.3047 0.1718,0.6328 0,0.4844 -0.3828,0.8672 -0.3828,0.3828 -0.8984,0.3828 -0.4844,0 -0.8672,-0.3828 -0.3828,-0.3828 -0.3828,-0.8672 z"
         id="path631"
         inkscape:connector-curvature="0" />
      <path
         style="stroke:none"
         d="m 17.5705,-8.4481 0,-0.8125 q 0.7813,0 1.2891,-0.125 0.5078,-0.125 0.5078,-0.5937 l 0,-6.2813 q 0,-0.625 -0.1875,-0.8984 -0.1875,-0.2735 -0.5312,-0.336 -0.3438,-0.0625 -1.0782,-0.0625 l 0,-0.8125 3.3282,-0.2343 0,2.2343 q 0.4687,-0.9843 1.375,-1.6093 0.9062,-0.625 1.9687,-0.625 2.6406,0 3.1094,2.1562 0.4531,-0.9687 1.3437,-1.5625 0.8907,-0.5937 1.9375,-0.5937 1.0469,0 1.7657,0.3359 0.7187,0.3359 1.0781,1.0234 0.3594,0.6875 0.3594,1.7344 l 0,5.5313 q 0,0.4687 0.5078,0.5937 0.5078,0.125 1.289,0.125 l 0,0.8125 -5.2656,0 0,-0.8125 q 0.7813,0 1.2891,-0.125 0.5078,-0.125 0.5078,-0.5937 l 0,-5.4688 q 0,-1.1562 -0.3281,-1.8594 -0.3282,-0.7031 -1.3438,-0.7031 -1.3281,0 -2.1875,1.0625 -0.8594,1.0625 -0.8594,2.4219 l 0,4.5469 q 0,0.4687 0.5,0.5937 0.5,0.125 1.2969,0.125 l 0,0.8125 -5.2656,0 0,-0.8125 q 0.7812,0 1.289,-0.125 0.5079,-0.125 0.5079,-0.5937 l 0,-5.4688 q 0,-1.125 -0.3282,-1.8437 -0.3281,-0.7188 -1.3437,-0.7188 -1.3281,0 -2.1875,1.0625 -0.8594,1.0625 -0.8594,2.4219 l 0,4.5469 q 0,0.4687 0.5,0.5937 0.5,0.125 1.2813,0.125 l 0,0.8125 -5.2657,0 z"
         id="path633"
         inkscape:connector-curvature="0" />
      <path
         style="stroke:none"
         d="m 42.173,-8.1825 q -1.4062,0 -2.5781,-0.7421 -1.1719,-0.7422 -1.8438,-1.9688 -0.6718,-1.2266 -0.6718,-2.6016 0,-1.3437 0.6093,-2.5546 0.6094,-1.211 1.7032,-1.961 1.0937,-0.75 2.4531,-0.75 1.0469,0 1.8281,0.3516 0.7813,0.3515 1.2891,0.9844 0.5078,0.6328 0.7656,1.4843 0.2578,0.8516 0.2578,1.8828 0,0.2969 -0.2344,0.2969 l -6.6562,0 0,0.25 q 0,1.9063 0.7656,3.2735 0.7656,1.3671 2.5156,1.3671 0.7032,0 1.3047,-0.3125 0.6016,-0.3125 1.0391,-0.875 0.4375,-0.5625 0.6094,-1.2031 0.0156,-0.0781 0.0781,-0.1406 0.0625,-0.0625 0.1406,-0.0625 l 0.2031,0 q 0.2344,0 0.2344,0.2969 -0.3281,1.2968 -1.4062,2.1406 -1.0782,0.8437 -2.4063,0.8437 z m -3.0625,-6.1562 5.25,0 q 0,-0.8594 -0.2422,-1.75 -0.2422,-0.8906 -0.8047,-1.4766 -0.5625,-0.5859 -1.4687,-0.5859 -1.3125,0 -2.0234,1.2187 -0.711,1.2188 -0.711,2.5938 z"
         id="path635"
         inkscape:connector-curvature="0" />
      <path
         style="stroke:none"
         d="m 61.8155,-2.745 q -1.2813,-1.0156 -2.2031,-2.3203 -0.9219,-1.3047 -1.5157,-2.789 -0.5937,-1.4844 -0.8828,-3.1016 -0.289,-1.6172 -0.289,-3.2422 0,-1.6562 0.289,-3.2734 0.2891,-1.6172 0.8906,-3.1094 0.6016,-1.4922 1.5391,-2.7969 0.9375,-1.3047 2.1719,-2.2734 0,-0.0469 0.125,-0.0469 l 0.2031,0 q 0.0781,0 0.1328,0.0625 0.0547,0.0625 0.0547,0.1406 0,0.0938 -0.0469,0.1407 -1.125,1.1093 -1.875,2.3672 -0.75,1.2578 -1.2031,2.6796 -0.4531,1.4219 -0.6562,2.9375 -0.2032,1.5157 -0.2032,3.1719 0,7.3125 3.9063,11.1094 0.0781,0.0625 0.0781,0.1875 0,0.0625 -0.0625,0.1328 -0.0625,0.0703 -0.125,0.0703 l -0.2031,0 q -0.125,0 -0.125,-0.0469 z"
         id="path637"
         inkscape:connector-curvature="0" />
      <path
         style="stroke:none"
         d="m 64.5821,-8.3856 0,-3.75 q 0,-0.1719 0.2031,-0.1719 l 0.2812,0 q 0.125,0 0.1719,0.1719 0.6406,3.3438 3.1094,3.3438 1.0781,0 1.8203,-0.5 0.7422,-0.5 0.7422,-1.5313 0,-0.7344 -0.5781,-1.2578 -0.5782,-0.5234 -1.3594,-0.7109 l -1.5469,-0.3125 q -0.7656,-0.1563 -1.3984,-0.5078 -0.6328,-0.3516 -1.0391,-0.9297 -0.4062,-0.5782 -0.4062,-1.3438 0,-1.0156 0.5312,-1.6562 0.5313,-0.6407 1.3828,-0.9297 0.8516,-0.2891 1.8516,-0.2891 1.1719,0 2.0469,0.625 l 0.6718,-0.5625 q 0,-0.0625 0.1094,-0.0625 l 0.1719,0 q 0.0625,0 0.1172,0.0625 0.0547,0.0625 0.0547,0.125 l 0,3.0156 q 0,0.2188 -0.1719,0.2188 l -0.2813,0 q -0.2031,0 -0.2031,-0.2188 0,-1.2031 -0.6719,-1.9296 -0.6718,-0.7266 -1.875,-0.7266 -1.0312,0 -1.789,0.3828 -0.7578,0.3828 -0.7578,1.3047 0,0.6406 0.5468,1.0547 0.5469,0.414 1.2813,0.5859 l 1.5469,0.2969 q 0.7968,0.1719 1.4765,0.6016 0.6797,0.4296 1.0781,1.0781 0.3985,0.6484 0.3985,1.4765 0,0.8282 -0.2891,1.4375 -0.289,0.6094 -0.7969,1.0157 -0.5078,0.4062 -1.2031,0.6015 -0.6953,0.1953 -1.4609,0.1953 -1.4375,0 -2.4688,-0.9687 l -0.8437,0.9062 q 0,0.0625 -0.125,0.0625 l -0.125,0 q -0.2031,0 -0.2031,-0.2031 z"
         id="path639"
         inkscape:connector-curvature="0" />
      <path
         style="stroke:none"
         d="m 78.8071,-8.1825 q -1.4062,0 -2.5781,-0.7421 -1.1719,-0.7422 -1.8438,-1.9688 -0.6718,-1.2266 -0.6718,-2.6016 0,-1.3437 0.6093,-2.5546 0.6094,-1.211 1.7032,-1.961 1.0937,-0.75 2.4531,-0.75 1.0469,0 1.8281,0.3516 0.7813,0.3515 1.2891,0.9844 0.5078,0.6328 0.7656,1.4843 0.2578,0.8516 0.2578,1.8828 0,0.2969 -0.2344,0.2969 l -6.6562,0 0,0.25 q 0,1.9063 0.7656,3.2735 0.7656,1.3671 2.5156,1.3671 0.7032,0 1.3047,-0.3125 0.6016,-0.3125 1.0391,-0.875 0.4375,-0.5625 0.6094,-1.2031 0.0156,-0.0781 0.0781,-0.1406 0.0625,-0.0625 0.1406,-0.0625 l 0.2031,0 q 0.2344,0 0.2344,0.2969 -0.3281,1.2968 -1.4062,2.1406 -1.0782,0.8437 -2.4063,0.8437 z m -3.0625,-6.1562 5.25,0 q 0,-0.8594 -0.2422,-1.75 -0.2422,-0.8906 -0.8047,-1.4766 -0.5625,-0.5859 -1.4687,-0.5859 -1.3125,0 -2.0235,1.2187 -0.7109,1.2188 -0.7109,2.5938 z"
         id="path641"
         inkscape:connector-curvature="0" />
      <path
         style="stroke:none"
         d="m 89.2367,-8.1825 q -1.4062,0 -2.539,-0.7265 -1.1328,-0.7266 -1.7813,-1.9375 -0.6484,-1.211 -0.6484,-2.5703 0,-1.3594 0.6484,-2.6016 0.6485,-1.2422 1.7813,-1.9922 1.1328,-0.75 2.539,-0.75 1.3438,0 2.4453,0.5313 1.1016,0.5312 1.1016,1.7343 0,0.4375 -0.3203,0.7735 -0.3203,0.3359 -0.7734,0.3359 -0.4532,0 -0.7735,-0.3359 -0.3203,-0.336 -0.3203,-0.7735 0,-0.4062 0.2578,-0.7031 0.2578,-0.2969 0.6328,-0.375 -0.7968,-0.5156 -2.2343,-0.5156 -1.0938,0 -1.7735,0.7344 -0.6797,0.7343 -0.9453,1.8125 -0.2656,1.0781 -0.2656,2.125 0,1.1093 0.3281,2.1484 0.3281,1.0391 1.0625,1.7188 0.7344,0.6796 1.8594,0.6796 1.0781,0 1.8437,-0.664 0.7657,-0.6641 1.0469,-1.7422 0,-0.1406 0.1719,-0.1406 l 0.2812,0 q 0.0782,0 0.1328,0.0625 0.0547,0.0625 0.0547,0.1406 l 0,0.0625 q -0.3437,1.3594 -1.3828,2.1641 -1.039,0.8046 -2.4297,0.8046 z"
         id="path643"
         inkscape:connector-curvature="0" />
      <path
         style="stroke:none"
         d="m 95.8695,-9.7137 q 0,-0.5156 0.3828,-0.8906 0.3828,-0.375 0.8828,-0.375 0.3125,0 0.6172,0.1718 0.3047,0.1719 0.4687,0.4766 0.1641,0.3047 0.1641,0.6172 0,0.5 -0.3672,0.8828 -0.3672,0.3828 -0.8828,0.3828 -0.5,0 -0.8828,-0.3828 -0.3828,-0.3828 -0.3828,-0.8828 z"
         id="path645"
         inkscape:connector-curvature="0" />
      <path
         style="stroke:none"
         d="m 101.9505,-2.6981 q -0.2031,0 -0.2031,-0.2031 0,-0.0938 0.0469,-0.1406 3.9218,-3.8438 3.9218,-11.1563 0,-7.3125 -3.8906,-11.1094 -0.0781,-0.0468 -0.0781,-0.1875 0,-0.0781 0.0625,-0.1406 0.0625,-0.0625 0.1406,-0.0625 l 0.2031,0 q 0.0782,0 0.1094,0.0469 1.6563,1.2969 2.7578,3.1641 1.1016,1.8671 1.6094,3.9765 0.5078,2.1094 0.5078,4.3125 0,1.625 -0.2734,3.2031 -0.2735,1.5782 -0.875,3.1094 -0.6016,1.5313 -1.5235,2.8281 -0.9218,1.2969 -2.2031,2.3125 -0.0312,0.0469 -0.1094,0.0469 l -0.2031,0 z"
         id="path647"
         inkscape:connector-curvature="0" />
    </g>
    <g
       style="stroke-width:2.66669989;stroke-linecap:butt;stroke-linejoin:round"
       id="g649">
      <path
         d="m 368,39.1336 25.3571,24.3728 17.9912,110.7218 13.955,24.3727 11.4021,20.8909 9.6404,17.7573 8.3508,19.4982 7.366,19.4982 6.5891,23.3281 5.9605,4.5264 5.4416,1.3927 5.0057,4.5264 4.6346,2.7854 4.3147,0 4.0362,4.1782 3.7913,0 3.5746,11.1418 3.3813,8.3564 3.2078,0 0.0432,0.0395"
         style="fill:none"
         id="path651"
         inkscape:connector-curvature="0" />
      <path
         d="m 79.9568,303.7024 61.9336,59.5885 61.8874,27.8545 98.2886,-13.9272 49.9093,18.9324 57.5998,-6.1656 52.1974,1.1604 50.2271,5.04"
         style="fill:none;stroke:#0000ff"
         id="path653"
         inkscape:connector-curvature="0" />
    </g>
  </g>
  <path
     sodipodi:nodetypes="cc"
     inkscape:connector-curvature="0"
     id="path7872"
     d="m 178.03994,58.314113 c 19.50248,-16.648452 42.33461,-9.989086 42.33461,-9.989086"
     style="font-size:12px;font-style:normal;font-weight:normal;fill:none;stroke:#000000;stroke-width:0.9417786;stroke-linecap:butt;stroke-linejoin:miter;stroke-miterlimit:10;stroke-opacity:0.49787239;stroke-dasharray:none;stroke-dashoffset:0;font-family:Dialog" />
  <path
     sodipodi:nodetypes="cc"
     inkscape:connector-curvature="0"
     id="path7872-5"
     d="m 60.847612,184.95966 c 19.50248,-16.64842 41.858948,-14.27008 41.858948,-14.27008"
     style="font-size:12px;font-style:normal;font-weight:normal;fill:none;stroke:#000000;stroke-width:0.9417786;stroke-linecap:butt;stroke-linejoin:miter;stroke-miterlimit:10;stroke-opacity:0.49787239;stroke-dasharray:none;stroke-dashoffset:0;font-family:Dialog" />
  <text
     sodipodi:linespacing="125%"
     id="text7906"
     y="72.013474"
     x="157.56865"
     style="font-size:11.30134296px;font-style:normal;font-weight:normal;line-height:125%;letter-spacing:0px;word-spacing:0px;fill:#000000;fill-opacity:1;stroke:none;font-family:Latin Modern Roman;-inkscape-font-specification:Latin Modern Roman"
     xml:space="preserve"><tspan
       y="72.013474"
       x="157.56865"
       id="tspan7908"
       sodipodi:role="line">SST</tspan></text>
  <text
     sodipodi:linespacing="125%"
     id="text7906-0"
     y="174.60474"
     x="105.46526"
     style="font-size:11.30134296px;font-style:normal;font-weight:normal;line-height:125%;letter-spacing:0px;word-spacing:0px;fill:#000000;fill-opacity:1;stroke:none;font-family:Latin Modern Roman;-inkscape-font-specification:Latin Modern Roman"
     xml:space="preserve"><tspan
       y="174.60474"
       x="105.46526"
       id="tspan7908-6"
       sodipodi:role="line">GLC Method</tspan></text>
</svg>
