<?xml version="1.0" encoding="utf-8" standalone="no"?>
<!DOCTYPE svg PUBLIC "-//W3C//DTD SVG 1.1//EN"
  "http://www.w3.org/Graphics/SVG/1.1/DTD/svg11.dtd">
<!-- Created with matplotlib (http://matplotlib.org/) -->
<svg height="891pt" version="1.1" viewBox="0 0 1008 891" width="1008pt" xmlns="http://www.w3.org/2000/svg" xmlns:xlink="http://www.w3.org/1999/xlink">
 <defs>
  <style type="text/css">
*{stroke-linecap:butt;stroke-linejoin:round;stroke-miterlimit:100000;}
  </style>
 </defs>
 <g id="figure_1">
  <g id="patch_1">
   <path d="M 0 891 
L 1008 891 
L 1008 0 
L 0 0 
z
" style="fill:#ffffff;"/>
  </g>
  <g id="axes_1">
   <g id="patch_2">
    <path d="M 126 801.9 
L 907.2 801.9 
L 907.2 89.1 
L 126 89.1 
z
" style="fill:#ffffff;"/>
   </g>
   <g id="patch_3">
    <path clip-path="url(#p18bcb132f5)" d="M 126 694.98 
L 829.08 694.98 
L 829.08 659.34 
L 126 659.34 
z
" style="opacity:0.7;stroke:#000000;stroke-linejoin:miter;"/>
   </g>
   <g id="patch_4">
    <path clip-path="url(#p18bcb132f5)" d="M 204.12 552.42 
L 907.2 552.42 
L 907.2 516.78 
L 204.12 516.78 
z
" style="opacity:0.7;stroke:#000000;stroke-linejoin:miter;"/>
   </g>
   <g id="patch_5">
    <path clip-path="url(#p18bcb132f5)" d="M 126 374.22 
L 438.48 374.22 
L 438.48 89.1 
L 126 89.1 
z
" style="opacity:0.7;stroke:#000000;stroke-linejoin:miter;"/>
   </g>
   <g id="patch_6">
    <path clip-path="url(#p18bcb132f5)" d="M 594.72 374.22 
L 907.2 374.22 
L 907.2 89.1 
L 594.72 89.1 
z
" style="opacity:0.7;stroke:#000000;stroke-linejoin:miter;"/>
   </g>
   <g id="patch_7">
    <path clip-path="url(#p18bcb132f5)" d="M 497.07 124.74 
L 536.13 124.74 
L 536.13 89.1 
L 497.07 89.1 
z
" style="fill:#008000;stroke:#000000;stroke-linejoin:miter;"/>
   </g>
   <g id="line2d_1">
    <path clip-path="url(#p18bcb132f5)" d="M 516.6 801.1872 
L 516.6 797.74372 
L 516.78202 794.304261 
L 517.146059 790.876833 
L 517.691336 787.469435 
L 518.41629 784.090122 
L 519.318576 780.746591 
L 520.397413 777.446754 
L 521.649677 774.198311 
L 523.072242 771.008816 
L 524.661984 767.885683 
L 526.414997 764.836325 
L 528.327374 761.867726 
L 530.39443 758.986803 
L 532.612256 756.200396 
L 534.973824 753.514922 
L 537.476008 750.936653 
L 540.110995 748.471648 
L 542.873318 746.12561 
L 545.756728 743.904026 
L 548.754973 741.8121 
L 551.859462 739.85468 
L 555.064726 738.036399 
L 558.36139 736.36139 
L 565.165642 733.38096 
L 572.119103 730.703683 
L 579.206149 728.336189 
L 586.410376 726.283325 
L 593.714596 724.550508 
L 601.102404 723.141302 
L 608.555833 722.059985 
L 616.058478 721.307268 
L 623.59159 720.886716 
L 631.137982 720.798329 
L 638.680468 721.042819 
L 646.20108 721.619474 
L 736.367184 729.448157 
L 743.90967 729.691934 
L 751.456062 729.60426 
L 758.989174 729.182995 
L 766.491037 728.430991 
L 773.945248 727.349674 
L 781.332275 725.940468 
L 788.637276 724.207651 
L 795.841502 722.154787 
L 802.928549 719.786866 
L 809.88201 717.109589 
L 816.685481 714.129372 
L 819.982926 712.454292 
L 823.18819 710.635939 
L 826.292678 708.67859 
L 829.290143 706.586522 
L 832.174333 704.365438 
L 834.936656 702.0189 
L 837.571644 699.554038 
L 840.073046 696.97584 
L 842.435395 694.290722 
L 844.653222 691.504387 
L 846.720277 688.62325 
L 848.632655 685.654438 
L 850.385668 682.605079 
L 851.97541 679.482302 
L 853.397975 676.292522 
L 854.649457 673.044293 
L 855.728294 669.744029 
L 856.631362 666.400997 
L 857.356315 663.021612 
L 857.900812 659.613715 
L 858.264851 656.186573 
L 858.447652 652.747313 
L 858.447652 649.303776 
L 858.310942 645.862378 
L 858.037522 642.428107 
L 857.628173 639.004529 
L 857.082895 635.597345 
L 856.403251 632.210119 
L 855.589241 628.847842 
L 854.642426 625.514789 
L 853.563589 622.214525 
L 852.355073 618.952752 
L 851.016877 615.733034 
L 849.552908 612.558936 
L 847.963166 609.436159 
L 846.250776 606.367555 
L 844.4173 603.357401 
L 842.465862 600.409973 
L 840.398807 597.529548 
L 838.218478 594.718978 
L 835.927999 591.981826 
L 833.530496 589.322369 
L 831.028313 586.744171 
L 828.426136 584.250797 
L 825.72709 581.844384 
L 822.933518 579.528497 
L 820.050109 577.307412 
L 817.079987 575.182555 
L 814.027838 573.156778 
L 810.89757 571.233643 
L 807.693088 569.41529 
L 804.417516 567.70457 
L 801.077105 566.102196 
L 797.674979 564.612444 
L 794.215825 563.235314 
L 790.704331 561.973658 
L 787.145184 560.828902 
L 783.543071 559.801757 
L 779.901898 558.895075 
L 776.227914 558.10957 
L 772.525026 557.445953 
L 768.797921 556.904938 
L 765.051286 556.487237 
L 761.29137 556.194276 
L 757.52208 556.025342 
L 753.748103 555.981149 
L 749.975688 556.061695 
L 746.20796 556.266982 
L 738.699847 556.966951 
L 731.212045 557.833003 
L 723.749242 558.863712 
L 716.316124 560.058365 
L 708.916597 561.416962 
L 701.55535 562.937364 
L 694.236287 564.620285 
L 686.964096 566.463586 
L 679.742683 568.467266 
L 672.576736 570.628476 
L 665.469378 572.947927 
L 654.913022 576.679435 
L 493.274149 634.45829 
L 486.166792 636.777029 
L 479.000844 638.938951 
L 471.779431 640.941919 
L 464.50724 642.785933 
L 457.188178 644.468141 
L 449.82693 645.989256 
L 442.427404 647.34714 
L 434.994286 648.541793 
L 427.531482 649.572502 
L 420.04368 650.438554 
L 412.535567 651.139236 
L 405.010267 651.673836 
L 397.47325 652.043066 
L 389.929201 652.245502 
L 382.381247 652.281854 
L 374.834855 652.152125 
L 367.294712 651.8556 
L 359.763944 651.393706 
L 352.247238 650.765729 
L 344.750062 649.97167 
L 337.276321 649.012954 
L 329.829142 647.890294 
L 322.414772 646.60369 
L 315.036338 645.153854 
L 307.697746 643.541501 
L 300.404462 641.768767 
L 293.160395 639.834941 
L 285.969449 637.74216 
L 278.836312 635.49185 
L 271.764889 633.085438 
L 264.759088 630.522922 
L 257.822813 627.807154 
L 250.960752 624.939559 
L 244.17603 621.921564 
L 240.856711 620.282837 
L 237.604576 618.535764 
L 234.42431 616.682484 
L 231.319822 614.724422 
L 228.294234 612.665856 
L 225.353016 610.50821 
L 222.499292 608.25505 
L 219.736969 605.909225 
L 217.069171 603.473587 
L 214.499804 600.950988 
L 212.032775 598.344991 
L 209.670426 595.659874 
L 207.416664 592.897774 
L 205.273832 590.063681 
L 203.244665 587.159734 
L 201.332288 584.191634 
L 199.539043 581.161522 
L 197.867197 578.074385 
L 196.319093 574.933788 
L 194.896606 571.744721 
L 193.601689 568.510034 
L 192.43606 565.234718 
L 191.401205 561.923762 
L 190.498528 558.580018 
L 189.729124 555.208474 
L 189.094087 551.81412 
L 188.594197 548.401234 
L 188.230158 544.974091 
L 188.002438 541.536257 
L 187.91135 538.094146 
L 187.956894 534.650609 
L 188.139148 531.211349 
L 188.457877 527.77993 
L 188.912614 524.362054 
L 189.502732 520.960572 
L 190.227452 517.581187 
L 191.085912 514.228176 
L 192.076865 510.905815 
L 193.199136 507.617669 
L 194.451166 504.369439 
L 195.83139 501.16469 
L 197.337856 498.006986 
L 198.968767 494.90203 
L 200.72178 491.852671 
L 202.594785 488.863188 
L 206.65265 483.056719 
L 211.012528 477.435578 
L 215.665355 472.013309 
L 220.599414 466.802741 
L 225.803768 461.815279 
L 231.265919 457.063042 
L 236.973366 452.55672 
L 242.91283 448.307719 
L 249.069467 444.324593 
L 255.429997 440.618033 
L 261.979578 437.19588 
L 268.702585 434.066688 
L 275.526367 431.123537 
L 282.425926 428.331499 
L 289.397354 425.692714 
L 296.436748 423.207893 
L 303.540199 420.879175 
L 310.703022 418.707274 
L 317.920529 416.694326 
L 325.190376 414.841046 
L 332.506314 413.148146 
L 339.865218 411.617765 
L 347.262401 410.249189 
L 354.67677 408.962585 
L 362.055204 407.51275 
L 369.393797 405.901109 
L 376.68708 404.127662 
L 383.931148 402.194549 
L 391.122094 400.101768 
L 398.255231 397.851458 
L 405.326653 395.445046 
L 412.333236 392.88253 
L 419.26873 390.167474 
L 426.131572 387.299167 
L 432.915512 384.281172 
L 439.553369 381.00443 
L 446.010768 377.439005 
L 452.271305 373.593449 
L 458.320918 369.476316 
L 464.146326 365.096873 
L 469.732687 360.466524 
L 475.067502 355.595249 
L 480.138271 350.494452 
L 484.932496 345.176964 
L 489.440801 339.653477 
L 493.650688 333.938246 
L 497.592623 328.065487 
L 501.378318 322.107192 
L 505.004648 316.067638 
L 508.470833 309.949675 
L 511.772965 303.756869 
L 514.911046 297.493495 
L 517.881949 291.162406 
L 520.684895 284.76859 
L 523.317539 278.314186 
L 525.778319 271.80347 
L 528.066454 265.240721 
L 531.21469 255.317832 
L 553.982764 182.465395 
L 554.841302 179.112384 
L 555.520946 175.725158 
L 556.020914 172.312272 
L 556.339644 168.880853 
L 556.476354 165.439454 
L 556.431044 161.99663 
L 556.202934 158.559509 
L 555.793585 155.13593 
L 555.203779 151.735162 
L 554.434297 148.363618 
L 553.487483 145.030565 
L 552.36568 141.742418 
L 551.07045 138.508445 
L 549.6057 135.334346 
L 547.975336 132.22939 
L 546.1817 129.199277 
L 544.230263 126.251849 
L 542.124929 123.394234 
L 539.871167 120.632134 
L 537.473664 117.97339 
L 534.937889 115.422278 
L 532.270091 112.986641 
L 532.270091 112.986641 
" style="fill:none;stroke:#ff0000;stroke-linecap:square;"/>
   </g>
   <g id="patch_8">
    <path d="M 126 89.1 
L 907.2 89.1 
" style="fill:none;stroke:#000000;stroke-linecap:square;stroke-linejoin:miter;"/>
   </g>
   <g id="patch_9">
    <path d="M 907.2 801.9 
L 907.2 89.1 
" style="fill:none;stroke:#000000;stroke-linecap:square;stroke-linejoin:miter;"/>
   </g>
   <g id="patch_10">
    <path d="M 126 801.9 
L 907.2 801.9 
" style="fill:none;stroke:#000000;stroke-linecap:square;stroke-linejoin:miter;"/>
   </g>
   <g id="patch_11">
    <path d="M 126 801.9 
L 126 89.1 
" style="fill:none;stroke:#000000;stroke-linecap:square;stroke-linejoin:miter;"/>
   </g>
   <g id="matplotlib.axis_1">
    <g id="xtick_1">
     <g id="line2d_2">
      <defs>
       <path d="M 0 0 
L 0 -4 
" id="m3bea8d6342" style="stroke:#000000;stroke-width:0.5;"/>
      </defs>
      <g>
       <use style="stroke:#000000;stroke-width:0.5;" x="126.0" xlink:href="#m3bea8d6342" y="801.9"/>
      </g>
     </g>
     <g id="line2d_3">
      <defs>
       <path d="M 0 0 
L 0 4 
" id="m413ae29a83" style="stroke:#000000;stroke-width:0.5;"/>
      </defs>
      <g>
       <use style="stroke:#000000;stroke-width:0.5;" x="126.0" xlink:href="#m413ae29a83" y="89.1"/>
      </g>
     </g>
     <g id="text_1">
      <!-- 0 -->
      <defs>
       <path d="M 31.78125 66.40625 
Q 24.171875 66.40625 20.328125 58.90625 
Q 16.5 51.421875 16.5 36.375 
Q 16.5 21.390625 20.328125 13.890625 
Q 24.171875 6.390625 31.78125 6.390625 
Q 39.453125 6.390625 43.28125 13.890625 
Q 47.125 21.390625 47.125 36.375 
Q 47.125 51.421875 43.28125 58.90625 
Q 39.453125 66.40625 31.78125 66.40625 
M 31.78125 74.21875 
Q 44.046875 74.21875 50.515625 64.515625 
Q 56.984375 54.828125 56.984375 36.375 
Q 56.984375 17.96875 50.515625 8.265625 
Q 44.046875 -1.421875 31.78125 -1.421875 
Q 19.53125 -1.421875 13.0625 8.265625 
Q 6.59375 17.96875 6.59375 36.375 
Q 6.59375 54.828125 13.0625 64.515625 
Q 19.53125 74.21875 31.78125 74.21875 
" id="BitstreamVeraSans-Roman-30"/>
      </defs>
      <g transform="translate(122.1825 815.018125)scale(0.12 -0.12)">
       <use xlink:href="#BitstreamVeraSans-Roman-30"/>
      </g>
     </g>
    </g>
    <g id="xtick_2">
     <g id="line2d_4">
      <g>
       <use style="stroke:#000000;stroke-width:0.5;" x="282.24" xlink:href="#m3bea8d6342" y="801.9"/>
      </g>
     </g>
     <g id="line2d_5">
      <g>
       <use style="stroke:#000000;stroke-width:0.5;" x="282.24" xlink:href="#m413ae29a83" y="89.1"/>
      </g>
     </g>
     <g id="text_2">
      <!-- 2 -->
      <defs>
       <path d="M 19.1875 8.296875 
L 53.609375 8.296875 
L 53.609375 0 
L 7.328125 0 
L 7.328125 8.296875 
Q 12.9375 14.109375 22.625 23.890625 
Q 32.328125 33.6875 34.8125 36.53125 
Q 39.546875 41.84375 41.421875 45.53125 
Q 43.3125 49.21875 43.3125 52.78125 
Q 43.3125 58.59375 39.234375 62.25 
Q 35.15625 65.921875 28.609375 65.921875 
Q 23.96875 65.921875 18.8125 64.3125 
Q 13.671875 62.703125 7.8125 59.421875 
L 7.8125 69.390625 
Q 13.765625 71.78125 18.9375 73 
Q 24.125 74.21875 28.421875 74.21875 
Q 39.75 74.21875 46.484375 68.546875 
Q 53.21875 62.890625 53.21875 53.421875 
Q 53.21875 48.921875 51.53125 44.890625 
Q 49.859375 40.875 45.40625 35.40625 
Q 44.1875 33.984375 37.640625 27.21875 
Q 31.109375 20.453125 19.1875 8.296875 
" id="BitstreamVeraSans-Roman-32"/>
      </defs>
      <g transform="translate(278.4225 815.018125)scale(0.12 -0.12)">
       <use xlink:href="#BitstreamVeraSans-Roman-32"/>
      </g>
     </g>
    </g>
    <g id="xtick_3">
     <g id="line2d_6">
      <g>
       <use style="stroke:#000000;stroke-width:0.5;" x="438.48" xlink:href="#m3bea8d6342" y="801.9"/>
      </g>
     </g>
     <g id="line2d_7">
      <g>
       <use style="stroke:#000000;stroke-width:0.5;" x="438.48" xlink:href="#m413ae29a83" y="89.1"/>
      </g>
     </g>
     <g id="text_3">
      <!-- 4 -->
      <defs>
       <path d="M 37.796875 64.3125 
L 12.890625 25.390625 
L 37.796875 25.390625 
z
M 35.203125 72.90625 
L 47.609375 72.90625 
L 47.609375 25.390625 
L 58.015625 25.390625 
L 58.015625 17.1875 
L 47.609375 17.1875 
L 47.609375 0 
L 37.796875 0 
L 37.796875 17.1875 
L 4.890625 17.1875 
L 4.890625 26.703125 
z
" id="BitstreamVeraSans-Roman-34"/>
      </defs>
      <g transform="translate(434.6625 815.018125)scale(0.12 -0.12)">
       <use xlink:href="#BitstreamVeraSans-Roman-34"/>
      </g>
     </g>
    </g>
    <g id="xtick_4">
     <g id="line2d_8">
      <g>
       <use style="stroke:#000000;stroke-width:0.5;" x="594.72" xlink:href="#m3bea8d6342" y="801.9"/>
      </g>
     </g>
     <g id="line2d_9">
      <g>
       <use style="stroke:#000000;stroke-width:0.5;" x="594.72" xlink:href="#m413ae29a83" y="89.1"/>
      </g>
     </g>
     <g id="text_4">
      <!-- 6 -->
      <defs>
       <path d="M 33.015625 40.375 
Q 26.375 40.375 22.484375 35.828125 
Q 18.609375 31.296875 18.609375 23.390625 
Q 18.609375 15.53125 22.484375 10.953125 
Q 26.375 6.390625 33.015625 6.390625 
Q 39.65625 6.390625 43.53125 10.953125 
Q 47.40625 15.53125 47.40625 23.390625 
Q 47.40625 31.296875 43.53125 35.828125 
Q 39.65625 40.375 33.015625 40.375 
M 52.59375 71.296875 
L 52.59375 62.3125 
Q 48.875 64.0625 45.09375 64.984375 
Q 41.3125 65.921875 37.59375 65.921875 
Q 27.828125 65.921875 22.671875 59.328125 
Q 17.53125 52.734375 16.796875 39.40625 
Q 19.671875 43.65625 24.015625 45.921875 
Q 28.375 48.1875 33.59375 48.1875 
Q 44.578125 48.1875 50.953125 41.515625 
Q 57.328125 34.859375 57.328125 23.390625 
Q 57.328125 12.15625 50.6875 5.359375 
Q 44.046875 -1.421875 33.015625 -1.421875 
Q 20.359375 -1.421875 13.671875 8.265625 
Q 6.984375 17.96875 6.984375 36.375 
Q 6.984375 53.65625 15.1875 63.9375 
Q 23.390625 74.21875 37.203125 74.21875 
Q 40.921875 74.21875 44.703125 73.484375 
Q 48.484375 72.75 52.59375 71.296875 
" id="BitstreamVeraSans-Roman-36"/>
      </defs>
      <g transform="translate(590.9025 815.018125)scale(0.12 -0.12)">
       <use xlink:href="#BitstreamVeraSans-Roman-36"/>
      </g>
     </g>
    </g>
    <g id="xtick_5">
     <g id="line2d_10">
      <g>
       <use style="stroke:#000000;stroke-width:0.5;" x="750.96" xlink:href="#m3bea8d6342" y="801.9"/>
      </g>
     </g>
     <g id="line2d_11">
      <g>
       <use style="stroke:#000000;stroke-width:0.5;" x="750.96" xlink:href="#m413ae29a83" y="89.1"/>
      </g>
     </g>
     <g id="text_5">
      <!-- 8 -->
      <defs>
       <path d="M 31.78125 34.625 
Q 24.75 34.625 20.71875 30.859375 
Q 16.703125 27.09375 16.703125 20.515625 
Q 16.703125 13.921875 20.71875 10.15625 
Q 24.75 6.390625 31.78125 6.390625 
Q 38.8125 6.390625 42.859375 10.171875 
Q 46.921875 13.96875 46.921875 20.515625 
Q 46.921875 27.09375 42.890625 30.859375 
Q 38.875 34.625 31.78125 34.625 
M 21.921875 38.8125 
Q 15.578125 40.375 12.03125 44.71875 
Q 8.5 49.078125 8.5 55.328125 
Q 8.5 64.0625 14.71875 69.140625 
Q 20.953125 74.21875 31.78125 74.21875 
Q 42.671875 74.21875 48.875 69.140625 
Q 55.078125 64.0625 55.078125 55.328125 
Q 55.078125 49.078125 51.53125 44.71875 
Q 48 40.375 41.703125 38.8125 
Q 48.828125 37.15625 52.796875 32.3125 
Q 56.78125 27.484375 56.78125 20.515625 
Q 56.78125 9.90625 50.3125 4.234375 
Q 43.84375 -1.421875 31.78125 -1.421875 
Q 19.734375 -1.421875 13.25 4.234375 
Q 6.78125 9.90625 6.78125 20.515625 
Q 6.78125 27.484375 10.78125 32.3125 
Q 14.796875 37.15625 21.921875 38.8125 
M 18.3125 54.390625 
Q 18.3125 48.734375 21.84375 45.5625 
Q 25.390625 42.390625 31.78125 42.390625 
Q 38.140625 42.390625 41.71875 45.5625 
Q 45.3125 48.734375 45.3125 54.390625 
Q 45.3125 60.0625 41.71875 63.234375 
Q 38.140625 66.40625 31.78125 66.40625 
Q 25.390625 66.40625 21.84375 63.234375 
Q 18.3125 60.0625 18.3125 54.390625 
" id="BitstreamVeraSans-Roman-38"/>
      </defs>
      <g transform="translate(747.1425 815.018125)scale(0.12 -0.12)">
       <use xlink:href="#BitstreamVeraSans-Roman-38"/>
      </g>
     </g>
    </g>
    <g id="xtick_6">
     <g id="line2d_12">
      <g>
       <use style="stroke:#000000;stroke-width:0.5;" x="907.2" xlink:href="#m3bea8d6342" y="801.9"/>
      </g>
     </g>
     <g id="line2d_13">
      <g>
       <use style="stroke:#000000;stroke-width:0.5;" x="907.2" xlink:href="#m413ae29a83" y="89.1"/>
      </g>
     </g>
     <g id="text_6">
      <!-- 10 -->
      <defs>
       <path d="M 12.40625 8.296875 
L 28.515625 8.296875 
L 28.515625 63.921875 
L 10.984375 60.40625 
L 10.984375 69.390625 
L 28.421875 72.90625 
L 38.28125 72.90625 
L 38.28125 8.296875 
L 54.390625 8.296875 
L 54.390625 0 
L 12.40625 0 
z
" id="BitstreamVeraSans-Roman-31"/>
      </defs>
      <g transform="translate(899.565 815.018125)scale(0.12 -0.12)">
       <use xlink:href="#BitstreamVeraSans-Roman-31"/>
       <use x="63.623046875" xlink:href="#BitstreamVeraSans-Roman-30"/>
      </g>
     </g>
    </g>
   </g>
   <g id="matplotlib.axis_2">
    <g id="ytick_1">
     <g id="line2d_14">
      <defs>
       <path d="M 0 0 
L 4 0 
" id="m38a47f8534" style="stroke:#000000;stroke-width:0.5;"/>
      </defs>
      <g>
       <use style="stroke:#000000;stroke-width:0.5;" x="126.0" xlink:href="#m38a47f8534" y="801.9"/>
      </g>
     </g>
     <g id="line2d_15">
      <defs>
       <path d="M 0 0 
L -4 0 
" id="mc27f047a17" style="stroke:#000000;stroke-width:0.5;"/>
      </defs>
      <g>
       <use style="stroke:#000000;stroke-width:0.5;" x="907.2" xlink:href="#mc27f047a17" y="801.9"/>
      </g>
     </g>
     <g id="text_7">
      <!-- 0 -->
      <g transform="translate(114.365 805.21125)scale(0.12 -0.12)">
       <use xlink:href="#BitstreamVeraSans-Roman-30"/>
      </g>
     </g>
    </g>
    <g id="ytick_2">
     <g id="line2d_16">
      <g>
       <use style="stroke:#000000;stroke-width:0.5;" x="126.0" xlink:href="#m38a47f8534" y="659.34"/>
      </g>
     </g>
     <g id="line2d_17">
      <g>
       <use style="stroke:#000000;stroke-width:0.5;" x="907.2" xlink:href="#mc27f047a17" y="659.34"/>
      </g>
     </g>
     <g id="text_8">
      <!-- 2 -->
      <g transform="translate(114.365 662.65125)scale(0.12 -0.12)">
       <use xlink:href="#BitstreamVeraSans-Roman-32"/>
      </g>
     </g>
    </g>
    <g id="ytick_3">
     <g id="line2d_18">
      <g>
       <use style="stroke:#000000;stroke-width:0.5;" x="126.0" xlink:href="#m38a47f8534" y="516.78"/>
      </g>
     </g>
     <g id="line2d_19">
      <g>
       <use style="stroke:#000000;stroke-width:0.5;" x="907.2" xlink:href="#mc27f047a17" y="516.78"/>
      </g>
     </g>
     <g id="text_9">
      <!-- 4 -->
      <g transform="translate(114.365 520.09125)scale(0.12 -0.12)">
       <use xlink:href="#BitstreamVeraSans-Roman-34"/>
      </g>
     </g>
    </g>
    <g id="ytick_4">
     <g id="line2d_20">
      <g>
       <use style="stroke:#000000;stroke-width:0.5;" x="126.0" xlink:href="#m38a47f8534" y="374.22"/>
      </g>
     </g>
     <g id="line2d_21">
      <g>
       <use style="stroke:#000000;stroke-width:0.5;" x="907.2" xlink:href="#mc27f047a17" y="374.22"/>
      </g>
     </g>
     <g id="text_10">
      <!-- 6 -->
      <g transform="translate(114.365 377.53125)scale(0.12 -0.12)">
       <use xlink:href="#BitstreamVeraSans-Roman-36"/>
      </g>
     </g>
    </g>
    <g id="ytick_5">
     <g id="line2d_22">
      <g>
       <use style="stroke:#000000;stroke-width:0.5;" x="126.0" xlink:href="#m38a47f8534" y="231.66"/>
      </g>
     </g>
     <g id="line2d_23">
      <g>
       <use style="stroke:#000000;stroke-width:0.5;" x="907.2" xlink:href="#mc27f047a17" y="231.66"/>
      </g>
     </g>
     <g id="text_11">
      <!-- 8 -->
      <g transform="translate(114.365 234.97125)scale(0.12 -0.12)">
       <use xlink:href="#BitstreamVeraSans-Roman-38"/>
      </g>
     </g>
    </g>
    <g id="ytick_6">
     <g id="line2d_24">
      <g>
       <use style="stroke:#000000;stroke-width:0.5;" x="126.0" xlink:href="#m38a47f8534" y="89.1"/>
      </g>
     </g>
     <g id="line2d_25">
      <g>
       <use style="stroke:#000000;stroke-width:0.5;" x="907.2" xlink:href="#mc27f047a17" y="89.1"/>
      </g>
     </g>
     <g id="text_12">
      <!-- 10 -->
      <g transform="translate(106.73 92.41125)scale(0.12 -0.12)">
       <use xlink:href="#BitstreamVeraSans-Roman-31"/>
       <use x="63.623046875" xlink:href="#BitstreamVeraSans-Roman-30"/>
      </g>
     </g>
    </g>
   </g>
  </g>
 </g>
 <defs>
  <clipPath id="p18bcb132f5">
   <rect height="712.8" width="781.2" x="126.0" y="89.1"/>
  </clipPath>
 </defs>
</svg>
