<?xml version="1.0" encoding="utf-8" standalone="no"?>
<!DOCTYPE svg PUBLIC "-//W3C//DTD SVG 1.1//EN"
  "http://www.w3.org/Graphics/SVG/1.1/DTD/svg11.dtd">
<!-- Created with matplotlib (http://matplotlib.org/) -->
<svg height="891pt" version="1.1" viewBox="0 0 1008 891" width="1008pt" xmlns="http://www.w3.org/2000/svg" xmlns:xlink="http://www.w3.org/1999/xlink">
 <defs>
  <style type="text/css">
*{stroke-linecap:butt;stroke-linejoin:round;stroke-miterlimit:100000;}
  </style>
 </defs>
 <g id="figure_1">
  <g id="patch_1">
   <path d="M 0 891 
L 1008 891 
L 1008 0 
L 0 0 
z
" style="fill:#ffffff;"/>
  </g>
  <g id="axes_1">
   <g id="patch_2">
    <path d="M 126 801.9 
L 907.2 801.9 
L 907.2 89.1 
L 126 89.1 
z
" style="fill:#ffffff;"/>
   </g>
   <g id="patch_3">
    <path clip-path="url(#pdf7608f62d)" d="M 126 694.98 
L 829.08 694.98 
L 829.08 659.34 
L 126 659.34 
z
" style="opacity:0.7;stroke:#000000;stroke-linejoin:miter;"/>
   </g>
   <g id="patch_4">
    <path clip-path="url(#pdf7608f62d)" d="M 204.12 552.42 
L 907.2 552.42 
L 907.2 516.78 
L 204.12 516.78 
z
" style="opacity:0.7;stroke:#000000;stroke-linejoin:miter;"/>
   </g>
   <g id="patch_5">
    <path clip-path="url(#pdf7608f62d)" d="M 126 374.22 
L 438.48 374.22 
L 438.48 89.1 
L 126 89.1 
z
" style="opacity:0.7;stroke:#000000;stroke-linejoin:miter;"/>
   </g>
   <g id="patch_6">
    <path clip-path="url(#pdf7608f62d)" d="M 594.72 374.22 
L 907.2 374.22 
L 907.2 89.1 
L 594.72 89.1 
z
" style="opacity:0.7;stroke:#000000;stroke-linejoin:miter;"/>
   </g>
   <g id="patch_7">
    <path clip-path="url(#pdf7608f62d)" d="M 497.07 124.74 
L 536.13 124.74 
L 536.13 89.1 
L 497.07 89.1 
z
" style="fill:#008000;stroke:#000000;stroke-linejoin:miter;"/>
   </g>
   <g id="line2d_1">
    <path clip-path="url(#pdf7608f62d)" d="M 516.6 801.1872 
L 516.6 797.693083 
L 516.787488 794.203186 
L 517.162464 790.725791 
L 517.723366 787.269424 
L 518.469412 783.842281 
L 519.39904 780.452561 
L 520.509125 777.108531 
L 521.797324 773.818104 
L 523.261292 770.589262 
L 524.896344 767.429705 
L 526.699354 764.347059 
L 528.665634 761.348737 
L 530.790498 758.441867 
L 533.069258 755.633578 
L 535.495666 752.930497 
L 538.064251 750.339184 
L 540.769547 747.865768 
L 543.60374 745.516308 
L 546.560582 743.296364 
L 549.633823 741.211353 
L 552.81487 739.266193 
L 556.096691 737.46566 
L 559.471475 735.81396 
L 562.930628 734.315084 
L 566.46634 732.972739 
L 570.069234 731.790061 
L 573.732281 730.769902 
L 577.444543 729.915041 
L 581.19899 729.226476 
L 584.986248 728.706845 
L 588.79616 728.357573 
L 592.620916 728.17866 
L 596.450358 728.171532 
L 600.275113 728.334763 
L 611.699382 729.440316 
L 623.082247 730.852373 
L 634.415116 732.568938 
L 645.687832 734.588799 
L 656.89024 736.910317 
L 668.012965 739.531426 
L 679.046634 742.449843 
L 689.981872 745.663074 
L 700.807741 749.168339 
L 711.517212 752.962573 
L 722.098566 757.042498 
L 732.63461 761.216156 
L 736.255472 762.352217 
L 739.933362 763.325117 
L 743.659686 764.132292 
L 747.424289 764.77203 
L 751.218577 765.242621 
L 755.033958 765.542994 
L 758.861057 765.672439 
L 762.689718 765.630598 
L 766.51213 765.417613 
L 770.318136 765.034055 
L 774.099925 764.480709 
L 777.84656 763.758999 
L 781.55023 762.870636 
L 785.201558 761.81783 
L 788.791954 760.602934 
L 792.312822 759.229012 
L 795.75557 757.699272 
L 799.112387 756.017492 
L 802.374678 754.187663 
L 805.534632 752.214133 
L 808.585218 750.101751 
L 811.518624 747.855433 
L 814.327819 745.48074 
L 817.005773 742.983302 
L 819.546235 740.369108 
L 821.943738 737.64443 
L 824.192032 734.815897 
L 826.285648 731.89021 
L 828.219899 728.874353 
L 829.989317 725.775811 
L 831.590777 722.601713 
L 833.019592 719.359898 
L 834.272636 716.058209 
L 835.418657 712.724443 
L 837.385718 705.971376 
L 838.205197 702.557777 
L 838.914527 699.124219 
L 839.512926 695.673554 
L 839.999614 692.207208 
L 840.37459 688.73017 
L 840.637073 685.243865 
L 840.787063 681.75257 
L 840.824561 678.259138 
L 840.749566 674.765705 
L 840.562078 671.275123 
L 840.262097 667.792382 
L 839.849623 664.318195 
L 839.326219 660.856838 
L 838.690322 657.411163 
L 837.944276 653.984021 
L 837.088081 650.578262 
L 835.049149 643.843728 
L 833.867194 640.519942 
L 832.578995 637.229657 
L 829.686992 630.759571 
L 826.382516 624.455568 
L 822.678847 618.339744 
L 818.586922 612.433483 
L 814.121582 606.756744 
L 809.297672 601.329485 
L 804.133159 596.170238 
L 798.644448 591.297538 
L 792.85185 586.727064 
L 786.774895 582.475212 
L 780.433895 578.55695 
L 773.852285 574.985822 
L 767.051158 571.773233 
L 760.055512 568.931299 
L 752.888002 566.470001 
L 745.575188 564.397178 
L 738.140508 562.71996 
L 730.611302 561.444761 
L 723.01257 560.575145 
L 715.371653 560.115389 
L 707.713549 560.065493 
L 700.066382 560.426882 
L 688.642114 561.532435 
L 677.259248 562.944492 
L 665.92638 564.660914 
L 654.653664 566.680277 
L 643.451256 569.001866 
L 632.327749 571.622832 
L 621.29408 574.541035 
L 610.359624 577.754338 
L 599.532973 581.259175 
L 588.824284 585.05341 
L 578.242148 589.133477 
L 560.72452 596.184494 
L 550.057234 600.074244 
L 539.268862 603.676022 
L 528.368778 606.986978 
L 517.367138 610.003548 
L 506.273317 612.724306 
L 495.095908 615.145687 
L 483.845846 617.266267 
L 472.531727 619.083907 
L 461.164486 620.597182 
L 449.752716 621.804665 
L 438.307355 622.705644 
L 426.837776 623.299406 
L 415.354136 623.584526 
L 403.86659 623.561717 
L 392.384513 623.230978 
L 380.918059 622.591596 
L 369.477385 621.64571 
L 358.071865 620.392608 
L 346.711655 618.834427 
L 335.406128 616.971168 
L 324.166223 614.806394 
L 313.000531 612.340106 
L 301.919209 609.575868 
L 290.932412 606.515818 
L 280.048734 603.161381 
L 269.277548 599.516834 
L 258.62823 595.58503 
L 248.110934 591.368818 
L 237.733474 586.872475 
L 227.506003 582.099566 
L 217.436335 577.054368 
L 207.533844 571.740444 
L 197.806498 566.16421 
L 194.689432 564.134155 
L 191.685093 561.967956 
L 188.800746 559.669176 
L 186.043266 557.244943 
L 183.419294 554.699534 
L 180.935156 552.04079 
L 178.59679 549.273701 
L 176.40982 546.405394 
L 174.37956 543.442997 
L 172.510773 540.392926 
L 170.80807 537.263021 
L 169.275433 534.061123 
L 167.916614 530.794361 
L 166.734893 527.470574 
L 165.733082 524.098318 
L 164.913525 520.685431 
L 164.278253 517.239756 
L 163.828829 513.769846 
L 163.566189 510.283541 
L 163.491194 506.790108 
L 163.603765 503.297388 
L 163.903902 499.813934 
L 164.390668 496.348301 
L 165.062969 492.908328 
L 165.919164 489.503282 
L 166.957222 486.139579 
L 168.174644 482.827198 
L 169.56854 479.572553 
L 171.135549 476.384198 
L 172.871844 473.269975 
L 174.773363 470.237011 
L 176.835418 467.292434 
L 179.053089 464.444086 
L 183.876608 459.016826 
L 189.041434 453.85758 
L 194.529754 448.984879 
L 200.322587 444.414406 
L 206.399542 440.162554 
L 212.740542 436.244292 
L 219.322933 432.673164 
L 226.123279 429.461287 
L 233.119706 426.619354 
L 240.286435 424.158055 
L 247.60003 422.085233 
L 255.033929 420.408014 
L 262.563916 419.132815 
L 270.161867 418.263912 
L 277.803565 417.803443 
L 285.460888 417.75426 
L 293.108836 418.11565 
L 304.554197 419.016629 
L 316.023775 419.610391 
L 327.507415 419.896224 
L 338.994961 419.873414 
L 350.477039 419.542675 
L 361.943492 418.903294 
L 373.384948 417.957408 
L 384.790468 416.704306 
L 396.150678 415.146125 
L 407.455423 413.283578 
L 418.69611 411.118805 
L 426.147977 409.507877 
L 433.504537 407.56621 
L 440.723606 405.233928 
L 447.779405 402.517447 
L 454.647715 399.427459 
L 461.305102 395.974656 
L 467.728909 392.170442 
L 473.896483 388.028362 
L 479.78595 383.56267 
L 485.378561 378.789048 
L 490.653223 373.723178 
L 495.59197 368.383594 
L 500.179176 362.788114 
L 504.396875 356.955984 
L 508.231786 350.907876 
L 510.001985 347.809334 
L 513.237715 341.476106 
L 514.701684 338.247122 
L 517.313236 331.67867 
L 520.858321 321.708024 
L 523.042556 315.010555 
L 525.083051 308.274595 
L 526.977461 301.503708 
L 528.726568 294.700032 
L 530.328809 287.867131 
L 531.784184 281.005718 
L 533.091913 274.120783 
L 534.251214 267.213038 
L 535.262087 260.286048 
L 536.12375 253.34195 
L 536.836205 246.38431 
L 537.398669 239.415264 
L 537.811924 232.436952 
L 538.074407 225.452938 
L 538.1869 218.465359 
L 538.149402 211.477781 
L 537.961914 204.491628 
L 537.624436 197.509752 
L 537.136186 190.53643 
L 536.499508 183.572374 
L 535.712058 176.621148 
L 534.77618 169.685604 
L 533.691094 162.76788 
L 532.457579 155.870827 
L 530.330371 145.570154 
L 527.871154 135.330782 
L 526.049395 128.543501 
L 524.082334 121.789721 
L 521.969969 115.072294 
L 519.713863 108.394783 
L 517.314798 101.757902 
L 517.314798 101.757902 
" style="fill:none;stroke:#ff0000;stroke-linecap:square;"/>
   </g>
   <g id="patch_8">
    <path d="M 126 89.1 
L 907.2 89.1 
" style="fill:none;stroke:#000000;stroke-linecap:square;stroke-linejoin:miter;"/>
   </g>
   <g id="patch_9">
    <path d="M 907.2 801.9 
L 907.2 89.1 
" style="fill:none;stroke:#000000;stroke-linecap:square;stroke-linejoin:miter;"/>
   </g>
   <g id="patch_10">
    <path d="M 126 801.9 
L 907.2 801.9 
" style="fill:none;stroke:#000000;stroke-linecap:square;stroke-linejoin:miter;"/>
   </g>
   <g id="patch_11">
    <path d="M 126 801.9 
L 126 89.1 
" style="fill:none;stroke:#000000;stroke-linecap:square;stroke-linejoin:miter;"/>
   </g>
   <g id="matplotlib.axis_1">
    <g id="xtick_1">
     <g id="line2d_2">
      <defs>
       <path d="M 0 0 
L 0 -4 
" id="m3e12c31a77" style="stroke:#000000;stroke-width:0.5;"/>
      </defs>
      <g>
       <use style="stroke:#000000;stroke-width:0.5;" x="126.0" xlink:href="#m3e12c31a77" y="801.9"/>
      </g>
     </g>
     <g id="line2d_3">
      <defs>
       <path d="M 0 0 
L 0 4 
" id="m9d087c0b0c" style="stroke:#000000;stroke-width:0.5;"/>
      </defs>
      <g>
       <use style="stroke:#000000;stroke-width:0.5;" x="126.0" xlink:href="#m9d087c0b0c" y="89.1"/>
      </g>
     </g>
     <g id="text_1">
      <!-- 0 -->
      <defs>
       <path d="M 31.78125 66.40625 
Q 24.171875 66.40625 20.328125 58.90625 
Q 16.5 51.421875 16.5 36.375 
Q 16.5 21.390625 20.328125 13.890625 
Q 24.171875 6.390625 31.78125 6.390625 
Q 39.453125 6.390625 43.28125 13.890625 
Q 47.125 21.390625 47.125 36.375 
Q 47.125 51.421875 43.28125 58.90625 
Q 39.453125 66.40625 31.78125 66.40625 
M 31.78125 74.21875 
Q 44.046875 74.21875 50.515625 64.515625 
Q 56.984375 54.828125 56.984375 36.375 
Q 56.984375 17.96875 50.515625 8.265625 
Q 44.046875 -1.421875 31.78125 -1.421875 
Q 19.53125 -1.421875 13.0625 8.265625 
Q 6.59375 17.96875 6.59375 36.375 
Q 6.59375 54.828125 13.0625 64.515625 
Q 19.53125 74.21875 31.78125 74.21875 
" id="BitstreamVeraSans-Roman-30"/>
      </defs>
      <g transform="translate(122.1825 815.018125)scale(0.12 -0.12)">
       <use xlink:href="#BitstreamVeraSans-Roman-30"/>
      </g>
     </g>
    </g>
    <g id="xtick_2">
     <g id="line2d_4">
      <g>
       <use style="stroke:#000000;stroke-width:0.5;" x="282.24" xlink:href="#m3e12c31a77" y="801.9"/>
      </g>
     </g>
     <g id="line2d_5">
      <g>
       <use style="stroke:#000000;stroke-width:0.5;" x="282.24" xlink:href="#m9d087c0b0c" y="89.1"/>
      </g>
     </g>
     <g id="text_2">
      <!-- 2 -->
      <defs>
       <path d="M 19.1875 8.296875 
L 53.609375 8.296875 
L 53.609375 0 
L 7.328125 0 
L 7.328125 8.296875 
Q 12.9375 14.109375 22.625 23.890625 
Q 32.328125 33.6875 34.8125 36.53125 
Q 39.546875 41.84375 41.421875 45.53125 
Q 43.3125 49.21875 43.3125 52.78125 
Q 43.3125 58.59375 39.234375 62.25 
Q 35.15625 65.921875 28.609375 65.921875 
Q 23.96875 65.921875 18.8125 64.3125 
Q 13.671875 62.703125 7.8125 59.421875 
L 7.8125 69.390625 
Q 13.765625 71.78125 18.9375 73 
Q 24.125 74.21875 28.421875 74.21875 
Q 39.75 74.21875 46.484375 68.546875 
Q 53.21875 62.890625 53.21875 53.421875 
Q 53.21875 48.921875 51.53125 44.890625 
Q 49.859375 40.875 45.40625 35.40625 
Q 44.1875 33.984375 37.640625 27.21875 
Q 31.109375 20.453125 19.1875 8.296875 
" id="BitstreamVeraSans-Roman-32"/>
      </defs>
      <g transform="translate(278.4225 815.018125)scale(0.12 -0.12)">
       <use xlink:href="#BitstreamVeraSans-Roman-32"/>
      </g>
     </g>
    </g>
    <g id="xtick_3">
     <g id="line2d_6">
      <g>
       <use style="stroke:#000000;stroke-width:0.5;" x="438.48" xlink:href="#m3e12c31a77" y="801.9"/>
      </g>
     </g>
     <g id="line2d_7">
      <g>
       <use style="stroke:#000000;stroke-width:0.5;" x="438.48" xlink:href="#m9d087c0b0c" y="89.1"/>
      </g>
     </g>
     <g id="text_3">
      <!-- 4 -->
      <defs>
       <path d="M 37.796875 64.3125 
L 12.890625 25.390625 
L 37.796875 25.390625 
z
M 35.203125 72.90625 
L 47.609375 72.90625 
L 47.609375 25.390625 
L 58.015625 25.390625 
L 58.015625 17.1875 
L 47.609375 17.1875 
L 47.609375 0 
L 37.796875 0 
L 37.796875 17.1875 
L 4.890625 17.1875 
L 4.890625 26.703125 
z
" id="BitstreamVeraSans-Roman-34"/>
      </defs>
      <g transform="translate(434.6625 815.018125)scale(0.12 -0.12)">
       <use xlink:href="#BitstreamVeraSans-Roman-34"/>
      </g>
     </g>
    </g>
    <g id="xtick_4">
     <g id="line2d_8">
      <g>
       <use style="stroke:#000000;stroke-width:0.5;" x="594.72" xlink:href="#m3e12c31a77" y="801.9"/>
      </g>
     </g>
     <g id="line2d_9">
      <g>
       <use style="stroke:#000000;stroke-width:0.5;" x="594.72" xlink:href="#m9d087c0b0c" y="89.1"/>
      </g>
     </g>
     <g id="text_4">
      <!-- 6 -->
      <defs>
       <path d="M 33.015625 40.375 
Q 26.375 40.375 22.484375 35.828125 
Q 18.609375 31.296875 18.609375 23.390625 
Q 18.609375 15.53125 22.484375 10.953125 
Q 26.375 6.390625 33.015625 6.390625 
Q 39.65625 6.390625 43.53125 10.953125 
Q 47.40625 15.53125 47.40625 23.390625 
Q 47.40625 31.296875 43.53125 35.828125 
Q 39.65625 40.375 33.015625 40.375 
M 52.59375 71.296875 
L 52.59375 62.3125 
Q 48.875 64.0625 45.09375 64.984375 
Q 41.3125 65.921875 37.59375 65.921875 
Q 27.828125 65.921875 22.671875 59.328125 
Q 17.53125 52.734375 16.796875 39.40625 
Q 19.671875 43.65625 24.015625 45.921875 
Q 28.375 48.1875 33.59375 48.1875 
Q 44.578125 48.1875 50.953125 41.515625 
Q 57.328125 34.859375 57.328125 23.390625 
Q 57.328125 12.15625 50.6875 5.359375 
Q 44.046875 -1.421875 33.015625 -1.421875 
Q 20.359375 -1.421875 13.671875 8.265625 
Q 6.984375 17.96875 6.984375 36.375 
Q 6.984375 53.65625 15.1875 63.9375 
Q 23.390625 74.21875 37.203125 74.21875 
Q 40.921875 74.21875 44.703125 73.484375 
Q 48.484375 72.75 52.59375 71.296875 
" id="BitstreamVeraSans-Roman-36"/>
      </defs>
      <g transform="translate(590.9025 815.018125)scale(0.12 -0.12)">
       <use xlink:href="#BitstreamVeraSans-Roman-36"/>
      </g>
     </g>
    </g>
    <g id="xtick_5">
     <g id="line2d_10">
      <g>
       <use style="stroke:#000000;stroke-width:0.5;" x="750.96" xlink:href="#m3e12c31a77" y="801.9"/>
      </g>
     </g>
     <g id="line2d_11">
      <g>
       <use style="stroke:#000000;stroke-width:0.5;" x="750.96" xlink:href="#m9d087c0b0c" y="89.1"/>
      </g>
     </g>
     <g id="text_5">
      <!-- 8 -->
      <defs>
       <path d="M 31.78125 34.625 
Q 24.75 34.625 20.71875 30.859375 
Q 16.703125 27.09375 16.703125 20.515625 
Q 16.703125 13.921875 20.71875 10.15625 
Q 24.75 6.390625 31.78125 6.390625 
Q 38.8125 6.390625 42.859375 10.171875 
Q 46.921875 13.96875 46.921875 20.515625 
Q 46.921875 27.09375 42.890625 30.859375 
Q 38.875 34.625 31.78125 34.625 
M 21.921875 38.8125 
Q 15.578125 40.375 12.03125 44.71875 
Q 8.5 49.078125 8.5 55.328125 
Q 8.5 64.0625 14.71875 69.140625 
Q 20.953125 74.21875 31.78125 74.21875 
Q 42.671875 74.21875 48.875 69.140625 
Q 55.078125 64.0625 55.078125 55.328125 
Q 55.078125 49.078125 51.53125 44.71875 
Q 48 40.375 41.703125 38.8125 
Q 48.828125 37.15625 52.796875 32.3125 
Q 56.78125 27.484375 56.78125 20.515625 
Q 56.78125 9.90625 50.3125 4.234375 
Q 43.84375 -1.421875 31.78125 -1.421875 
Q 19.734375 -1.421875 13.25 4.234375 
Q 6.78125 9.90625 6.78125 20.515625 
Q 6.78125 27.484375 10.78125 32.3125 
Q 14.796875 37.15625 21.921875 38.8125 
M 18.3125 54.390625 
Q 18.3125 48.734375 21.84375 45.5625 
Q 25.390625 42.390625 31.78125 42.390625 
Q 38.140625 42.390625 41.71875 45.5625 
Q 45.3125 48.734375 45.3125 54.390625 
Q 45.3125 60.0625 41.71875 63.234375 
Q 38.140625 66.40625 31.78125 66.40625 
Q 25.390625 66.40625 21.84375 63.234375 
Q 18.3125 60.0625 18.3125 54.390625 
" id="BitstreamVeraSans-Roman-38"/>
      </defs>
      <g transform="translate(747.1425 815.018125)scale(0.12 -0.12)">
       <use xlink:href="#BitstreamVeraSans-Roman-38"/>
      </g>
     </g>
    </g>
    <g id="xtick_6">
     <g id="line2d_12">
      <g>
       <use style="stroke:#000000;stroke-width:0.5;" x="907.2" xlink:href="#m3e12c31a77" y="801.9"/>
      </g>
     </g>
     <g id="line2d_13">
      <g>
       <use style="stroke:#000000;stroke-width:0.5;" x="907.2" xlink:href="#m9d087c0b0c" y="89.1"/>
      </g>
     </g>
     <g id="text_6">
      <!-- 10 -->
      <defs>
       <path d="M 12.40625 8.296875 
L 28.515625 8.296875 
L 28.515625 63.921875 
L 10.984375 60.40625 
L 10.984375 69.390625 
L 28.421875 72.90625 
L 38.28125 72.90625 
L 38.28125 8.296875 
L 54.390625 8.296875 
L 54.390625 0 
L 12.40625 0 
z
" id="BitstreamVeraSans-Roman-31"/>
      </defs>
      <g transform="translate(899.565 815.018125)scale(0.12 -0.12)">
       <use xlink:href="#BitstreamVeraSans-Roman-31"/>
       <use x="63.623046875" xlink:href="#BitstreamVeraSans-Roman-30"/>
      </g>
     </g>
    </g>
   </g>
   <g id="matplotlib.axis_2">
    <g id="ytick_1">
     <g id="line2d_14">
      <defs>
       <path d="M 0 0 
L 4 0 
" id="meec478b4e6" style="stroke:#000000;stroke-width:0.5;"/>
      </defs>
      <g>
       <use style="stroke:#000000;stroke-width:0.5;" x="126.0" xlink:href="#meec478b4e6" y="801.9"/>
      </g>
     </g>
     <g id="line2d_15">
      <defs>
       <path d="M 0 0 
L -4 0 
" id="m04605e7748" style="stroke:#000000;stroke-width:0.5;"/>
      </defs>
      <g>
       <use style="stroke:#000000;stroke-width:0.5;" x="907.2" xlink:href="#m04605e7748" y="801.9"/>
      </g>
     </g>
     <g id="text_7">
      <!-- 0 -->
      <g transform="translate(114.365 805.21125)scale(0.12 -0.12)">
       <use xlink:href="#BitstreamVeraSans-Roman-30"/>
      </g>
     </g>
    </g>
    <g id="ytick_2">
     <g id="line2d_16">
      <g>
       <use style="stroke:#000000;stroke-width:0.5;" x="126.0" xlink:href="#meec478b4e6" y="659.34"/>
      </g>
     </g>
     <g id="line2d_17">
      <g>
       <use style="stroke:#000000;stroke-width:0.5;" x="907.2" xlink:href="#m04605e7748" y="659.34"/>
      </g>
     </g>
     <g id="text_8">
      <!-- 2 -->
      <g transform="translate(114.365 662.65125)scale(0.12 -0.12)">
       <use xlink:href="#BitstreamVeraSans-Roman-32"/>
      </g>
     </g>
    </g>
    <g id="ytick_3">
     <g id="line2d_18">
      <g>
       <use style="stroke:#000000;stroke-width:0.5;" x="126.0" xlink:href="#meec478b4e6" y="516.78"/>
      </g>
     </g>
     <g id="line2d_19">
      <g>
       <use style="stroke:#000000;stroke-width:0.5;" x="907.2" xlink:href="#m04605e7748" y="516.78"/>
      </g>
     </g>
     <g id="text_9">
      <!-- 4 -->
      <g transform="translate(114.365 520.09125)scale(0.12 -0.12)">
       <use xlink:href="#BitstreamVeraSans-Roman-34"/>
      </g>
     </g>
    </g>
    <g id="ytick_4">
     <g id="line2d_20">
      <g>
       <use style="stroke:#000000;stroke-width:0.5;" x="126.0" xlink:href="#meec478b4e6" y="374.22"/>
      </g>
     </g>
     <g id="line2d_21">
      <g>
       <use style="stroke:#000000;stroke-width:0.5;" x="907.2" xlink:href="#m04605e7748" y="374.22"/>
      </g>
     </g>
     <g id="text_10">
      <!-- 6 -->
      <g transform="translate(114.365 377.53125)scale(0.12 -0.12)">
       <use xlink:href="#BitstreamVeraSans-Roman-36"/>
      </g>
     </g>
    </g>
    <g id="ytick_5">
     <g id="line2d_22">
      <g>
       <use style="stroke:#000000;stroke-width:0.5;" x="126.0" xlink:href="#meec478b4e6" y="231.66"/>
      </g>
     </g>
     <g id="line2d_23">
      <g>
       <use style="stroke:#000000;stroke-width:0.5;" x="907.2" xlink:href="#m04605e7748" y="231.66"/>
      </g>
     </g>
     <g id="text_11">
      <!-- 8 -->
      <g transform="translate(114.365 234.97125)scale(0.12 -0.12)">
       <use xlink:href="#BitstreamVeraSans-Roman-38"/>
      </g>
     </g>
    </g>
    <g id="ytick_6">
     <g id="line2d_24">
      <g>
       <use style="stroke:#000000;stroke-width:0.5;" x="126.0" xlink:href="#meec478b4e6" y="89.1"/>
      </g>
     </g>
     <g id="line2d_25">
      <g>
       <use style="stroke:#000000;stroke-width:0.5;" x="907.2" xlink:href="#m04605e7748" y="89.1"/>
      </g>
     </g>
     <g id="text_12">
      <!-- 10 -->
      <g transform="translate(106.73 92.41125)scale(0.12 -0.12)">
       <use xlink:href="#BitstreamVeraSans-Roman-31"/>
       <use x="63.623046875" xlink:href="#BitstreamVeraSans-Roman-30"/>
      </g>
     </g>
    </g>
   </g>
  </g>
 </g>
 <defs>
  <clipPath id="pdf7608f62d">
   <rect height="712.8" width="781.2" x="126.0" y="89.1"/>
  </clipPath>
 </defs>
</svg>
