<?xml version="1.0" encoding="utf-8" standalone="no"?>
<!DOCTYPE svg PUBLIC "-//W3C//DTD SVG 1.1//EN"
  "http://www.w3.org/Graphics/SVG/1.1/DTD/svg11.dtd">
<!-- Created with matplotlib (http://matplotlib.org/) -->
<svg height="891pt" version="1.1" viewBox="0 0 1008 891" width="1008pt" xmlns="http://www.w3.org/2000/svg" xmlns:xlink="http://www.w3.org/1999/xlink">
 <defs>
  <style type="text/css">
*{stroke-linecap:butt;stroke-linejoin:round;stroke-miterlimit:100000;}
  </style>
 </defs>
 <g id="figure_1">
  <g id="patch_1">
   <path d="M 0 891 
L 1008 891 
L 1008 0 
L 0 0 
z
" style="fill:#ffffff;"/>
  </g>
  <g id="axes_1">
   <g id="patch_2">
    <path d="M 126 801.9 
L 907.2 801.9 
L 907.2 89.1 
L 126 89.1 
z
" style="fill:#ffffff;"/>
   </g>
   <g id="patch_3">
    <path clip-path="url(#p9ba35ab46b)" d="M 126 694.98 
L 829.08 694.98 
L 829.08 659.34 
L 126 659.34 
z
" style="opacity:0.7;stroke:#000000;stroke-linejoin:miter;"/>
   </g>
   <g id="patch_4">
    <path clip-path="url(#p9ba35ab46b)" d="M 204.12 552.42 
L 907.2 552.42 
L 907.2 516.78 
L 204.12 516.78 
z
" style="opacity:0.7;stroke:#000000;stroke-linejoin:miter;"/>
   </g>
   <g id="patch_5">
    <path clip-path="url(#p9ba35ab46b)" d="M 126 374.22 
L 438.48 374.22 
L 438.48 89.1 
L 126 89.1 
z
" style="opacity:0.7;stroke:#000000;stroke-linejoin:miter;"/>
   </g>
   <g id="patch_6">
    <path clip-path="url(#p9ba35ab46b)" d="M 594.72 374.22 
L 907.2 374.22 
L 907.2 89.1 
L 594.72 89.1 
z
" style="opacity:0.7;stroke:#000000;stroke-linejoin:miter;"/>
   </g>
   <g id="patch_7">
    <path clip-path="url(#p9ba35ab46b)" d="M 497.07 124.74 
L 536.13 124.74 
L 536.13 89.1 
L 497.07 89.1 
z
" style="fill:#008000;stroke:#000000;stroke-linejoin:miter;"/>
   </g>
   <g id="line2d_1">
    <path clip-path="url(#p9ba35ab46b)" d="M 516.6 801.1872 
L 516.6 797.6232 
L 516.7953 794.063691 
L 517.185119 790.517439 
L 517.768675 786.993499 
L 518.545188 783.500565 
L 519.511532 780.047334 
L 520.665365 776.642502 
L 522.005123 773.294623 
L 523.526119 770.011965 
L 525.225229 766.802797 
L 527.097766 763.675102 
L 529.139822 760.636721 
L 531.34515 757.695209 
L 533.709061 754.85798 
L 536.225306 752.13209 
L 538.887636 749.524383 
L 541.6898 747.041344 
L 544.623988 744.689175 
L 547.683948 742.473793 
L 550.861088 740.400685 
L 554.147597 738.475056 
L 557.536442 736.701752 
L 561.01747 735.085122 
L 564.582085 733.629299 
L 568.223258 732.337848 
L 575.661845 730.163095 
L 583.196519 728.281303 
L 590.812438 726.695323 
L 598.49554 725.408719 
L 606.231763 724.42363 
L 614.007828 723.742193 
L 621.80811 723.364409 
L 629.619329 723.293129 
L 637.426642 723.526214 
L 645.215987 724.065091 
L 652.972522 724.907621 
L 660.682966 726.05309 
L 668.332476 727.497936 
L 679.814554 729.629208 
L 691.345066 731.53495 
L 702.916981 733.214877 
L 714.526394 734.668276 
L 726.167056 735.894292 
L 737.833496 736.892497 
L 749.52103 737.662321 
L 761.223406 738.20355 
L 765.127062 738.333066 
L 769.032281 738.284453 
L 772.930469 738.057783 
L 776.81147 737.653554 
L 780.66513 737.072907 
L 784.482854 736.317268 
L 788.253707 735.388489 
L 791.969094 734.288924 
L 795.619642 733.021209 
L 799.195975 731.588695 
L 802.689502 729.994874 
L 806.091628 728.243525 
L 809.39376 726.339636 
L 812.586524 724.286772 
L 815.663671 722.092061 
L 818.616607 719.759066 
L 821.438302 717.294204 
L 824.120942 714.703889 
L 826.65828 711.994536 
L 829.044846 709.172561 
L 831.272828 706.245804 
L 833.338321 703.220681 
L 835.235856 700.105032 
L 836.959183 696.907411 
L 838.505959 693.634234 
L 839.871497 690.295478 
L 841.052671 686.898274 
L 842.046358 683.451173 
L 842.849431 679.963442 
L 843.461111 676.443636 
L 843.878272 672.899594 
L 844.101695 669.34201 
L 844.129818 665.77801 
L 843.962641 662.216861 
L 843.600164 658.668542 
L 843.04395 655.140895 
L 842.29556 651.642473 
L 841.355777 648.183254 
L 840.228505 644.771081 
L 838.915308 641.414506 
L 837.420091 638.122082 
L 835.74598 634.901652 
L 833.898442 631.761768 
L 831.880602 628.710271 
L 829.697929 625.75429 
L 827.356673 622.901664 
L 824.86152 620.159522 
L 822.219502 617.534993 
L 819.436867 615.033065 
L 816.521429 612.662292 
L 810.385103 608.251486 
L 804.047227 604.084457 
L 797.51952 600.169759 
L 790.81448 596.513095 
L 783.943045 593.122306 
L 776.919276 590.003093 
L 769.755672 587.161872 
L 762.464732 584.602207 
L 755.060519 582.330514 
L 747.556312 580.350355 
L 739.966172 578.666009 
L 732.304163 577.2789 
L 724.583563 576.193306 
L 712.961651 574.829006 
L 701.310053 573.69209 
L 689.635019 572.78327 
L 677.941236 572.103259 
L 666.233392 571.652057 
L 654.518516 571.429663 
L 642.800516 571.436078 
L 631.085641 571.672015 
L 619.378578 572.136761 
L 607.685576 572.830315 
L 596.011324 573.752678 
L 584.362069 574.902425 
L 572.741719 576.279554 
L 561.156523 577.884067 
L 549.61195 579.714538 
L 538.112686 581.770253 
L 526.6642 584.0505 
L 515.27196 586.553854 
L 503.941435 589.279601 
L 492.677312 592.226316 
L 481.48506 595.392574 
L 470.370146 598.776235 
L 459.336478 602.377301 
L 448.390303 606.192919 
L 419.343725 616.698878 
L 408.310056 620.299944 
L 397.194361 623.683606 
L 386.002109 626.849863 
L 374.737986 629.796578 
L 363.407461 632.522326 
L 352.016003 635.025679 
L 344.389147 636.570317 
L 336.707608 637.866187 
L 328.972946 638.85983 
L 321.197663 639.550534 
L 313.398162 639.936871 
L 305.586943 640.017418 
L 297.778849 639.792886 
L 289.989504 639.263275 
L 282.231407 638.429299 
L 274.5194 637.293809 
L 266.868328 635.856804 
L 259.291469 634.122562 
L 251.802886 632.09322 
L 248.096873 630.969847 
L 244.43617 629.726011 
L 240.827026 628.363138 
L 237.273347 626.884078 
L 233.779039 625.290257 
L 230.350352 623.583814 
L 226.990411 621.766174 
L 223.703903 619.840901 
L 220.493952 617.809421 
L 217.366808 615.674585 
L 214.324034 613.439244 
L 211.371098 611.10625 
L 208.511906 608.678453 
L 205.748802 606.158705 
L 203.086472 603.551282 
L 200.52773 600.858324 
L 198.07609 598.084106 
L 195.734521 595.231481 
L 193.50607 592.304011 
L 191.393549 589.306687 
L 189.39977 586.241647 
L 187.527156 583.113881 
L 185.778127 579.927665 
L 184.154872 576.68585 
L 182.659577 573.393427 
L 181.294117 570.053959 
L 180.113177 566.656754 
L 179.119803 563.210366 
L 178.316573 559.721923 
L 177.705284 556.202117 
L 177.287577 552.658788 
L 177.064544 549.10049 
L 177.036655 545.53649 
L 177.204066 541.976054 
L 177.566231 538.427023 
L 178.122367 534.899376 
L 178.871069 531.401666 
L 179.810384 527.941735 
L 180.938046 524.529562 
L 182.251165 521.172986 
L 183.746538 517.880563 
L 185.420337 514.660846 
L 187.2685 511.520962 
L 189.286262 508.469465 
L 191.4687 505.513483 
L 193.810347 502.660858 
L 196.305266 499.918716 
L 198.947284 497.293474 
L 201.729762 494.792258 
L 204.645748 492.420773 
L 213.824848 485.775338 
L 223.157844 479.310242 
L 232.64005 473.029049 
L 242.26834 466.934609 
L 252.036464 461.029774 
L 261.94208 455.317394 
L 271.978938 449.800322 
L 282.143131 444.479983 
L 292.429973 439.359941 
L 302.834776 434.442334 
L 313.352852 429.7293 
L 323.979516 425.222978 
L 334.708517 420.925507 
L 345.53673 416.839025 
L 356.457906 412.964244 
L 367.468139 409.304729 
L 385.891178 403.397042 
L 393.099311 400.649198 
L 400.171514 397.621937 
L 407.094509 394.32096 
L 413.856576 390.752683 
L 420.445217 386.923522 
L 426.847151 382.83989 
L 433.052222 378.50963 
L 439.047932 373.940582 
L 444.823344 369.142013 
L 450.368302 364.121762 
L 455.67265 358.889098 
L 463.285444 350.761039 
L 470.705281 342.486144 
L 477.929819 334.067976 
L 484.954369 325.510099 
L 491.776589 316.817503 
L 498.392572 307.993039 
L 504.800755 299.040984 
L 510.996452 289.966327 
L 515.007914 283.84979 
L 518.777986 277.607088 
L 522.25042 271.223251 
L 525.420529 264.708259 
L 528.282065 258.076368 
L 530.828777 251.33827 
L 533.05754 244.506794 
L 534.962887 237.594773 
L 536.542474 230.614322 
L 537.792394 223.578274 
L 538.711085 216.50017 
L 539.296204 209.392841 
L 539.54775 202.269118 
L 539.464162 191.577118 
L 539.129027 180.890107 
L 538.543908 170.21165 
L 537.707243 159.546737 
L 536.620594 148.901069 
L 535.284742 138.278923 
L 533.699687 127.68529 
L 531.865429 117.125158 
L 531.199066 113.613905 
L 531.199066 113.613905 
" style="fill:none;stroke:#ff0000;stroke-linecap:square;"/>
   </g>
   <g id="patch_8">
    <path d="M 126 89.1 
L 907.2 89.1 
" style="fill:none;stroke:#000000;stroke-linecap:square;stroke-linejoin:miter;"/>
   </g>
   <g id="patch_9">
    <path d="M 907.2 801.9 
L 907.2 89.1 
" style="fill:none;stroke:#000000;stroke-linecap:square;stroke-linejoin:miter;"/>
   </g>
   <g id="patch_10">
    <path d="M 126 801.9 
L 907.2 801.9 
" style="fill:none;stroke:#000000;stroke-linecap:square;stroke-linejoin:miter;"/>
   </g>
   <g id="patch_11">
    <path d="M 126 801.9 
L 126 89.1 
" style="fill:none;stroke:#000000;stroke-linecap:square;stroke-linejoin:miter;"/>
   </g>
   <g id="matplotlib.axis_1">
    <g id="xtick_1">
     <g id="line2d_2">
      <defs>
       <path d="M 0 0 
L 0 -4 
" id="m1d3ec02524" style="stroke:#000000;stroke-width:0.5;"/>
      </defs>
      <g>
       <use style="stroke:#000000;stroke-width:0.5;" x="126.0" xlink:href="#m1d3ec02524" y="801.9"/>
      </g>
     </g>
     <g id="line2d_3">
      <defs>
       <path d="M 0 0 
L 0 4 
" id="m871d2661b1" style="stroke:#000000;stroke-width:0.5;"/>
      </defs>
      <g>
       <use style="stroke:#000000;stroke-width:0.5;" x="126.0" xlink:href="#m871d2661b1" y="89.1"/>
      </g>
     </g>
     <g id="text_1">
      <!-- 0 -->
      <defs>
       <path d="M 31.78125 66.40625 
Q 24.171875 66.40625 20.328125 58.90625 
Q 16.5 51.421875 16.5 36.375 
Q 16.5 21.390625 20.328125 13.890625 
Q 24.171875 6.390625 31.78125 6.390625 
Q 39.453125 6.390625 43.28125 13.890625 
Q 47.125 21.390625 47.125 36.375 
Q 47.125 51.421875 43.28125 58.90625 
Q 39.453125 66.40625 31.78125 66.40625 
M 31.78125 74.21875 
Q 44.046875 74.21875 50.515625 64.515625 
Q 56.984375 54.828125 56.984375 36.375 
Q 56.984375 17.96875 50.515625 8.265625 
Q 44.046875 -1.421875 31.78125 -1.421875 
Q 19.53125 -1.421875 13.0625 8.265625 
Q 6.59375 17.96875 6.59375 36.375 
Q 6.59375 54.828125 13.0625 64.515625 
Q 19.53125 74.21875 31.78125 74.21875 
" id="BitstreamVeraSans-Roman-30"/>
      </defs>
      <g transform="translate(122.1825 815.018125)scale(0.12 -0.12)">
       <use xlink:href="#BitstreamVeraSans-Roman-30"/>
      </g>
     </g>
    </g>
    <g id="xtick_2">
     <g id="line2d_4">
      <g>
       <use style="stroke:#000000;stroke-width:0.5;" x="282.24" xlink:href="#m1d3ec02524" y="801.9"/>
      </g>
     </g>
     <g id="line2d_5">
      <g>
       <use style="stroke:#000000;stroke-width:0.5;" x="282.24" xlink:href="#m871d2661b1" y="89.1"/>
      </g>
     </g>
     <g id="text_2">
      <!-- 2 -->
      <defs>
       <path d="M 19.1875 8.296875 
L 53.609375 8.296875 
L 53.609375 0 
L 7.328125 0 
L 7.328125 8.296875 
Q 12.9375 14.109375 22.625 23.890625 
Q 32.328125 33.6875 34.8125 36.53125 
Q 39.546875 41.84375 41.421875 45.53125 
Q 43.3125 49.21875 43.3125 52.78125 
Q 43.3125 58.59375 39.234375 62.25 
Q 35.15625 65.921875 28.609375 65.921875 
Q 23.96875 65.921875 18.8125 64.3125 
Q 13.671875 62.703125 7.8125 59.421875 
L 7.8125 69.390625 
Q 13.765625 71.78125 18.9375 73 
Q 24.125 74.21875 28.421875 74.21875 
Q 39.75 74.21875 46.484375 68.546875 
Q 53.21875 62.890625 53.21875 53.421875 
Q 53.21875 48.921875 51.53125 44.890625 
Q 49.859375 40.875 45.40625 35.40625 
Q 44.1875 33.984375 37.640625 27.21875 
Q 31.109375 20.453125 19.1875 8.296875 
" id="BitstreamVeraSans-Roman-32"/>
      </defs>
      <g transform="translate(278.4225 815.018125)scale(0.12 -0.12)">
       <use xlink:href="#BitstreamVeraSans-Roman-32"/>
      </g>
     </g>
    </g>
    <g id="xtick_3">
     <g id="line2d_6">
      <g>
       <use style="stroke:#000000;stroke-width:0.5;" x="438.48" xlink:href="#m1d3ec02524" y="801.9"/>
      </g>
     </g>
     <g id="line2d_7">
      <g>
       <use style="stroke:#000000;stroke-width:0.5;" x="438.48" xlink:href="#m871d2661b1" y="89.1"/>
      </g>
     </g>
     <g id="text_3">
      <!-- 4 -->
      <defs>
       <path d="M 37.796875 64.3125 
L 12.890625 25.390625 
L 37.796875 25.390625 
z
M 35.203125 72.90625 
L 47.609375 72.90625 
L 47.609375 25.390625 
L 58.015625 25.390625 
L 58.015625 17.1875 
L 47.609375 17.1875 
L 47.609375 0 
L 37.796875 0 
L 37.796875 17.1875 
L 4.890625 17.1875 
L 4.890625 26.703125 
z
" id="BitstreamVeraSans-Roman-34"/>
      </defs>
      <g transform="translate(434.6625 815.018125)scale(0.12 -0.12)">
       <use xlink:href="#BitstreamVeraSans-Roman-34"/>
      </g>
     </g>
    </g>
    <g id="xtick_4">
     <g id="line2d_8">
      <g>
       <use style="stroke:#000000;stroke-width:0.5;" x="594.72" xlink:href="#m1d3ec02524" y="801.9"/>
      </g>
     </g>
     <g id="line2d_9">
      <g>
       <use style="stroke:#000000;stroke-width:0.5;" x="594.72" xlink:href="#m871d2661b1" y="89.1"/>
      </g>
     </g>
     <g id="text_4">
      <!-- 6 -->
      <defs>
       <path d="M 33.015625 40.375 
Q 26.375 40.375 22.484375 35.828125 
Q 18.609375 31.296875 18.609375 23.390625 
Q 18.609375 15.53125 22.484375 10.953125 
Q 26.375 6.390625 33.015625 6.390625 
Q 39.65625 6.390625 43.53125 10.953125 
Q 47.40625 15.53125 47.40625 23.390625 
Q 47.40625 31.296875 43.53125 35.828125 
Q 39.65625 40.375 33.015625 40.375 
M 52.59375 71.296875 
L 52.59375 62.3125 
Q 48.875 64.0625 45.09375 64.984375 
Q 41.3125 65.921875 37.59375 65.921875 
Q 27.828125 65.921875 22.671875 59.328125 
Q 17.53125 52.734375 16.796875 39.40625 
Q 19.671875 43.65625 24.015625 45.921875 
Q 28.375 48.1875 33.59375 48.1875 
Q 44.578125 48.1875 50.953125 41.515625 
Q 57.328125 34.859375 57.328125 23.390625 
Q 57.328125 12.15625 50.6875 5.359375 
Q 44.046875 -1.421875 33.015625 -1.421875 
Q 20.359375 -1.421875 13.671875 8.265625 
Q 6.984375 17.96875 6.984375 36.375 
Q 6.984375 53.65625 15.1875 63.9375 
Q 23.390625 74.21875 37.203125 74.21875 
Q 40.921875 74.21875 44.703125 73.484375 
Q 48.484375 72.75 52.59375 71.296875 
" id="BitstreamVeraSans-Roman-36"/>
      </defs>
      <g transform="translate(590.9025 815.018125)scale(0.12 -0.12)">
       <use xlink:href="#BitstreamVeraSans-Roman-36"/>
      </g>
     </g>
    </g>
    <g id="xtick_5">
     <g id="line2d_10">
      <g>
       <use style="stroke:#000000;stroke-width:0.5;" x="750.96" xlink:href="#m1d3ec02524" y="801.9"/>
      </g>
     </g>
     <g id="line2d_11">
      <g>
       <use style="stroke:#000000;stroke-width:0.5;" x="750.96" xlink:href="#m871d2661b1" y="89.1"/>
      </g>
     </g>
     <g id="text_5">
      <!-- 8 -->
      <defs>
       <path d="M 31.78125 34.625 
Q 24.75 34.625 20.71875 30.859375 
Q 16.703125 27.09375 16.703125 20.515625 
Q 16.703125 13.921875 20.71875 10.15625 
Q 24.75 6.390625 31.78125 6.390625 
Q 38.8125 6.390625 42.859375 10.171875 
Q 46.921875 13.96875 46.921875 20.515625 
Q 46.921875 27.09375 42.890625 30.859375 
Q 38.875 34.625 31.78125 34.625 
M 21.921875 38.8125 
Q 15.578125 40.375 12.03125 44.71875 
Q 8.5 49.078125 8.5 55.328125 
Q 8.5 64.0625 14.71875 69.140625 
Q 20.953125 74.21875 31.78125 74.21875 
Q 42.671875 74.21875 48.875 69.140625 
Q 55.078125 64.0625 55.078125 55.328125 
Q 55.078125 49.078125 51.53125 44.71875 
Q 48 40.375 41.703125 38.8125 
Q 48.828125 37.15625 52.796875 32.3125 
Q 56.78125 27.484375 56.78125 20.515625 
Q 56.78125 9.90625 50.3125 4.234375 
Q 43.84375 -1.421875 31.78125 -1.421875 
Q 19.734375 -1.421875 13.25 4.234375 
Q 6.78125 9.90625 6.78125 20.515625 
Q 6.78125 27.484375 10.78125 32.3125 
Q 14.796875 37.15625 21.921875 38.8125 
M 18.3125 54.390625 
Q 18.3125 48.734375 21.84375 45.5625 
Q 25.390625 42.390625 31.78125 42.390625 
Q 38.140625 42.390625 41.71875 45.5625 
Q 45.3125 48.734375 45.3125 54.390625 
Q 45.3125 60.0625 41.71875 63.234375 
Q 38.140625 66.40625 31.78125 66.40625 
Q 25.390625 66.40625 21.84375 63.234375 
Q 18.3125 60.0625 18.3125 54.390625 
" id="BitstreamVeraSans-Roman-38"/>
      </defs>
      <g transform="translate(747.1425 815.018125)scale(0.12 -0.12)">
       <use xlink:href="#BitstreamVeraSans-Roman-38"/>
      </g>
     </g>
    </g>
    <g id="xtick_6">
     <g id="line2d_12">
      <g>
       <use style="stroke:#000000;stroke-width:0.5;" x="907.2" xlink:href="#m1d3ec02524" y="801.9"/>
      </g>
     </g>
     <g id="line2d_13">
      <g>
       <use style="stroke:#000000;stroke-width:0.5;" x="907.2" xlink:href="#m871d2661b1" y="89.1"/>
      </g>
     </g>
     <g id="text_6">
      <!-- 10 -->
      <defs>
       <path d="M 12.40625 8.296875 
L 28.515625 8.296875 
L 28.515625 63.921875 
L 10.984375 60.40625 
L 10.984375 69.390625 
L 28.421875 72.90625 
L 38.28125 72.90625 
L 38.28125 8.296875 
L 54.390625 8.296875 
L 54.390625 0 
L 12.40625 0 
z
" id="BitstreamVeraSans-Roman-31"/>
      </defs>
      <g transform="translate(899.565 815.018125)scale(0.12 -0.12)">
       <use xlink:href="#BitstreamVeraSans-Roman-31"/>
       <use x="63.623046875" xlink:href="#BitstreamVeraSans-Roman-30"/>
      </g>
     </g>
    </g>
   </g>
   <g id="matplotlib.axis_2">
    <g id="ytick_1">
     <g id="line2d_14">
      <defs>
       <path d="M 0 0 
L 4 0 
" id="m25ccd7a68c" style="stroke:#000000;stroke-width:0.5;"/>
      </defs>
      <g>
       <use style="stroke:#000000;stroke-width:0.5;" x="126.0" xlink:href="#m25ccd7a68c" y="801.9"/>
      </g>
     </g>
     <g id="line2d_15">
      <defs>
       <path d="M 0 0 
L -4 0 
" id="mf414ebcc57" style="stroke:#000000;stroke-width:0.5;"/>
      </defs>
      <g>
       <use style="stroke:#000000;stroke-width:0.5;" x="907.2" xlink:href="#mf414ebcc57" y="801.9"/>
      </g>
     </g>
     <g id="text_7">
      <!-- 0 -->
      <g transform="translate(114.365 805.21125)scale(0.12 -0.12)">
       <use xlink:href="#BitstreamVeraSans-Roman-30"/>
      </g>
     </g>
    </g>
    <g id="ytick_2">
     <g id="line2d_16">
      <g>
       <use style="stroke:#000000;stroke-width:0.5;" x="126.0" xlink:href="#m25ccd7a68c" y="659.34"/>
      </g>
     </g>
     <g id="line2d_17">
      <g>
       <use style="stroke:#000000;stroke-width:0.5;" x="907.2" xlink:href="#mf414ebcc57" y="659.34"/>
      </g>
     </g>
     <g id="text_8">
      <!-- 2 -->
      <g transform="translate(114.365 662.65125)scale(0.12 -0.12)">
       <use xlink:href="#BitstreamVeraSans-Roman-32"/>
      </g>
     </g>
    </g>
    <g id="ytick_3">
     <g id="line2d_18">
      <g>
       <use style="stroke:#000000;stroke-width:0.5;" x="126.0" xlink:href="#m25ccd7a68c" y="516.78"/>
      </g>
     </g>
     <g id="line2d_19">
      <g>
       <use style="stroke:#000000;stroke-width:0.5;" x="907.2" xlink:href="#mf414ebcc57" y="516.78"/>
      </g>
     </g>
     <g id="text_9">
      <!-- 4 -->
      <g transform="translate(114.365 520.09125)scale(0.12 -0.12)">
       <use xlink:href="#BitstreamVeraSans-Roman-34"/>
      </g>
     </g>
    </g>
    <g id="ytick_4">
     <g id="line2d_20">
      <g>
       <use style="stroke:#000000;stroke-width:0.5;" x="126.0" xlink:href="#m25ccd7a68c" y="374.22"/>
      </g>
     </g>
     <g id="line2d_21">
      <g>
       <use style="stroke:#000000;stroke-width:0.5;" x="907.2" xlink:href="#mf414ebcc57" y="374.22"/>
      </g>
     </g>
     <g id="text_10">
      <!-- 6 -->
      <g transform="translate(114.365 377.53125)scale(0.12 -0.12)">
       <use xlink:href="#BitstreamVeraSans-Roman-36"/>
      </g>
     </g>
    </g>
    <g id="ytick_5">
     <g id="line2d_22">
      <g>
       <use style="stroke:#000000;stroke-width:0.5;" x="126.0" xlink:href="#m25ccd7a68c" y="231.66"/>
      </g>
     </g>
     <g id="line2d_23">
      <g>
       <use style="stroke:#000000;stroke-width:0.5;" x="907.2" xlink:href="#mf414ebcc57" y="231.66"/>
      </g>
     </g>
     <g id="text_11">
      <!-- 8 -->
      <g transform="translate(114.365 234.97125)scale(0.12 -0.12)">
       <use xlink:href="#BitstreamVeraSans-Roman-38"/>
      </g>
     </g>
    </g>
    <g id="ytick_6">
     <g id="line2d_24">
      <g>
       <use style="stroke:#000000;stroke-width:0.5;" x="126.0" xlink:href="#m25ccd7a68c" y="89.1"/>
      </g>
     </g>
     <g id="line2d_25">
      <g>
       <use style="stroke:#000000;stroke-width:0.5;" x="907.2" xlink:href="#mf414ebcc57" y="89.1"/>
      </g>
     </g>
     <g id="text_12">
      <!-- 10 -->
      <g transform="translate(106.73 92.41125)scale(0.12 -0.12)">
       <use xlink:href="#BitstreamVeraSans-Roman-31"/>
       <use x="63.623046875" xlink:href="#BitstreamVeraSans-Roman-30"/>
      </g>
     </g>
    </g>
   </g>
  </g>
 </g>
 <defs>
  <clipPath id="p9ba35ab46b">
   <rect height="712.8" width="781.2" x="126.0" y="89.1"/>
  </clipPath>
 </defs>
</svg>
